<svg width="45" height="46" viewBox="0 0 45 46" fill="none" xmlns="http://www.w3.org/2000/svg">
<path d="M10.607 45.0037C9.99762 45.0037 9.39455 44.8341 8.86058 44.5011C8.10674 44.0362 7.57277 43.3013 7.37175 42.4343C7.16444 41.5674 7.31521 40.6754 7.78008 39.9153L9.71493 36.7805C10.1233 36.1209 10.9839 35.9199 11.6435 36.322C12.3031 36.7303 12.5041 37.5909 12.1021 38.2505L10.1672 41.3852C10.0667 41.5486 10.0856 41.7056 10.1044 41.7873C10.1233 41.869 10.1798 42.0134 10.3431 42.114C10.5065 42.2145 10.6635 42.1956 10.7452 42.1768C10.8268 42.1579 10.9713 42.1014 11.0718 41.9381L12.8936 38.9918C13.302 38.3322 14.1626 38.1312 14.8222 38.5332C15.4818 38.9416 15.6828 39.8022 15.2808 40.4618L13.459 43.408C12.9941 44.1619 12.2591 44.6959 11.3922 44.8969C11.1347 44.9597 10.8771 44.9848 10.6195 44.9848L10.607 45.0037Z" fill="white"/>
<path d="M33.4671 45.0037C33.2095 45.0037 32.952 44.9723 32.6944 44.9157C31.8275 44.7084 31.0925 44.1807 30.6276 43.4269L28.8058 40.4806C28.3975 39.821 28.6048 38.9604 29.2582 38.5521C29.9178 38.1437 30.7784 38.351 31.1867 39.0044L33.0085 41.9506C33.109 42.1139 33.2598 42.1705 33.3352 42.1893C33.4168 42.2082 33.5739 42.227 33.7372 42.1265C33.9005 42.026 33.9571 41.8752 33.9759 41.7998C33.9948 41.7182 34.0136 41.5611 33.9131 41.3978L31.9783 38.2631C31.5699 37.6035 31.7772 36.7428 32.4368 36.3345C33.0964 35.9262 33.9571 36.1335 34.3654 36.7931L36.3003 39.9278C36.7651 40.6816 36.9159 41.58 36.7086 42.4469C36.5013 43.3138 35.9736 44.0488 35.2198 44.5137C34.6858 44.8403 34.089 45.0099 33.4734 45.0099L33.4671 45.0037Z" fill="white"/>
<path d="M22.0391 43.1382C12.0067 43.1382 3.84644 34.9779 3.84644 24.9456C3.84644 14.9132 12.0067 6.75293 22.0391 6.75293C32.0714 6.75293 40.2317 14.9132 40.2317 24.9456C40.2317 34.9779 32.0714 43.1382 22.0391 43.1382ZM22.0391 9.54842C13.5521 9.54842 6.6482 16.4523 6.6482 24.9393C6.6482 33.4263 13.5521 40.3302 22.0391 40.3302C30.5261 40.3302 37.4362 33.4263 37.4362 24.9393C37.4362 16.4523 30.5261 9.54842 22.0391 9.54842Z" fill="white"/>
<path d="M22.039 38.087C14.7895 38.087 8.89075 32.1882 8.89075 24.9388C8.89075 17.6894 14.7895 11.7969 22.039 11.7969C29.2884 11.7969 35.1809 17.6957 35.1809 24.9451C35.1809 32.1945 29.2821 38.0933 22.039 38.0933V38.087ZM22.039 14.2469C16.1402 14.2469 11.3407 19.0463 11.3407 24.9388C11.3407 30.8313 16.1402 35.6308 22.039 35.6308C27.9378 35.6308 32.7309 30.8313 32.7309 24.9388C32.7309 19.0463 27.9315 14.2469 22.039 14.2469Z" fill="white"/>
<path d="M38.272 21.8112C37.9139 21.8112 37.5558 21.673 37.2794 21.4028C36.7329 20.8563 36.7329 19.9705 37.2794 19.424C39.9304 16.7667 39.9304 12.451 37.2794 9.79372C34.6221 7.14271 30.3064 7.14271 27.6491 9.79372C27.1026 10.3402 26.2168 10.3402 25.6703 9.79372C25.1237 9.24718 25.1237 8.36142 25.6703 7.81489C29.4143 4.07082 35.5142 4.07082 39.2582 7.81489C43.0023 11.559 43.0023 17.6588 39.2582 21.4028C38.9818 21.6792 38.6237 21.8112 38.2657 21.8112H38.272Z" fill="white"/>
<path d="M5.80689 21.8106C5.44881 21.8106 5.09074 21.6724 4.81433 21.4023C2.99884 19.5868 2 17.1745 2 14.6052C2 12.0358 2.99884 9.62983 4.81433 7.81433C6.62983 5.99884 9.04211 5 11.6052 5C14.1682 5 16.5868 5.99884 18.396 7.81433C18.9425 8.36087 18.9425 9.24663 18.396 9.79316C17.8495 10.3397 16.9637 10.3397 16.4172 9.79316C15.1294 8.50535 13.4207 7.80177 11.6052 7.80177C9.78967 7.80177 8.08097 8.51163 6.79316 9.79316C5.50535 11.081 4.80177 12.7897 4.80177 14.6052C4.80177 16.4207 5.51163 18.1356 6.79316 19.4172C7.33969 19.9637 7.33969 20.8495 6.79316 21.396C6.51675 21.6724 6.15868 21.8043 5.80061 21.8043L5.80689 21.8106Z" fill="white"/>
<path d="M22.0399 26.1702C21.3615 26.1702 20.8149 25.6237 20.8149 24.9453V17.476C20.8149 16.7975 21.3615 16.251 22.0399 16.251C22.7184 16.251 23.2649 16.7975 23.2649 17.476V24.9453C23.2649 25.6237 22.7184 26.1702 22.0399 26.1702Z" fill="white"/>
<path d="M28.2277 26.1707H22.0399C21.3615 26.1707 20.8149 25.6241 20.8149 24.9457C20.8149 24.2672 21.3615 23.7207 22.0399 23.7207H28.2277C28.9061 23.7207 29.4527 24.2672 29.4527 24.9457C29.4527 25.6241 28.9061 26.1707 28.2277 26.1707Z" fill="white"/>
</svg>
