<svg width="45" height="46" viewBox="0 0 45 46" fill="none" xmlns="http://www.w3.org/2000/svg">
<path d="M10.6069 45.0037C9.9975 45.0037 9.39443 44.8341 8.86046 44.5011C8.10662 44.0362 7.57265 43.3013 7.37163 42.4343C7.16432 41.5674 7.31509 40.6754 7.77996 39.9153L9.71481 36.7805C10.1231 36.1209 10.9838 35.9199 11.6434 36.322C12.303 36.7303 12.504 37.5909 12.102 38.2505L10.1671 41.3852C10.0666 41.5486 10.0854 41.7056 10.1043 41.7873C10.1231 41.869 10.1797 42.0134 10.343 42.114C10.5063 42.2145 10.6634 42.1956 10.7451 42.1768C10.8267 42.1579 10.9712 42.1014 11.0717 41.9381L12.8935 38.9918C13.3018 38.3322 14.1625 38.1312 14.8221 38.5332C15.4817 38.9416 15.6827 39.8022 15.2807 40.4618L13.4589 43.408C12.994 44.1619 12.259 44.6959 11.3921 44.8969C11.1345 44.9597 10.877 44.9848 10.6194 44.9848L10.6069 45.0037Z" fill="#939393"/>
<path d="M33.467 45.0037C33.2094 45.0037 32.9518 44.9723 32.6943 44.9157C31.8274 44.7084 31.0924 44.1807 30.6275 43.4269L28.8057 40.4806C28.3974 39.821 28.6047 38.9604 29.258 38.5521C29.9176 38.1437 30.7783 38.351 31.1866 39.0044L33.0084 41.9506C33.1089 42.1139 33.2597 42.1705 33.335 42.1893C33.4167 42.2082 33.5738 42.227 33.7371 42.1265C33.9004 42.026 33.957 41.8752 33.9758 41.7998C33.9947 41.7182 34.0135 41.5611 33.913 41.3978L31.9781 38.2631C31.5698 37.6035 31.7771 36.7428 32.4367 36.3345C33.0963 35.9262 33.957 36.1335 34.3653 36.7931L36.3001 39.9278C36.765 40.6816 36.9158 41.58 36.7085 42.4469C36.5012 43.3138 35.9735 44.0488 35.2196 44.5137C34.6857 44.8403 34.0889 45.0099 33.4732 45.0099L33.467 45.0037Z" fill="#939393"/>
<path d="M22.0391 43.1382C12.0067 43.1382 3.84644 34.9779 3.84644 24.9456C3.84644 14.9132 12.0067 6.75293 22.0391 6.75293C32.0714 6.75293 40.2317 14.9132 40.2317 24.9456C40.2317 34.9779 32.0714 43.1382 22.0391 43.1382ZM22.0391 9.54842C13.5521 9.54842 6.6482 16.4523 6.6482 24.9393C6.6482 33.4263 13.5521 40.3302 22.0391 40.3302C30.5261 40.3302 37.4362 33.4263 37.4362 24.9393C37.4362 16.4523 30.5261 9.54842 22.0391 9.54842Z" fill="#939393"/>
<path d="M22.0391 38.087C14.7897 38.087 8.89087 32.1882 8.89087 24.9388C8.89087 17.6894 14.7897 11.7969 22.0391 11.7969C29.2885 11.7969 35.181 17.6957 35.181 24.9451C35.181 32.1945 29.2822 38.0933 22.0391 38.0933V38.087ZM22.0391 14.2469C16.1403 14.2469 11.3408 19.0463 11.3408 24.9388C11.3408 30.8313 16.1403 35.6308 22.0391 35.6308C27.9379 35.6308 32.731 30.8313 32.731 24.9388C32.731 19.0463 27.9316 14.2469 22.0391 14.2469Z" fill="#939393"/>
<path d="M38.2721 21.8112C37.914 21.8112 37.5559 21.673 37.2795 21.4028C36.733 20.8563 36.733 19.9705 37.2795 19.424C39.9305 16.7667 39.9305 12.451 37.2795 9.79372C34.6222 7.14271 30.3065 7.14271 27.6492 9.79372C27.1027 10.3402 26.2169 10.3402 25.6704 9.79372C25.1239 9.24718 25.1239 8.36142 25.6704 7.81489C29.4145 4.07082 35.5143 4.07082 39.2583 7.81489C43.0024 11.559 43.0024 17.6588 39.2583 21.4028C38.9819 21.6792 38.6239 21.8112 38.2658 21.8112H38.2721Z" fill="#939393"/>
<path d="M5.80689 21.8106C5.44881 21.8106 5.09074 21.6724 4.81433 21.4023C2.99884 19.5868 2 17.1745 2 14.6052C2 12.0358 2.99884 9.62983 4.81433 7.81433C6.62983 5.99884 9.04211 5 11.6052 5C14.1682 5 16.5868 5.99884 18.396 7.81433C18.9425 8.36087 18.9425 9.24663 18.396 9.79316C17.8495 10.3397 16.9637 10.3397 16.4172 9.79316C15.1294 8.50535 13.4207 7.80177 11.6052 7.80177C9.78967 7.80177 8.08097 8.51163 6.79316 9.79316C5.50535 11.081 4.80177 12.7897 4.80177 14.6052C4.80177 16.4207 5.51163 18.1356 6.79316 19.4172C7.33969 19.9637 7.33969 20.8495 6.79316 21.396C6.51675 21.6724 6.15868 21.8043 5.80061 21.8043L5.80689 21.8106Z" fill="#939393"/>
<path d="M22.0399 26.1702C21.3615 26.1702 20.8149 25.6237 20.8149 24.9453V17.476C20.8149 16.7975 21.3615 16.251 22.0399 16.251C22.7184 16.251 23.2649 16.7975 23.2649 17.476V24.9453C23.2649 25.6237 22.7184 26.1702 22.0399 26.1702Z" fill="#0079FB"/>
<path d="M28.2277 26.1707H22.0399C21.3615 26.1707 20.8149 25.6241 20.8149 24.9457C20.8149 24.2672 21.3615 23.7207 22.0399 23.7207H28.2277C28.9061 23.7207 29.4527 24.2672 29.4527 24.9457C29.4527 25.6241 28.9061 26.1707 28.2277 26.1707Z" fill="#0079FB"/>
</svg>
