<svg width="45" height="46" viewBox="0 0 45 46" fill="none" xmlns="http://www.w3.org/2000/svg">
<path d="M37.5695 45.0134C36.9984 45.0134 36.4597 44.7927 36.0573 44.3903L28.71 37.043C28.3985 36.7315 28.2492 36.2966 28.2946 35.8618C28.3401 35.4269 28.5867 35.0375 28.9567 34.7973C29.9302 34.1807 30.8324 33.4538 31.6437 32.649C32.4485 31.8442 33.1755 30.9355 33.7921 29.9619C34.0257 29.592 34.4152 29.3453 34.8565 29.2999C35.2914 29.248 35.7262 29.4037 36.0378 29.7153L43.385 37.0625C44.2223 37.8998 44.2158 39.2563 43.385 40.0936L39.0883 44.3903C38.6859 44.7927 38.1472 45.0134 37.576 45.0134H37.5695ZM31.9747 36.2123L37.5695 41.8136L40.8018 38.5813L35.2005 32.9865C34.7267 33.5901 34.2204 34.1677 33.6817 34.7065C33.143 35.2452 32.5719 35.7514 31.9618 36.2252L31.9747 36.2123Z" fill="#939393"/>
<path d="M20.5515 40.1256C15.5927 40.1256 10.9325 38.198 7.42768 34.6931C0.190774 27.4562 0.190774 15.6759 7.42768 8.43904C10.939 4.93417 15.5992 3 20.558 3C25.5167 3 30.1769 4.93417 33.6882 8.43904C39.7893 14.5401 40.8602 24.2434 36.2325 31.5192C35.4991 32.6745 34.6423 33.739 33.6882 34.6996C32.7341 35.6537 31.6632 36.5104 30.5079 37.2439C27.5352 39.1326 24.0953 40.1321 20.5515 40.1321V40.1256ZM20.5515 5.88827C16.3651 5.88827 12.4318 7.51739 9.47218 10.4771C3.36463 16.5846 3.36463 26.528 9.47218 32.6421C12.4318 35.6018 16.3651 37.2309 20.545 37.2309C23.5371 37.2309 26.4383 36.3871 28.9437 34.7905C29.9172 34.1739 30.8194 33.4469 31.6307 32.6421C32.4356 31.8373 33.1625 30.9286 33.7791 29.955C37.6799 23.815 36.7777 15.624 31.6307 10.4771C28.6711 7.51739 24.7378 5.88827 20.5515 5.88827Z" fill="#939393"/>
<path d="M20.5581 35.4719C12.8928 35.4719 6.64893 29.2346 6.64893 21.5628C6.64893 13.891 12.8863 7.66016 20.5581 7.66016C28.2298 7.66016 34.4672 13.8975 34.4672 21.5693C34.4672 29.2411 28.2298 35.4784 20.5581 35.4784V35.4719ZM20.5581 10.5549C14.483 10.5549 9.54369 15.4942 9.54369 21.5693C9.54369 27.6444 14.483 32.5837 20.5581 32.5837C26.6332 32.5837 31.5724 27.6444 31.5724 21.5693C31.5724 15.4942 26.6332 10.5549 20.5581 10.5549Z" fill="#939393"/>
<path d="M26.8085 19.9796H26.0556L26.3866 18.7594C26.4645 18.4738 26.4255 18.1687 26.2762 17.9156C26.127 17.6625 25.8933 17.4807 25.6077 17.4029C25.0301 17.2471 24.407 17.6041 24.2577 18.1817L23.7709 19.9861H22.2002L21.6355 18.1493C21.4992 17.6884 21.0774 17.3704 20.5776 17.3639C20.0973 17.3639 19.6754 17.669 19.5261 18.1233L18.916 19.9796H17.1896L16.7028 18.1752C16.573 17.6949 16.1381 17.3574 15.6383 17.3574C15.541 17.3574 15.4436 17.3704 15.3463 17.3964C15.0607 17.4743 14.827 17.656 14.6777 17.9091C14.5284 18.1622 14.4895 18.4608 14.5674 18.7529L14.8984 19.9731H14.2948C13.6847 19.9731 13.1914 20.4664 13.1914 21.083C13.1914 21.6996 13.6847 22.1864 14.2948 22.1864H15.502L16.7936 26.2234L16.8066 26.2559C17.0662 26.7232 17.3259 27.0088 17.8191 27.0283H17.8581C18.3968 27.0283 18.6889 26.6453 18.903 26.2754L20.4997 22.1799H20.5581L22.0444 26.2819C22.3819 26.866 22.6026 27.0283 23.0829 27.0283H23.1024C23.6346 27.0153 23.9007 26.7037 24.1474 26.2169L25.4455 22.1799H26.7955C27.4056 22.1799 27.8989 21.6866 27.8989 21.0765C27.8989 20.4664 27.4056 19.9666 26.7955 19.9666L26.8085 19.9796ZM23.1803 22.1928L23.0375 22.7251L22.8752 22.1928H23.1803ZM18.2021 22.1928L17.9814 22.8679L17.7997 22.1928H18.2021Z" fill="#0079FB"/>
</svg>
