<svg width="45" height="45" viewBox="0 0 45 45" fill="none" xmlns="http://www.w3.org/2000/svg">
<path d="M33.532 44.9999H6.03976C4.36309 44.9999 3 43.6368 3 41.9601V6.76925C3 5.09259 4.36309 3.72949 6.03976 3.72949H13.5144C14.3015 3.72949 14.9415 4.36944 14.9415 5.15658C14.9415 5.94372 14.3015 6.58367 13.5144 6.58367H6.03976C5.93737 6.58367 5.85418 6.67326 5.85418 6.76925V41.9601C5.85418 42.0625 5.94377 42.1457 6.03976 42.1457H33.532C33.6344 42.1457 33.7176 42.0561 33.7176 41.9601V6.76925C33.7176 6.66686 33.628 6.58367 33.532 6.58367H26.051C25.2639 6.58367 24.6239 5.94372 24.6239 5.15658C24.6239 4.36944 25.2639 3.72949 26.051 3.72949H33.532C35.2087 3.72949 36.5718 5.09259 36.5718 6.76925V41.9601C36.5718 43.6368 35.2087 44.9999 33.532 44.9999Z" fill="white"/>
<path d="M35.1507 40.8464H4.42674C3.73559 40.8464 3.17883 40.2896 3.17883 39.5985C3.17883 38.9073 3.73559 38.3506 4.42674 38.3506H35.1507C35.8419 38.3506 36.3986 38.9073 36.3986 39.5985C36.3986 40.2896 35.8419 40.8464 35.1507 40.8464Z" fill="white"/>
<path d="M25.3858 10.7114H14.1866C13.0283 10.7114 12.094 9.77067 12.094 8.61876V5.09264C12.094 3.93433 13.0347 3 14.1866 3H25.3858C26.5441 3 27.4784 3.94073 27.4784 5.09264V8.61236C27.4784 9.77067 26.5377 10.705 25.3858 10.705V10.7114ZM14.9482 7.85722H24.6306V5.85418H14.9482V7.85722Z" fill="white"/>
<path d="M21.323 23.8948C22.2327 23.3252 22.8375 22.3333 22.8375 21.2023C22.8375 19.4337 21.3596 18 19.5385 18C17.7173 18 16.2394 19.4337 16.2394 21.2039C16.2394 22.3333 16.8442 23.3252 17.754 23.8964C15.5712 24.6165 14 26.623 14 28.9871V30H25.0769V28.9871C25.0769 26.623 23.5057 24.6165 21.323 23.8964V23.8948Z" fill="white"/>
</svg>
