<svg width="45" height="46" viewBox="0 0 45 46" fill="none" xmlns="http://www.w3.org/2000/svg">
<path d="M40.2883 40.1603H4.71144C2.6672 40.1603 1 38.4947 1 36.4393V32.7537C1 31.8854 1.70105 31.1885 2.56116 31.1885H42.4326C43.2987 31.1885 43.9938 31.8913 43.9938 32.7537V36.4393C43.9938 38.4888 42.3325 40.1603 40.2824 40.1603H40.2883ZM4.12822 34.3248V36.4393C4.12822 36.7641 4.38743 37.024 4.71144 37.024H40.2883C40.6123 37.024 40.8715 36.7641 40.8715 36.4393V34.3248H4.12822Z" fill="white"/>
<path d="M42.4331 34.3253C41.5671 34.3253 40.872 33.6224 40.872 32.7601V8.72103C40.872 8.39618 40.6128 8.1363 40.2887 8.1363H4.71191C4.3879 8.1363 4.12869 8.39618 4.12869 8.72103V32.7601C4.12869 33.6283 3.42764 34.3253 2.56753 34.3253C1.70741 34.3253 1.00636 33.6224 1.00636 32.7601V8.72103C1.00047 6.67151 2.66768 5 4.71191 5H40.2887C42.333 5 44.0002 6.67151 44.0002 8.72103V32.7601C44.0002 33.6283 43.2991 34.3253 42.439 34.3253H42.4331Z" fill="white"/>
<path d="M31.5337 45.4644H13.4596C12.5936 45.4644 11.8984 44.7615 11.8984 43.8992C11.8984 43.0368 12.5995 42.334 13.4596 42.334H31.5337C32.3997 42.334 33.0949 43.0368 33.0949 43.8992C33.0949 44.7615 32.3938 45.4644 31.5337 45.4644Z" fill="white"/>
<path d="M22.4972 45.0689C21.6312 45.0689 20.936 44.366 20.936 43.5037V38.5955C20.936 37.7272 21.6371 37.0303 22.4972 37.0303C23.3573 37.0303 24.0584 37.7331 24.0584 38.5955V43.5037C24.0584 44.3719 23.3573 45.0689 22.4972 45.0689Z" fill="white"/>
<path d="M24.323 20.8948C25.2327 20.3252 25.8375 19.3333 25.8375 18.2023C25.8375 16.4337 24.3596 15 22.5385 15C20.7173 15 19.2394 16.4337 19.2394 18.2039C19.2394 19.3333 19.8442 20.3252 20.754 20.8964C18.5712 21.6165 17 23.623 17 25.9871V27H28.0769V25.9871C28.0769 23.623 26.5057 21.6165 24.323 20.8964V20.8948Z" fill="white"/>
</svg>
