<svg width="30" height="30" viewBox="0 0 30 30" fill="none" xmlns="http://www.w3.org/2000/svg">
    <circle cx="15" cy="15" r="15" fill="#EEE"/>
    <g clip-path="url(#y9g2oq5l4a)">
        <path d="m18.115 17.732 1.294.89V16.93l3.417-1.317.512-.235c.161-.093.31-.306.19-.617a.466.466 0 0 0-.359-.283h-.025a.623.623 0 0 0-.273.043l-3.46 1.362v-2.807l4.591-1.771-7.696-4.26-.08-.044-9.433 3.522-.222.082-.047.023-.035.006-.088.142c-.12.203-.401.775-.401 1.693 0 .66.15 1.361.446 2.087l-.045.074c-.12.203-.401.775-.401 1.693 0 .752.192 1.552.57 2.376a.477.477 0 0 0 .178.206l6.634 4.069.371.027 9.51-3.75a.477.477 0 0 0-.23-.91.47.47 0 0 0-.162.036l-9.222 3.629-6.253-3.83c-.283-.652-.426-1.275-.426-1.853 0-.435.083-.755.151-.947.01-.025.018-.05.028-.071l1.176.711 5.014 3.077c.14.089.332.097.457.038l3.024-1.192v1.53l1.295-1.736zm-1.295-1.375v.545l-3.171 1.247-6.25-3.827c-.284-.654-.429-1.278-.429-1.854 0-.433.083-.755.15-.947.01-.025.017-.05.027-.072l6.413 3.882 3.258-1.257v2.283h.002z" fill="#D8D8D8"/>
    </g>
    <defs>
        <clipPath id="y9g2oq5l4a">
            <path fill="#fff" transform="translate(6 7)" d="M0 0h18v16H0z"/>
        </clipPath>
    </defs>
</svg>
