<svg width="45" height="46" viewBox="0 0 45 46" fill="none" xmlns="http://www.w3.org/2000/svg">
<path d="M27.9703 45H3.04214C1.36243 45 0 43.6439 0 41.9719V5.02808C0 3.36852 1.35621 2.00619 3.0297 2H27.9641C29.6438 2 31.0062 3.35613 31.0062 5.02808V41.9781C31.0062 43.6377 29.65 45 27.9765 45.0062L27.9703 45ZM3.03592 4.76181C2.89284 4.76181 2.77463 4.87946 2.77463 5.02808V41.9781C2.77463 42.1267 2.89284 42.2444 3.04214 42.2444H27.9641C28.1072 42.2444 28.2254 42.1267 28.2254 41.9781V5.02808C28.2254 4.87946 28.1072 4.76181 27.9579 4.76181H3.03592Z" fill="white"/>
<path d="M29.6126 7.90137H1.38721V10.6632H29.6126V7.90137Z" fill="white"/>
<path d="M29.6127 37.3772H1.38732C0.622115 37.3772 0 36.7579 0 35.9963C0 35.2346 0.622115 34.6154 1.38732 34.6154H29.6127C30.3779 34.6154 31 35.2346 31 35.9963C31 36.7579 30.3779 37.3772 29.6127 37.3772Z" fill="white"/>
<path d="M17.1019 39.7241C17.1019 40.6158 16.3741 41.3403 15.4782 41.3403C14.5824 41.3403 13.8545 40.6158 13.8545 39.7241C13.8545 38.8324 14.5824 38.1079 15.4782 38.1079C16.3741 38.1079 17.1019 38.8324 17.1019 39.7241Z" fill="white"/>
<path d="M15.1359 25.7293C14.3707 25.7293 13.7485 25.11 13.7485 24.3484V23.4009C13.7485 23.1285 13.817 21.5742 15.8513 20.3419C16.0255 20.2366 16.9027 19.6669 16.7969 18.8805C16.6538 17.8092 15.7891 17.6544 15.2852 17.6544C14.5573 17.6544 13.9849 18.1436 13.8667 18.6018C13.6739 19.3387 12.9211 19.7846 12.1808 19.5926C11.4405 19.4006 10.9926 18.6514 11.1854 17.9145C11.6396 16.1682 13.3628 14.8926 15.2914 14.8926C17.2199 14.8926 19.2232 16.0134 19.5529 18.5213C19.8079 20.441 18.5513 21.9395 17.2946 22.7012C16.6911 23.0665 16.5481 23.3947 16.5232 23.4752V24.3546C16.5232 25.1162 15.9011 25.7355 15.1359 25.7355V25.7293Z" fill="white"/>
<path d="M16.579 28.5158C16.579 29.3146 15.9258 29.9648 15.1232 29.9648C14.3207 29.9648 13.6675 29.3146 13.6675 28.5158C13.6675 27.717 14.3207 27.0668 15.1232 27.0668C15.9258 27.0668 16.579 27.717 16.579 28.5158V28.5158Z" fill="white"/>
</svg>
