<svg width="22" height="22" viewBox="0 0 22 22" fill="none" xmlns="http://www.w3.org/2000/svg">
    <path d="M19.998 12.22V9.784l-2.067-.28a7.083 7.083 0 0 0-.971-2.343l1.265-1.662L16.5 3.774l-1.662 1.265a7.027 7.027 0 0 0-2.343-.971L12.216 2H9.78L9.5 4.068a7.028 7.028 0 0 0-2.343.971l-1.66-1.267-1.723 1.724 1.265 1.662a7.046 7.046 0 0 0-.972 2.344L2 9.782v2.437l2.067.28c.183.846.516 1.638.972 2.343l-1.265 1.66 1.724 1.724 1.661-1.265c.705.455 1.496.79 2.343.971L9.782 20h2.437l.279-2.068a7.066 7.066 0 0 0 2.343-.971l1.662 1.265 1.723-1.724-1.264-1.66c.455-.705.79-1.497.97-2.344l2.068-.28-.002.003zm-9.002 3.76a4.982 4.982 0 0 1-4.975-4.978 4.983 4.983 0 0 1 4.975-4.979 4.985 4.985 0 0 1 4.978 4.979 4.983 4.983 0 0 1-4.978 4.978z" fill="#000"/>
    <path d="M11 7.143A3.86 3.86 0 0 0 7.142 11 3.86 3.86 0 0 0 11 14.857 3.862 3.862 0 0 0 14.857 11 3.86 3.86 0 0 0 11 7.143zm0 6.06a2.204 2.204 0 1 1 0-4.41 2.204 2.204 0 1 1 0 4.41z" fill="#000"/>
</svg>
