<svg width="22" height="22" viewBox="0 0 22 22" fill="none" xmlns="http://www.w3.org/2000/svg">
    <path d="M16.581 1H5.42C4.64 1 4 1.652 4 2.45v18.1c0 .798.64 1.45 1.419 1.45H16.58c.781 0 1.419-.654 1.419-1.45V2.45C18 1.652 17.36 1 16.581 1zm-6.68.942h2.2a.35.35 0 0 1 .347.355.35.35 0 0 1-.347.354h-2.2a.35.35 0 0 1-.347-.354.35.35 0 0 1 .347-.355zm1.101 19.242a1.066 1.066 0 0 1-1.054-1.078c0-.594.472-1.077 1.054-1.077.582 0 1.054.483 1.054 1.078 0 .594-.472 1.077-1.054 1.077zm5.391-3.598a.658.658 0 0 1-.649.664H6.26a.66.66 0 0 1-.649-.664V4.22c0-.366.293-.663.65-.663h9.481c.356 0 .649.3.649.663v13.369l.002-.003z" fill="#000"/>
    <path d="M9.92 6h2.17v.902c1.096.21 1.888.76 1.888 1.853v.902h-2.245v-.591c0-.361-.305-.561-.727-.561-.421 0-.726.15-.726.511v.29c0 .3.195.382 1.03.651C14 10.809 14 11.209 14 12.773v.502c0 1.093-.803 1.634-1.91 1.854V16H9.92v-.863c-1.128-.19-1.92-.77-1.92-1.864v-1.262h2.3v.952c0 .361.305.561.727.561.421 0 .726-.2.726-.56v-.19c0-1.073-.055-.963-1.963-1.604-1.486-.511-1.757-1.193-1.757-1.864v-.55c0-1.092.79-1.644 1.888-1.854V6z" fill="#000"/>
</svg>
