<svg width="45" height="45" viewBox="0 0 45 45" fill="none" xmlns="http://www.w3.org/2000/svg">
<path d="M26.1211 44.9668H18.8858C18.0716 44.9668 17.4097 44.3023 17.4097 43.485V37.3123C17.4097 36.495 18.0716 35.8306 18.8858 35.8306H26.1211C26.9353 35.8306 27.5972 36.495 27.5972 37.3123V43.485C27.5972 44.3023 26.9353 44.9668 26.1211 44.9668ZM20.362 42.0033H24.6515V38.794H20.362V42.0033Z" fill="white"/>
<path d="M41.4519 38.794H3.5481C1.5887 38.794 0 37.1993 0 35.2326V10.5615C0 8.59468 1.5887 7 3.5481 7H41.4519C43.4113 7 45 8.59468 45 10.5615V35.2326C45 37.1993 43.4113 38.794 41.4519 38.794V38.794ZM3.5481 9.96345C3.22374 9.96345 2.95234 10.2359 2.95234 10.5615V35.2326C2.95234 35.5581 3.22374 35.8306 3.5481 35.8306H41.4519C41.7763 35.8306 42.0477 35.5581 42.0477 35.2326V10.5615C42.0477 10.2359 41.7763 9.96345 41.4519 9.96345H3.5481Z" fill="white"/>
<path d="M43.524 33.8505H1.47637C0.761452 33.8505 0.185547 33.2724 0.185547 32.5548C0.185547 31.8372 0.761452 31.2592 1.47637 31.2592H43.5306C44.2456 31.2592 44.8215 31.8372 44.8215 32.5548C44.8215 33.2724 44.2456 33.8505 43.5306 33.8505H43.524Z" fill="white"/>
<path d="M31.8667 43.485C31.8667 44.3223 31.1254 45 30.2119 45H14.7882C13.8747 45 13.1333 44.3223 13.1333 43.485C13.1333 42.6478 13.8747 41.9701 14.7882 41.9701H30.2119C31.1254 41.9701 31.8667 42.6478 31.8667 43.485Z" fill="white"/>
<path d="M21.955 27.15C24.115 27.15 25.96 25.89 26.92 24.03L25.06 23.055C24.475 24.255 23.425 25.11 21.91 25.11C19.87 25.11 18.355 23.52 18.355 21.525C18.355 19.485 19.87 17.91 21.955 17.91C23.38 17.91 24.325 18.615 24.97 19.755L26.755 18.615C25.795 16.98 24.01 15.9 21.955 15.9C18.79 15.9 16.33 18.255 16.33 21.525C16.33 24.645 18.58 27.15 21.955 27.15Z" fill="white"/>
<path d="M26.92 24.03L27.3643 24.2593L27.5922 23.8178L27.1521 23.5872L26.92 24.03ZM25.06 23.055L25.2921 22.6122L24.8362 22.3731L24.6106 22.8359L25.06 23.055ZM24.97 19.755L24.5348 20.0012L24.7946 20.4603L25.2391 20.1764L24.97 19.755ZM26.755 18.615L27.0241 19.0364L27.43 18.7772L27.1862 18.3618L26.755 18.615ZM21.955 27.65C24.3207 27.65 26.3274 26.2683 27.3643 24.2593L26.4757 23.8007C25.5926 25.5117 23.9093 26.65 21.955 26.65V27.65ZM27.1521 23.5872L25.2921 22.6122L24.8279 23.4978L26.6879 24.4728L27.1521 23.5872ZM24.6106 22.8359C24.0924 23.8987 23.198 24.61 21.91 24.61V25.61C23.652 25.61 24.8576 24.6113 25.5094 23.2741L24.6106 22.8359ZM21.91 24.61C20.1558 24.61 18.855 23.2536 18.855 21.525H17.855C17.855 23.7864 19.5842 25.61 21.91 25.61V24.61ZM18.855 21.525C18.855 19.7543 20.153 18.41 21.955 18.41V17.41C19.587 17.41 17.855 19.2157 17.855 21.525H18.855ZM21.955 18.41C22.5804 18.41 23.0772 18.5632 23.4843 18.8254C23.8952 19.09 24.2417 19.4831 24.5348 20.0012L25.4052 19.5088C25.0533 18.8869 24.6048 18.3575 24.0257 17.9846C23.4428 17.6093 22.7546 17.41 21.955 17.41V18.41ZM25.2391 20.1764L27.0241 19.0364L26.4859 18.1936L24.7009 19.3336L25.2391 20.1764ZM27.1862 18.3618C26.1375 16.5758 24.1895 15.4 21.955 15.4V16.4C23.8305 16.4 25.4525 17.3842 26.3238 18.8682L27.1862 18.3618ZM21.955 15.4C18.52 15.4 15.83 17.9727 15.83 21.525H16.83C16.83 18.5373 19.06 16.4 21.955 16.4V15.4ZM15.83 21.525C15.83 24.906 18.289 27.65 21.955 27.65V26.65C18.871 26.65 16.83 24.384 16.83 21.525H15.83Z" fill="white"/>
</svg>
