<svg width="24" height="24" viewBox="0 0 24 24" fill="none" xmlns="http://www.w3.org/2000/svg">
<path d="M19 22H5C4.46957 22 3.96086 21.7893 3.58579 21.4142C3.21071 21.0391 3 20.5304 3 20V6C3 5.46957 3.21071 4.96086 3.58579 4.58579C3.96086 4.21071 4.46957 4 5 4H7V2H9V4H15V2H17V4H19C19.5304 4 20.0391 4.21071 20.4142 4.58579C20.7893 4.96086 21 5.46957 21 6V20C21 20.5304 20.7893 21.0391 20.4142 21.4142C20.0391 21.7893 19.5304 22 19 22ZM5 10V20H19V10H5ZM5 6V8H19V6H5ZM11 18.414L7.293 14.707L8.707 13.293L11 15.586L15.293 11.293L16.707 12.707L11 18.413V18.414Z" fill="black"/>
</svg>
