<svg width="45" height="45" viewBox="0 0 45 45" fill="none" xmlns="http://www.w3.org/2000/svg">
<path d="M40.3923 45H22.6913C21.8004 45 21.0762 44.2626 21.0762 43.3556V16.8678C21.0762 15.9608 21.8004 15.2234 22.6913 15.2234H40.385C41.2759 15.2234 42.0001 15.9608 42.0001 16.8678V43.3556C42.0001 44.2626 41.2759 45 40.385 45H40.3923ZM24.3136 41.7112H38.7772V18.5122H24.3136V41.7112Z" fill="#939393"/>
<path d="M10.4222 12.5981H6.54736V16.5433H10.4222V12.5981Z" fill="#939393"/>
<path d="M10.4222 22.5237H6.54736V26.4688H10.4222V22.5237Z" fill="#939393"/>
<path d="M10.4222 32.4567H6.54736V36.4018H10.4222V32.4567Z" fill="#939393"/>
<path d="M22.6912 4H1.61511C0.724263 4 0 4.73741 0 5.64442V43.3556C0 44.2626 0.724263 45 1.61511 45H22.6912C23.582 45 24.3063 44.2626 24.3063 43.3556V5.64442C24.3063 4.73741 23.582 4 22.6912 4ZM21.076 41.7112H3.23021V7.28885H21.076V41.7112Z" fill="#939393"/>
<path d="M31.5419 10.4745C30.651 10.4745 29.9268 11.2119 29.9268 12.1189V16.8678C29.9268 17.7748 30.651 18.5123 31.5419 18.5123C32.4327 18.5123 33.157 17.7748 33.157 16.8678V12.1189C33.157 11.2119 32.4327 10.4745 31.5419 10.4745Z" fill="#939393"/>
<path d="M17.7591 12.5981H13.8843V16.5433H17.7591V12.5981Z" fill="#939393"/>
<path d="M17.7591 22.5237H13.8843V26.4688H17.7591V22.5237Z" fill="#939393"/>
<path d="M17.7591 32.4567H13.8843V36.4018H17.7591V32.4567Z" fill="#939393"/>
<path d="M34.6779 9.08813C34.6779 10.8505 33.2728 12.2811 31.5418 12.2811C29.8108 12.2811 28.4058 10.8505 28.4058 9.08813C28.4058 7.32572 29.8108 5.89514 31.5418 5.89514C33.2728 5.89514 34.6779 7.32572 34.6779 9.08813Z" fill="#0069D7"/>
</svg>
