<svg width="40" height="40" viewBox="0 0 40 40" fill="none" xmlns="http://www.w3.org/2000/svg">
<mask id="mask0_268_533" style="mask-type:alpha" maskUnits="userSpaceOnUse" x="0" y="0" width="40" height="40">
<rect width="40" height="40" fill="#D9D9D9"/>
</mask>
<g mask="url(#mask0_268_533)">
<path d="M0 40C0 17.9086 17.9086 0 40 0H1668V1873H0V40Z" fill="#F7F7F7"/>
<path d="M548.852 1253.14C552.044 1253.14 553.934 1250.73 553.934 1247.93V1247.93C553.934 1247.67 553.721 1247.46 553.458 1247.46H549.328C548.972 1247.46 548.684 1247.74 548.684 1248.1V1248.1C548.684 1248.46 548.972 1248.74 549.328 1248.74H550.446C551.533 1248.74 552.393 1249.79 551.69 1250.62C551.055 1251.37 550.095 1251.82 548.852 1251.82C546.556 1251.82 544.918 1250.06 544.918 1247.89C544.918 1245.73 546.542 1243.94 548.852 1243.94C550.109 1243.94 551.144 1244.46 551.851 1245.37C552.09 1245.68 552.519 1245.8 552.851 1245.6V1245.6C553.165 1245.41 553.274 1245 553.054 1244.71C552.112 1243.45 550.633 1242.64 548.852 1242.64C545.786 1242.64 543.546 1244.98 543.546 1247.89C543.546 1250.75 545.786 1253.14 548.852 1253.14ZM559.367 1253.17C559.941 1253.17 560.501 1253.03 561.047 1252.76C561.267 1252.66 561.47 1252.53 561.654 1252.39C561.906 1252.2 562.377 1252.36 562.377 1252.68V1252.68C562.377 1252.86 562.52 1253 562.696 1253H563.035C563.399 1253 563.693 1252.71 563.693 1252.34V1245.47C563.693 1245.1 563.399 1244.81 563.035 1244.81H562.697C562.52 1244.81 562.377 1244.95 562.377 1245.13V1245.13C562.377 1245.44 561.914 1245.61 561.665 1245.42C561.015 1244.92 560.184 1244.64 559.367 1244.64C557.043 1244.64 555.195 1246.46 555.195 1248.91C555.195 1251.35 557.071 1253.17 559.367 1253.17ZM559.493 1251.94C557.855 1251.94 556.539 1250.59 556.539 1248.9C556.539 1247.22 557.855 1245.86 559.493 1245.86C561.173 1245.86 562.475 1247.22 562.475 1248.9C562.475 1250.59 561.173 1251.94 559.493 1251.94ZM565.498 1252.33C565.498 1252.7 565.799 1253 566.17 1253V1253C566.541 1253 566.842 1252.7 566.842 1252.33V1243.31C566.842 1242.94 566.541 1242.64 566.17 1242.64V1242.64C565.799 1242.64 565.498 1242.94 565.498 1243.31V1252.33ZM572.492 1253.17C573.066 1253.17 573.626 1253.03 574.172 1252.76C574.392 1252.66 574.595 1252.53 574.779 1252.39C575.031 1252.2 575.502 1252.36 575.502 1252.68V1252.68C575.502 1252.86 575.645 1253 575.821 1253H576.16C576.524 1253 576.818 1252.71 576.818 1252.34V1245.47C576.818 1245.1 576.524 1244.81 576.16 1244.81H575.822C575.645 1244.81 575.502 1244.95 575.502 1245.13V1245.13C575.502 1245.44 575.039 1245.61 574.79 1245.42C574.14 1244.92 573.309 1244.64 572.492 1244.64C570.168 1244.64 568.32 1246.46 568.32 1248.91C568.32 1251.35 570.196 1253.17 572.492 1253.17ZM572.618 1251.94C570.98 1251.94 569.664 1250.59 569.664 1248.9C569.664 1247.22 570.98 1245.86 572.618 1245.86C574.298 1245.86 575.6 1247.22 575.6 1248.9C575.6 1250.59 574.298 1251.94 572.618 1251.94ZM578.757 1251.96C578.428 1252.38 578.73 1253 579.266 1253V1253C579.469 1253 579.661 1252.9 579.782 1252.74L580.246 1252.12C581.117 1250.96 582.858 1250.95 583.739 1252.11L584.226 1252.75C584.347 1252.91 584.537 1253 584.737 1253V1253C585.273 1253 585.574 1252.38 585.244 1251.96L583.659 1249.93C583.151 1249.28 583.148 1248.37 583.653 1247.72L585.118 1245.82C585.438 1245.41 585.143 1244.81 584.62 1244.81V1244.81C584.423 1244.81 584.237 1244.9 584.118 1245.06L583.679 1245.64C582.843 1246.75 581.179 1246.75 580.342 1245.64L579.908 1245.06C579.786 1244.9 579.597 1244.81 579.395 1244.81V1244.81C578.863 1244.81 578.562 1245.42 578.887 1245.84L580.333 1247.72C580.835 1248.37 580.833 1249.28 580.329 1249.93L578.757 1251.96ZM588.667 1255.88C588.481 1256.31 588.791 1256.78 589.252 1256.78V1256.78C589.508 1256.78 589.739 1256.63 589.84 1256.39L594.408 1245.72C594.593 1245.29 594.276 1244.81 593.807 1244.81V1244.81C593.542 1244.81 593.304 1244.97 593.203 1245.21L592.799 1246.19C592.048 1248.01 589.488 1248.04 588.689 1246.25L588.224 1245.2C588.118 1244.96 587.882 1244.81 587.62 1244.81V1244.81C587.14 1244.81 586.82 1245.31 587.019 1245.74L589.691 1251.62C589.965 1252.22 589.97 1252.91 589.704 1253.52L588.667 1255.88ZM602.579 1253.14C604.651 1253.14 605.953 1251.68 605.953 1250.12C605.953 1248.21 604.441 1247.64 603.027 1247.15C601.837 1246.74 600.703 1246.43 600.703 1245.36C600.703 1244.47 601.431 1243.84 602.537 1243.84C603.221 1243.84 603.778 1244.04 604.22 1244.43C604.498 1244.68 604.916 1244.76 605.215 1244.54V1244.54C605.516 1244.31 605.567 1243.88 605.286 1243.63C604.6 1243.02 603.748 1242.64 602.537 1242.64C600.689 1242.64 599.317 1243.84 599.317 1245.38C599.317 1247.23 600.801 1247.79 602.187 1248.24C603.419 1248.62 604.553 1249 604.553 1250.12C604.553 1251.12 603.755 1251.87 602.565 1251.87C601.761 1251.87 601.092 1251.57 600.548 1251.01C600.251 1250.71 599.771 1250.62 599.435 1250.88V1250.88C599.121 1251.12 599.058 1251.58 599.338 1251.86C600.127 1252.65 601.157 1253.14 602.579 1253.14ZM607.22 1251.68C607.22 1252.41 607.809 1253 608.536 1253H613.093C613.453 1253 613.744 1252.71 613.744 1252.35V1252.35C613.744 1251.99 613.453 1251.7 613.093 1251.7H608.62C608.612 1251.7 608.606 1251.69 608.606 1251.68V1251.68C608.606 1250.56 609.754 1249.78 610.958 1248.95C612.274 1248.06 613.66 1247.08 613.66 1245.48C613.66 1243.91 612.4 1242.64 610.398 1242.64C609.079 1242.64 608.076 1243.24 607.433 1244.17C607.229 1244.47 607.361 1244.86 607.679 1245.02V1245.02C608.01 1245.2 608.412 1245.06 608.635 1244.76C609.056 1244.19 609.629 1243.83 610.398 1243.83C611.574 1243.83 612.274 1244.52 612.274 1245.47C612.274 1246.46 611.168 1247.19 609.992 1248.04C608.648 1248.98 607.22 1250.03 607.22 1251.68V1251.68ZM615.136 1251.68C615.136 1252.41 615.725 1253 616.452 1253H621.009C621.369 1253 621.66 1252.71 621.66 1252.35V1252.35C621.66 1251.99 621.369 1251.7 621.009 1251.7H616.536C616.529 1251.7 616.522 1251.69 616.522 1251.68V1251.68C616.522 1250.56 617.67 1249.78 618.874 1248.95C620.19 1248.06 621.576 1247.08 621.576 1245.48C621.576 1243.91 620.316 1242.64 618.314 1242.64C616.995 1242.64 615.992 1243.24 615.349 1244.17C615.145 1244.47 615.277 1244.86 615.595 1245.02V1245.02C615.926 1245.2 616.328 1245.06 616.551 1244.76C616.972 1244.19 617.545 1243.83 618.314 1243.83C619.49 1243.83 620.19 1244.52 620.19 1245.47C620.19 1246.46 619.084 1247.19 617.908 1248.04C616.564 1248.98 615.136 1250.03 615.136 1251.68V1251.68Z" fill="#F7F7F7"/>
</g>
</svg>
