<svg width="22" height="22" viewBox="0 0 22 22" fill="none" xmlns="http://www.w3.org/2000/svg">
    <g clip-path="url(#i3kytom5ca)">
        <path d="M6.904 17.165c.06-.085.114-.17.162-.258a7.743 7.743 0 0 0 3.514.948h.058a7.74 7.74 0 0 0 4.43-1.227c.094.152.21.298.35.434.408.399.907.617 1.325.62.254.014.483-.048.645-.198.422-.388.25-1.205-.387-1.826a2.407 2.407 0 0 0-.422-.328c1.04-1.175 1.691-2.678 1.744-4.332a6.762 6.762 0 0 0-.349-2.363c1.145-.37 1.988-1.38 2.024-2.593.05-1.562-1.245-2.868-2.895-2.915h-.024l-.03-.002c-1.137-.032-2.144.543-2.676 1.416-1.493-.95-3.651-.832-3.651-.832-1.125.014-2.134.213-3.153.699-.5-.814-1.42-1.376-2.49-1.408C3.429 2.954 2.052 4.182 2 5.745c-.038 1.185.697 2.22 1.772 2.672a6.813 6.813 0 0 0-.429 2.152c-.062 1.983.743 3.8 2.09 5.125a2.266 2.266 0 0 0-.282.323c-.519.71-.549 1.543-.066 1.861.484.317 1.295-.002 1.815-.711l.004-.002zm-1.591-6.493c.092-2.88 2.57-5.143 5.537-5.057 2.964.085 5.295 2.485 5.202 5.364-.092 2.878-2.57 5.142-5.534 5.057-2.965-.086-5.295-2.488-5.203-5.365h-.002z" fill="#000"/>
        <path d="M10.515 16.036c2.965.085 5.443-2.179 5.535-5.057.092-2.879-2.236-5.279-5.202-5.364-2.965-.086-5.445 2.178-5.537 5.057-.092 2.876 2.236 5.278 5.202 5.364h.002zm-2.422-2.607 1.962-2.558a.723.723 0 0 1-.044-.271c.016-.44.404-.79.87-.777a.85.85 0 0 1 .68.363l2.357-.03c.17 0 .309.172.313.392.004.218-.132.399-.3.4l-2.32.031a.852.852 0 0 1-.78.444c-.051 0-.1-.01-.147-.019l-1.912 2.492c-.126.163-.379.191-.567.062-.186-.129-.236-.366-.11-.53h-.002z" fill="#fff"/>
        <path d="M8.206 13.958c.188.13.44.1.566-.062l1.912-2.492a.846.846 0 0 0 .927-.425l2.32-.03c.168-.004.306-.182.3-.4-.004-.22-.142-.395-.312-.393l-2.358.03a.859.859 0 0 0-.679-.362c-.466-.014-.853.334-.87.776a.814.814 0 0 0 .043.271l-1.961 2.558c-.127.163-.076.4.11.53h.002z" fill="#000"/>
    </g>
    <defs>
        <clipPath id="i3kytom5ca">
            <path fill="#fff" transform="translate(2 3)" d="M0 0h18v15H0z"/>
        </clipPath>
    </defs>
</svg>
