<svg width="45" height="45" viewBox="0 0 45 45" fill="none" xmlns="http://www.w3.org/2000/svg">
<path d="M39.2476 45H32.6416C31.8449 45 31.1973 44.357 31.1973 43.5662V33.3363C31.1973 30.0892 29.617 27.0029 26.9746 25.0804C26.5601 24.7846 26.3399 24.2895 26.3917 23.788C26.722 20.4059 29.5523 17.8533 32.9783 17.8533C36.6246 17.8533 39.5908 20.7981 39.5908 24.4181C39.5908 26.1863 38.8849 27.8259 37.6932 29.0219C40.2968 30.6229 42.0001 33.4906 42.0001 36.6541V42.2674C42.0001 43.952 40.9444 45 39.2476 45V45ZM34.0858 42.1323H39.1116V36.6541C39.1116 33.7993 37.0779 31.2981 34.2736 30.7001C34.0858 30.6615 33.9174 30.5843 33.7685 30.4879C33.9757 31.4138 34.0858 32.3718 34.0858 33.3363V42.1388V42.1323ZM29.4098 23.3379C31.1455 24.7975 32.4602 26.6686 33.2439 28.7454C33.3993 28.3725 33.7167 28.0703 34.1311 27.9353C35.6726 27.4402 36.7023 26.0256 36.7023 24.4181C36.7023 22.3799 35.0314 20.7145 32.9719 20.7145C31.2944 20.7145 29.8696 21.8012 29.4033 23.3315L29.4098 23.3379Z" fill="white"/>
<path d="M9.16423 45H2.75251C1.05567 45 0 43.952 0 42.2674V36.6541C0 33.4906 1.70332 30.6229 4.30686 29.0219C3.11519 27.8259 2.40925 26.1863 2.40925 24.4181C2.40925 20.7981 5.37548 17.8533 9.02174 17.8533C12.3636 17.8533 15.1874 20.3352 15.5824 23.6273C15.6472 24.1481 15.414 24.6689 14.9801 24.9711C12.2406 26.8872 10.602 30.0121 10.602 33.3299V43.5598C10.602 44.3506 9.95436 44.9936 9.15775 44.9936L9.16423 45ZM2.88851 42.1323H7.71997V33.3299C7.71997 32.404 7.81712 31.491 8.01141 30.6036C7.92074 30.6422 7.83007 30.6744 7.73292 30.6937C4.9286 31.2916 2.89499 33.7993 2.89499 36.6477V42.1259L2.88851 42.1323ZM9.02822 20.721C6.97517 20.721 5.29776 22.3799 5.29776 24.4246C5.29776 26.032 6.334 27.4402 7.86893 27.9417C8.19923 28.0446 8.46477 28.2632 8.63963 28.5332C9.45567 26.4821 10.7963 24.6432 12.545 23.2158C12.0398 21.7498 10.6409 20.721 9.02174 20.721H9.02822Z" fill="white"/>
<path d="M22.3697 23.6208L22.8425 22.1034C22.2208 22.2577 21.5731 22.3413 20.906 22.3413C20.239 22.3413 19.5913 22.2577 18.9696 22.1034L19.4424 23.6208H19.5978L18.0693 33.4778L20.9125 36.7184L23.7557 33.4778L22.2272 23.6208H22.3827H22.3697Z" fill="white"/>
<path d="M32.9215 45H9.44426C8.64765 45 8 44.357 8 43.5661V33.3363C8 28.3532 10.895 23.8651 15.2148 21.6661C13.0517 19.9236 11.7305 17.2746 11.7305 14.3811C11.7305 9.21154 15.9726 5 21.1861 5C26.3997 5 30.6353 9.21154 30.6353 14.3811C30.6353 17.2746 29.3141 19.9236 27.151 21.6661C31.4708 23.8587 34.3658 28.3532 34.3658 33.3363V43.5661C34.3658 44.357 33.7181 45 32.9215 45V45ZM10.882 42.1323H31.4773V33.3299C31.4773 28.5461 28.0641 24.3474 23.3622 23.3379C22.7275 23.2029 22.2612 22.6563 22.2224 22.0133C22.19 21.3639 22.598 20.7788 23.2133 20.5795C25.9204 19.6986 27.7403 17.2103 27.7403 14.3811C27.7403 10.7869 24.7935 7.86771 21.1732 7.86771C17.5528 7.86771 14.606 10.7933 14.606 14.3811C14.606 17.2103 16.4259 19.6986 19.1331 20.5795C19.7548 20.7788 20.1628 21.3704 20.124 22.0133C20.0916 22.6628 19.6253 23.2029 18.9841 23.3379C14.2822 24.3474 10.8691 28.5461 10.8691 33.3299V42.1323H10.882Z" fill="white"/>
</svg>
