<svg width="40" height="37" viewBox="0 0 40 37" fill="none" xmlns="http://www.w3.org/2000/svg">
    <g clip-path="url(#6fvugm249a)">
        <path d="M36.548 32.152H3.452c-.915 0-1.79-.36-2.44-.997A3.375 3.375 0 0 1 0 28.753v-4.448c0-.79.652-1.432 1.455-1.432h37.09c.803 0 1.455.641 1.455 1.432v4.451c0 .9-.364 1.766-1.01 2.405a3.47 3.47 0 0 1-2.439.997l-.003-.006zM2.91 25.726v3.027a.54.54 0 0 0 .543.535H36.55c.3 0 .543-.24.543-.535V25.74l-34.182-.014h-.003z" fill="#000"/>
        <path d="M38.545 25.737a1.442 1.442 0 0 1-1.454-1.43V3.403a.539.539 0 0 0-.543-.535H3.452c-.3 0-.54.237-.543.532v20.906c0 .79-.652 1.432-1.454 1.432A1.442 1.442 0 0 1 0 24.307V3.403C0 2.498.366 1.636 1.013.997A3.481 3.481 0 0 1 3.452 0H36.55c.915 0 1.793.36 2.44.997A3.386 3.386 0 0 1 40.002 3.4v20.906c0 .38-.154.744-.425 1.014-.272.27-.644.418-1.03.418h-.003zM28.408 37h-16.81c-.387 0-.756-.151-1.03-.419a1.42 1.42 0 0 1 0-2.027c.271-.27.643-.419 1.03-.419h16.81c.803 0 1.455.642 1.455 1.433 0 .79-.649 1.432-1.452 1.432h-.003z" fill="#000"/>
        <path d="M20 36.639c-.387 0-.756-.151-1.03-.419a1.419 1.419 0 0 1-.425-1.013v-4.501c0-.79.652-1.432 1.454-1.435.803 0 1.455.642 1.455 1.432v4.501c0 .79-.652 1.432-1.454 1.432v.003z" fill="#000"/>
        <path d="M20 5.954v8.54M20 17v2.54" stroke="#0079FB" stroke-width="2.5"/>
    </g>
    <defs>
        <clipPath id="6fvugm249a">
            <path fill="#fff" d="M0 0h40v37H0z"/>
        </clipPath>
    </defs>
</svg>
