<svg width="22" height="22" viewBox="0 0 22 22" fill="none" xmlns="http://www.w3.org/2000/svg">
    <path d="M10.913 9.75a4.781 4.781 0 1 0 0-9.562 4.781 4.781 0 0 0 0 9.563zM4.157 19h13.508c.697 0 1.227-.608 1.152-1.298-.38-3.516-2.286-6.44-4.872-7.745a5.822 5.822 0 0 1-6.064 0c-2.59 1.305-4.493 4.23-4.874 7.745a1.164 1.164 0 0 0 1.152 1.297h-.002z" fill="#000"/>
    <path d="m11.885 10.987.139.438a.405.405 0 0 1-.141.446l-.364.27a.38.38 0 0 1-.459 0l-.364-.27a.4.4 0 0 1-.14-.446l.139-.438a.39.39 0 0 1 .37-.276h.45c.17 0 .32.111.371.276h-.001z" fill="#fff"/>
    <path d="m11.646 12.218.397 3.907-.588 1.264c-.063.139-.267.139-.332 0l-.587-1.264.397-3.907h.713z" fill="#fff"/>
</svg>
