<svg width="686" height="122" viewBox="0 0 686 122" fill="none" xmlns="http://www.w3.org/2000/svg">
<path d="M46.1201 90.2C72.4001 90.2 88.9601 69.92 88.9601 46.28V39.7999H43.4801V55.4H71.4401C68.2001 66.92 59.4401 74.36 46.1201 74.36C29.0801 74.36 16.8401 61.4 16.8401 45.2C16.8401 29.36 29.2001 16.0399 45.5201 16.0399C56.9201 16.0399 65.3201 21.0799 70.8401 31.2799L85.2401 22.6399C77.8001 9.43995 63.5201 0.199951 45.4001 0.199951C19.4801 0.199951 0.640137 20.24 0.640137 45.2C0.640137 69.56 18.7601 90.2 46.1201 90.2Z" fill="black"/>
<path d="M129.765 90.44C139.005 90.44 147.405 86.48 152.565 79.88V89H168.765V18.7999H152.565V27.1999C147.405 21.0799 139.245 17.36 130.005 17.36C112.245 17.36 95.2048 30.68 95.2048 53.96C95.2048 77 112.845 90.44 129.765 90.44ZM132.405 75.56C120.405 75.56 111.165 65.96 111.165 53.72C111.165 41.6 120.405 32.1199 132.405 32.1199C144.525 32.1199 153.405 41.72 153.405 53.72C153.405 65.84 144.525 75.56 132.405 75.56Z" fill="black"/>
<path d="M177.993 89H194.313V0.199951H177.993V89Z" fill="black"/>
<path d="M235.937 90.44C245.177 90.44 253.577 86.48 258.737 79.88V89H274.937V18.7999H258.737V27.1999C253.577 21.0799 245.417 17.36 236.177 17.36C218.417 17.36 201.377 30.68 201.377 53.96C201.377 77 219.017 90.44 235.937 90.44ZM238.577 75.56C226.577 75.56 217.337 65.96 217.337 53.72C217.337 41.6 226.577 32.1199 238.577 32.1199C250.697 32.1199 259.577 41.72 259.577 53.72C259.577 65.84 250.697 75.56 238.577 75.56Z" fill="black"/>
<path d="M278.913 89H298.713L315.393 65.6L332.553 89H352.353L325.473 53.4799L350.673 18.7999H331.473L315.633 41.1199L299.673 18.7999H279.873L305.313 53.24L278.913 89Z" fill="black"/>
<path d="M366.784 121.4H383.224L425.104 18.7999H408.064L389.584 66.08L370.024 18.7999H352.744L381.544 85.52L366.784 121.4Z" fill="black"/>
<path d="M460.657 89H476.977V63.92H490.537C508.777 63.92 522.217 50 522.217 32.6C522.217 15.32 508.777 1.39995 490.657 1.39995H460.657V89ZM489.457 16.5199C499.057 16.5199 505.777 23.6 505.777 32.6C505.777 41.6 499.057 48.7999 489.457 48.7999H476.977V16.5199H489.457Z" fill="black"/>
<path d="M530.384 89H546.704V28.1599L572.984 63.7999L599.864 27.5599V89H616.184V1.39995H600.704L573.104 38.24L546.584 1.39995H530.384V89Z" fill="black"/>
<path d="M655.646 90.2C674.846 90.2 685.886 76.76 685.886 62.96C685.886 46.16 672.446 40.8799 660.566 37.0399C650.966 33.7999 642.686 31.76 642.686 24.68C642.686 19.04 646.886 14.7199 654.926 14.7199C661.766 14.7199 667.046 17.4799 670.766 23.1199L684.206 12.92C677.126 5.59994 668.846 0.199951 654.806 0.199951C638.006 0.199951 625.766 11.24 625.766 25.28C625.766 41.96 638.726 46.4 650.606 50.24C659.846 53.12 668.846 55.5199 668.846 62.84C668.846 68.96 664.166 74.6 655.526 74.6C647.486 74.6 640.766 70.4 636.326 62.72L621.446 74.4799C629.486 83.4799 639.926 90.2 655.646 90.2Z" fill="black"/>
</svg>
