<svg width="171" height="29" viewBox="0 0 171 29" fill="none" xmlns="http://www.w3.org/2000/svg">
    <g clip-path="url(#u9v10j2rfa)" fill="#000">
        <path d="m97.67 18.73-.23-13.195h4.177v16.638h-6.008l-4.16-13.65h-.092l.233 13.65h-4.148V5.535h6.26l3.875 13.195h.092zM21.793 7.093 19.49 22.345h-4.56l3.125-16.81h7.502l3.11 16.81h-4.532L21.885 7.093h-.092zM41.455 18.39l2.084-12.855h6.873l.372 16.81h-4.22L46.46 7.233l-.092.004-2.817 15.108h-4.28L36.453 7.233h-.092l-.108 15.112h-4.22l.372-16.81h6.877l2.08 12.855h.093zM7.835 17.603c.164.408.112.931.036 1.246-.14.56-.521 1.127-1.643 1.127-1.054 0-1.695-.607-1.695-1.522v-1.63H0v1.294C0 21.87 2.958 23 6.128 23s5.558-1.039 5.963-3.843c.204-1.45.052-2.4-.016-2.752-.713-3.524-7.114-4.574-7.586-6.54a2.072 2.072 0 0 1-.02-.882c.12-.54.488-1.127 1.538-1.127.99 0 1.567.607 1.567 1.522v1.039h4.208V9.234C11.782 5.571 8.484 5 6.096 5 3.102 5 .649 5.99.2 8.731c-.124.751-.14 1.422.04 2.265.73 3.435 6.721 4.43 7.59 6.603l.005.004zM62.659 17.571c.16.404.112.919.032 1.23-.136.552-.513 1.115-1.627 1.115-1.042 0-1.68-.6-1.68-1.506v-1.614h-4.48v1.282c0 3.712 2.93 4.834 6.068 4.834 3.138 0 5.502-1.027 5.903-3.807.204-1.434.056-2.373-.02-2.724-.705-3.488-7.041-4.526-7.51-6.476a2.152 2.152 0 0 1-.02-.87c.12-.536.48-1.119 1.523-1.119.977 0 1.55.6 1.55 1.51v1.027h4.168v-1.17c0-3.624-3.266-4.191-5.63-4.191-2.966 0-5.395.978-5.835 3.695a5.75 5.75 0 0 0 .04 2.245c.721 3.4 6.656 4.386 7.514 6.54h.004zM76.818 19.828c1.174 0 1.535-.803 1.619-1.218.036-.18.04-.424.04-.64V5.532h4.268v12.056c.008.308-.024.939-.04 1.107-.296 3.136-2.781 4.154-5.883 4.154s-5.587-1.018-5.883-4.154a13.873 13.873 0 0 1-.04-1.107V5.531h4.264v12.436c0 .215 0 .463.04.639.084.415.445 1.218 1.615 1.218v.004zM111.992 19.652c1.223 0 1.647-.774 1.724-1.222.032-.192.044-.423.04-.639v-2.437h-1.728v-2.452h5.976v4.505c0 .316-.008.548-.06 1.107-.281 3.06-2.942 4.15-5.932 4.15-2.989 0-5.65-1.09-5.931-4.15-.052-.56-.06-.79-.06-1.107v-7.07c0-.3.04-.827.072-1.107.377-3.143 2.926-4.154 5.919-4.154 2.994 0 5.607 1.003 5.92 4.154.052.536.036 1.107.036 1.107v.56h-4.252v-.944s0-.399-.057-.639c-.076-.367-.396-1.218-1.683-1.218-1.286 0-1.587.807-1.679 1.218a4.09 4.09 0 0 0-.068.795v7.682c0 .216.008.447.04.64.076.447.505 1.221 1.723 1.221z"/>
    </g>
    <path d="M126.966 22h3.128v-4.807h2.599c3.496 0 6.072-2.668 6.072-6.003 0-3.312-2.576-5.98-6.049-5.98h-5.75V22zm5.52-13.892c1.84 0 3.128 1.357 3.128 3.082 0 1.725-1.288 3.105-3.128 3.105h-2.392V8.108h2.392zM140.33 22h3.128V10.339l5.037 6.831 5.152-6.946V22h3.128V5.21h-2.967l-5.29 7.061-5.083-7.061h-3.105V22zm24.009.23c3.68 0 5.796-2.576 5.796-5.221 0-3.22-2.576-4.232-4.853-4.968-1.84-.621-3.427-1.012-3.427-2.369 0-1.081.805-1.909 2.346-1.909 1.311 0 2.323.529 3.036 1.61l2.576-1.955c-1.357-1.403-2.944-2.438-5.635-2.438-3.22 0-5.566 2.116-5.566 4.807 0 3.197 2.484 4.048 4.761 4.784 1.771.552 3.496 1.012 3.496 2.415 0 1.173-.897 2.254-2.553 2.254-1.541 0-2.829-.805-3.68-2.277l-2.852 2.254c1.541 1.725 3.542 3.013 6.555 3.013z" fill="#000"/>
    <defs>
        <clipPath id="u9v10j2rfa">
            <path fill="#fff" transform="translate(0 5)" d="M0 0h118v18H0z"/>
        </clipPath>
    </defs>
</svg>
