<?xml version="1.0" standalone="no"?>
<!DOCTYPE svg PUBLIC "-//W3C//DTD SVG 1.1//EN" "http://www.w3.org/Graphics/SVG/1.1/DTD/svg11.dtd" >
<svg>
<metadata>
Created by FontForge 20090622 at Mon Aug 12 02:49:59 2019
 By deploy user
Samsung Sharp Sans is a customized version of Sharp Sans, which is copyright (c) 2015 by Lucas Sharp. All rights reserved.
</metadata>
<defs>
<font id="SamsungSharpSans-Bold" horiz-adv-x="646" >
  <font-face 
    font-family="Samsung Sharp Sans"
    font-weight="700"
    font-stretch="normal"
    units-per-em="1000"
    panose-1="2 0 8 6 0 0 0 2 0 4"
    ascent="800"
    descent="-200"
    x-height="585"
    cap-height="730"
    bbox="-91 -283 1414 1100"
    underline-thickness="50"
    underline-position="-50"
    unicode-range="U+000D-U+FB79"
  />
<missing-glyph horiz-adv-x="926" 
d="M100 0v730h726v-730h-726zM236 600v-470h454v470h-454zM340 162l-80 78l123 127l-124 129l80 78l122 -126l124 127l80 -78l-126 -130l125 -128l-80 -78l-123 126z" />
    <glyph glyph-name="uni203D" unicode="&#x21;&#x3f;" horiz-adv-x="517" 
d="M292 187h-95q-12 288 -12 426v2q-45 -23 -59 -79l-126 43q19 74 81 117.5t157 43.5q110 0 178 -57.5t68 -151.5q0 -52 -20 -87.5t-48 -55.5l-56 -41t-48 -57.5t-20 -90.5v-12zM163 69q0 37 22 59.5t60 22.5t59.5 -22.5t21.5 -59.5q0 -36 -22 -58.5t-60 -22.5t-59.5 22
t-21.5 59zM348 533q0 55 -49 80q0 -93 -6 -190q38 42 47 64q8 20 8 46z" />
    <glyph glyph-name="uniE935" unicode="&#xa1;&#xbf;" horiz-adv-x="517" 
d="M279 -240q-110 0 -178.5 57.5t-68.5 151.5q0 44 14.5 76.5t35.5 50l46.5 37t46.5 37.5t35.5 51.5t14.5 79.5v12h95q12 -288 12 -426v-2q46 24 59 79l126 -43q-19 -74 -81 -117.5t-157 -43.5zM194 431q0 37 22 59.5t60 22.5t59.5 -22.5t21.5 -59.5q0 -36 -22 -58.5
t-60 -22.5t-59.5 22t-21.5 59zM168 -33q0 -54 50 -80q0 109 5 190q-37 -41 -46 -61q-9 -22 -9 -49z" />
    <glyph glyph-name="uniFB76" unicode="&#x683;" horiz-adv-x="493" arabic-form="isolated" 
d="M171 0h-136v596h214q105 0 164.5 -57t59.5 -152q0 -53 -23 -98t-67 -71l107 -218h-147l-83 179h-89v-179zM171 304h65q97 0 97 87q0 79 -97 79h-65v-166z" />
    <glyph glyph-name="uniFB77" unicode="&#x683;" horiz-adv-x="493" arabic-form="final" 
d="M171 0h-136v596h214q105 0 164.5 -57t59.5 -152q0 -53 -23 -98t-67 -71l107 -218h-147l-83 179h-89v-179zM171 304h65q97 0 97 87q0 79 -97 79h-65v-166zM171 646l115 170h126l-150 -170h-91z" />
    <glyph glyph-name="uniFB78" unicode="&#x683;" horiz-adv-x="493" arabic-form="initial" 
d="M171 0h-136v596h214q105 0 164.5 -57t59.5 -152q0 -53 -23 -98t-67 -71l107 -218h-147l-83 179h-89v-179zM195 646l-119 170h102l59 -89l59 89h102l-119 -170h-84zM171 304h65q97 0 97 87q0 79 -97 79h-65v-166z" />
    <glyph glyph-name="uniFB79" unicode="&#x683;" horiz-adv-x="493" arabic-form="medial" 
d="M171 0h-136v596h214q105 0 164.5 -57t59.5 -152q0 -53 -23 -98t-67 -71l107 -218h-147l-83 179h-89v-179zM171 304h65q97 0 97 87q0 79 -97 79h-65v-166zM237 -252h-83l34 204h119z" />
    <glyph glyph-name=".notdef" horiz-adv-x="926" 
d="M100 0v730h726v-730h-726zM236 600v-470h454v470h-454zM340 162l-80 78l123 127l-124 129l80 78l122 -126l124 127l80 -78l-126 -130l125 -128l-80 -78l-123 126z" />
    <glyph glyph-name="uni0000" horiz-adv-x="0" 
 />
    <glyph glyph-name="uni0000" horiz-adv-x="0" 
 />
    <glyph glyph-name="uni000D" unicode="&#xd;" horiz-adv-x="250" 
 />
    <glyph glyph-name="space" unicode=" " horiz-adv-x="245" 
 />
    <glyph glyph-name="exclam" unicode="!" horiz-adv-x="209" 
d="M141 198h-73q-31 196 -31 415v117h134v-117q0 -226 -30 -415zM22 69q0 37 22 59.5t60 22.5t59.5 -22.5t21.5 -59.5q0 -36 -22 -58.5t-60 -22.5t-59.5 22t-21.5 59z" />
    <glyph glyph-name="quotedbl" unicode="&#x22;" horiz-adv-x="323" 
d="M107 500h-37q-9 19 -21.5 71t-12.5 75v84h105v-84q0 -23 -12.5 -74.5t-21.5 -71.5zM252 500h-37q-9 19 -21 71t-12 75v84h105v-84q0 -24 -13 -75t-22 -71z" />
    <glyph glyph-name="numbersign" unicode="#" horiz-adv-x="802" 
d="M484 0v155h-174v-155h-136v155h-148v130h148v170h-148v130h148v145h136v-145h174v145h136v-145h156v-130h-156v-170h156v-130h-156v-155h-136zM310 455v-170h174v170h-174z" />
    <glyph glyph-name="dollar" unicode="$" horiz-adv-x="588" 
d="M564 217q0 -78 -52.5 -141t-143.5 -80v-116h-136v117q-130 22 -219 124l124 97q35 -59 98 -84v193q-40 12 -70.5 27t-61 38.5t-47 58.5t-16.5 80q0 75 53.5 133t138.5 71v105h136v-108q95 -19 174 -98l-113 -85q-26 37 -65 54v-174q42 -14 72 -29t62 -39.5t49 -61
t17 -82.5zM426 218q0 43 -62 71v-159q29 13 45.5 36.5t16.5 51.5zM176 536q0 -25 14.5 -40t44.5 -27v141q-59 -21 -59 -74z" />
    <glyph glyph-name="percent" unicode="%" horiz-adv-x="825" 
d="M136 562q0 -27 19.5 -46.5t45.5 -19.5t45.5 19.5t19.5 46.5q0 26 -19.5 45.5t-45.5 19.5t-45.5 -19.5t-19.5 -45.5zM446 168q0 74 52.5 126t126.5 52t126 -52t52 -126t-52 -126.5t-126 -52.5t-126.5 52.5t-52.5 126.5zM13 0l627 730h172l-627 -730h-172zM560 168
q0 -27 19 -46t46 -19q26 0 45 19t19 46q0 26 -19 45.5t-45 19.5q-27 0 -46 -19.5t-19 -45.5zM22 562q0 74 52.5 126t126.5 52t126 -52t52 -126t-52 -126.5t-126 -52.5t-126.5 52.5t-52.5 126.5z" />
    <glyph glyph-name="ampersand" unicode="&#x26;" horiz-adv-x="749" 
d="M563 0l-57 56q-96 -67 -197 -67q-76 0 -133.5 21t-90 56.5t-48.5 76t-16 84.5q0 66 34 118.5t92 86.5q-34 53 -34 120q0 80 59.5 134t149.5 54q85 0 138.5 -37.5t74.5 -98.5l-132 -47q-19 62 -76 62q-31 0 -51 -19t-20 -48q0 -40 21.5 -70t99.5 -108l139 -140
q41 58 59 134h-123v129h258v-63q0 -144 -109 -285l148 -149h-186zM308 108q58 0 112 33l-155 156q-7 6 -14 13l-15 15.5l-12 12.5q-68 -42 -68 -110q0 -50 40.5 -85t111.5 -35z" />
    <glyph glyph-name="quotesingle" unicode="'" horiz-adv-x="177" 
d="M107 500h-37q-9 19 -21.5 71t-12.5 75v84h105v-84q0 -23 -12.5 -74.5t-21.5 -71.5z" />
    <glyph glyph-name="parenleft" unicode="(" horiz-adv-x="388" 
d="M385 -142l-85 -112q-278 189 -278 504q0 164 68.5 281.5t198.5 212.5l91 -98q-216 -143 -216 -396q0 -257 221 -392z" />
    <glyph glyph-name="parenright" unicode=")" horiz-adv-x="388" 
d="M224 248q0 253 -216 396l91 98q130 -94 199 -212t69 -282q0 -315 -279 -504l-84 112q220 134 220 392z" />
    <glyph glyph-name="asterisk" unicode="*" horiz-adv-x="405" 
d="M325 415l-87 77l23 -115h-117l22 114l-89 -76l-57 102l110 37l-110 39l60 100l87 -76l-23 114h117l-24 -116l90 78l58 -102l-112 -38l112 -38z" />
    <glyph glyph-name="plus" unicode="+" horiz-adv-x="442" 
d="M36 307v115h129v127h113v-127h128v-115h-128v-128h-113v128h-129z" />
    <glyph glyph-name="comma" unicode="," horiz-adv-x="207" 
d="M21 -117l35 204h119l-70 -204h-84z" />
    <glyph glyph-name="hyphen" unicode="-" horiz-adv-x="442" 
d="M36 197v115h370v-115h-370z" />
    <glyph glyph-name="period" unicode="." horiz-adv-x="207" 
d="M22 69q0 37 22 59.5t60 22.5t59.5 -22.5t21.5 -59.5q0 -36 -22 -58.5t-60 -22.5t-59.5 22t-21.5 59z" />
    <glyph glyph-name="slash" unicode="/" horiz-adv-x="511" 
d="M11 0l346 730h144l-346 -730h-144z" />
    <glyph glyph-name="zero" unicode="0" horiz-adv-x="588" 
d="M293 125q53 0 83 30.5t30 77.5v259q0 53 -29 83.5t-82 30.5t-83 -32t-30 -82v-258q0 -49 29 -79t82 -30zM294 -10q-117 0 -182.5 65.5t-65.5 172.5v268q0 105 69.5 174.5t178.5 69.5q111 0 179.5 -70t68.5 -173v-269q0 -109 -66 -173.5t-182 -64.5z" />
    <glyph glyph-name="one" unicode="1" horiz-adv-x="331" 
d="M260 0h-136v603h-89v127h225v-730z" />
    <glyph glyph-name="two" unicode="2" horiz-adv-x="536" 
d="M36 0v128q0 36 12 70t28.5 58t45.5 51t50.5 43t55.5 39l23.5 16.5l23.5 16.5l20.5 15t20 16l16.5 15.5t14.5 16.5l10 15.5t7.5 17.5t2 18q0 38 -26.5 62.5t-73.5 24.5q-85 0 -128 -104l-117 59q73 162 246 162q108 0 172.5 -58t64.5 -147q0 -41 -14.5 -76t-45.5 -66
t-55 -49.5t-67 -47.5q-87 -59 -112 -85q-38 -40 -38 -81h329v-130h-465z" />
    <glyph glyph-name="three" unicode="3" horiz-adv-x="502" 
d="M237 -10q-146 0 -234 102l118 88q44 -66 115 -66q48 0 78 26t30 71q0 46 -34.5 73.5t-90.5 27.5h-75v125h75q57 0 86.5 27.5t29.5 69.5q0 40 -28 64t-75 24q-74 0 -111 -70l-116 60q32 60 92.5 94t132.5 34q107 0 172 -56t65 -149q0 -98 -83 -157q96 -56 96 -167
q0 -97 -64.5 -159t-178.5 -62z" />
    <glyph glyph-name="four" unicode="4" horiz-adv-x="623" 
d="M348 0v168h-313v124l306 438h139v-438h107v-124h-107v-168h-132zM182 292h166v235z" />
    <glyph glyph-name="five" unicode="5" horiz-adv-x="541" 
d="M270 -10q-90 0 -154 40t-95 100l126 73q39 -88 124 -88q46 0 79 32.5t33 82.5q0 52 -31 86.5t-84 34.5q-74 0 -117 -74l-121 62l52 391h406v-127h-298l-21 -162q50 34 114 34q102 0 169.5 -65t67.5 -180q0 -106 -70.5 -173t-179.5 -67z" />
    <glyph glyph-name="six" unicode="6" horiz-adv-x="562" 
d="M282 -10q-113 0 -187 71t-74 177q0 107 56 189l189 303h160l-160 -248q21 6 43 6q97 0 164 -70.5t67 -178.5q0 -109 -73 -179t-185 -70zM279 113q52 0 89.5 37.5t37.5 91.5q0 52 -37.5 89.5t-89.5 37.5q-51 0 -88 -37.5t-37 -90.5q0 -52 37 -90t88 -38z" />
    <glyph glyph-name="seven" unicode="7" horiz-adv-x="530" 
d="M98 0l255 600h-318v130h460v-118l-253 -612h-144z" />
    <glyph glyph-name="eight" unicode="8" horiz-adv-x="588" 
d="M293 -10q-125 0 -192 60t-67 168q0 109 90 171q-65 55 -65 143q0 94 65.5 151t173.5 57q106 0 171.5 -57t65.5 -151q0 -88 -69 -144q88 -61 88 -170q0 -108 -68 -168t-193 -60zM293 110q63 0 97 30.5t34 77.5t-33.5 77.5t-94.5 30.5q-62 0 -96.5 -30.5t-34.5 -77.5
q0 -48 32.5 -78t95.5 -30zM295 440q55 0 85.5 26t30.5 66t-30 66.5t-82 26.5q-53 0 -84.5 -26.5t-31.5 -66.5q0 -41 28.5 -66.5t83.5 -25.5z" />
    <glyph glyph-name="nine" unicode="9" horiz-adv-x="562" 
d="M135 0l161 251q-21 -6 -42 -6q-98 0 -166 69t-68 177q0 110 74 179.5t185 69.5q113 0 186.5 -71t73.5 -177q0 -107 -56 -189l-188 -303h-160zM281 362q52 0 89 37.5t37 91.5q0 52 -37.5 90.5t-88.5 38.5t-89 -39t-38 -91q0 -53 38 -90.5t89 -37.5z" />
    <glyph glyph-name="colon" unicode=":" horiz-adv-x="207" 
d="M22 69q0 37 22 59.5t60 22.5t59.5 -22.5t21.5 -59.5q0 -36 -22 -58.5t-60 -22.5t-59.5 22t-21.5 59zM22 430q0 37 22 59.5t60 22.5t59.5 -22.5t21.5 -59.5q0 -36 -22 -58.5t-60 -22.5t-59.5 22t-21.5 59z" />
    <glyph glyph-name="semicolon" unicode=";" horiz-adv-x="207" 
d="M21 -117l35 204h119l-70 -204h-84zM22 430q0 37 22 59.5t60 22.5t59.5 -22.5t21.5 -59.5q0 -36 -22 -58.5t-60 -22.5t-59.5 22t-21.5 59z" />
    <glyph glyph-name="less" unicode="&#x3c;" horiz-adv-x="442" 
d="M406 172l-370 134v115l370 133v-118l-224 -73l224 -73v-118z" />
    <glyph glyph-name="equal" unicode="=" horiz-adv-x="442" 
d="M36 389v115h370v-115h-370zM36 222v115h370v-115h-370z" />
    <glyph glyph-name="greater" unicode="&#x3e;" horiz-adv-x="442" 
d="M36 172v118l223 73l-223 73v118l370 -133v-115z" />
    <glyph glyph-name="question" unicode="?" horiz-adv-x="517" 
d="M181 188v11q0 67 17 115.5t41.5 73.5t49 44.5t41.5 44t17 56.5q0 39 -26 64t-70 25q-38 0 -64.5 -24t-35.5 -62l-126 43q19 75 76.5 118t151.5 43q102 0 166.5 -58t64.5 -151q0 -44 -13.5 -77.5t-33.5 -52l-44 -39l-44 -38.5t-33.5 -50.5t-13.5 -74.5v-11h-121zM159 69
q0 37 22 59.5t60 22.5t59.5 -22.5t21.5 -59.5q0 -36 -22 -58.5t-60 -22.5t-59.5 22t-21.5 59z" />
    <glyph glyph-name="at" unicode="@" horiz-adv-x="789" 
d="M395 -125q-156 0 -264.5 109.5t-108.5 265.5t108.5 265.5t264.5 109.5q164 0 268.5 -102t104.5 -235q0 -88 -47.5 -149.5t-124.5 -61.5q-79 0 -120 55q-41 -54 -126 -54q-66 0 -114 49t-40 131q9 85 64 132.5t115 47.5q63 0 97 -37l2 16.5t1 9.5q1 3 1 5h107l-19 -181
q-8 -68 41 -68q24 0 39.5 29t15.5 76q0 91 -73.5 161.5t-191.5 70.5q-111 0 -189 -79t-78 -192q0 -112 78 -191t189 -79q116 0 198 88l81 -67q-112 -125 -279 -125zM375 179q35 0 58.5 23.5t26.5 58.5q4 34 -15.5 57.5t-52.5 23.5q-34 0 -59.5 -23t-27.5 -58
q-5 -35 15.5 -58.5t54.5 -23.5z" />
    <glyph glyph-name="A" unicode="A" horiz-adv-x="687" 
d="M15 0l260 730h137l260 -730h-142l-45 130h-283l-45 -130h-142zM344 537l-96 -277h192z" />
    <glyph glyph-name="B" unicode="B" horiz-adv-x="573" 
d="M42 0v730h230q123 0 188.5 -52t65.5 -152q0 -95 -80 -142q106 -48 106 -168q0 -106 -69.5 -161t-192.5 -55h-248zM284 312h-106v-187h112q125 0 125 94q0 47 -29 70t-102 23zM272 605h-94v-166h94q117 0 117 87q0 42 -27 60.5t-90 18.5z" />
    <glyph glyph-name="C" unicode="C" horiz-adv-x="738" 
d="M397 -10q-166 0 -270.5 108t-104.5 267q0 162 108 268.5t267 106.5q101 0 186 -49t134 -132l-119 -76q-70 123 -201 123q-104 0 -172 -69t-68 -172q0 -100 68 -169.5t169 -69.5q143 0 210 137l124 -65q-49 -95 -137 -151.5t-194 -56.5z" />
    <glyph glyph-name="D" unicode="D" horiz-adv-x="648" 
d="M42 0v730h199q180 0 283 -102.5t103 -262.5q0 -157 -107 -261t-273 -104h-205zM225 604h-47v-478h53q118 0 189 67.5t71 171.5q0 109 -67.5 174t-198.5 65z" />
    <glyph glyph-name="E" unicode="E" horiz-adv-x="509" 
d="M42 0v730h433v-130h-297v-168h297v-130h-297v-172h297v-130h-433z" />
    <glyph glyph-name="F" unicode="F" horiz-adv-x="491" 
d="M42 0v730h413v-130h-277v-168h277v-130h-277v-302h-136z" />
    <glyph glyph-name="G" unicode="G" horiz-adv-x="780" 
d="M401 -10q-167 0 -273 109.5t-106 265.5q0 158 106.5 266.5t266.5 108.5q110 0 197 -51t135 -136l-120 -72q-69 127 -211 127q-101 0 -170 -71.5t-69 -171.5q0 -102 69.5 -172.5t174.5 -70.5q81 0 135.5 42t75.5 116h-233v130h379v-54q0 -153 -98.5 -259.5t-258.5 -106.5z
" />
    <glyph glyph-name="H" unicode="H" horiz-adv-x="636" 
d="M458 0v301h-280v-301h-136v730h136v-299h280v299h136v-730h-136z" />
    <glyph glyph-name="I" unicode="I" horiz-adv-x="230" 
d="M47 0v730h136v-730h-136z" />
    <glyph glyph-name="J" unicode="J" horiz-adv-x="501" 
d="M247 -10q-89 0 -149.5 44.5t-78.5 120.5l134 44q9 -36 33.5 -59t58.5 -23q40 0 59.5 26t19.5 67v520h136v-508q0 -111 -55 -171.5t-158 -60.5z" />
    <glyph glyph-name="K" unicode="K" horiz-adv-x="618" 
d="M450 0l-193 351l-79 -98v-253h-136v730h136v-299l241 299h165l-231 -284l252 -446h-155z" />
    <glyph glyph-name="L" unicode="L" horiz-adv-x="481" 
d="M42 0v730h136v-600h267v-130h-403z" />
    <glyph glyph-name="M" unicode="M" horiz-adv-x="798" 
d="M42 0v730h135l221 -307l230 307h129v-730h-136v512l-224 -302l-219 297v-507h-136z" />
    <glyph glyph-name="N" unicode="N" horiz-adv-x="690" 
d="M42 0v730h154l316 -497v497h136v-730h-145l-325 513v-513h-136z" />
    <glyph glyph-name="O" unicode="O" horiz-adv-x="790" 
d="M395 -10q-156 0 -264.5 109.5t-108.5 265.5t108.5 265.5t264.5 109.5t265 -109.5t109 -265.5t-109 -265.5t-265 -109.5zM395 124q100 0 169.5 70.5t69.5 170.5t-69.5 170.5t-169.5 70.5q-99 0 -168.5 -70.5t-69.5 -170.5t69.5 -170.5t168.5 -70.5z" />
    <glyph glyph-name="P" unicode="P" horiz-adv-x="581" 
d="M42 0v730h250q112 0 187.5 -75.5t75.5 -184.5q0 -110 -75.5 -185.5t-188.5 -75.5h-113v-209h-136zM282 604h-104v-269h104q59 0 97.5 39t38.5 96t-38.5 95.5t-97.5 38.5z" />
    <glyph glyph-name="Q" unicode="Q" horiz-adv-x="790" 
d="M617 0l-275 359h163l92 -120q37 60 37 126q0 100 -69.5 170.5t-169.5 70.5q-99 0 -168.5 -70.5t-69.5 -170.5t69.5 -170.5t168.5 -70.5q35 0 71 11l85 -111q-72 -34 -156 -34q-156 0 -264.5 109.5t-108.5 265.5t108.5 265.5t264.5 109.5t265 -109.5t109 -265.5
q0 -133 -84 -238l98 -127h-166z" />
    <glyph glyph-name="R" unicode="R" horiz-adv-x="584" 
d="M178 0h-136v730h234q127 0 200 -69.5t73 -184.5q0 -67 -32 -124t-91 -89l146 -263h-155l-117 223h-122v-223zM178 348h86q79 0 114 36.5t35 96.5q0 122 -149 122h-86v-255z" />
    <glyph glyph-name="S" unicode="S" horiz-adv-x="563" 
d="M288 -10q-168 0 -285 131l124 98q57 -99 160 -99q52 0 81.5 28.5t29.5 69.5q0 49 -73 78q-19 8 -79 27q-39 12 -61 20.5t-54 26.5t-49 37.5t-30 51.5t-13 72q0 88 69 148.5t173 60.5q82 0 138.5 -27.5t106.5 -78.5l-112 -85q-46 70 -132 70q-49 0 -75.5 -23t-26.5 -60
q0 -16 7.5 -29t16.5 -21t29 -17.5t33.5 -14.5t41.5 -14q14 -5 21 -7q36 -12 60.5 -21.5t55.5 -28t50 -39.5t32 -54t13 -73q0 -92 -68.5 -159.5t-183.5 -67.5z" />
    <glyph glyph-name="T" unicode="T" horiz-adv-x="579" 
d="M221 0v600h-195v130h527v-130h-196v-600h-136z" />
    <glyph glyph-name="U" unicode="U" horiz-adv-x="608" 
d="M304 -10q-118 0 -190.5 68.5t-72.5 193.5v478h136v-486q0 -54 36 -91t90 -37q53 0 90.5 37t37.5 91v486h136v-478q0 -125 -73 -193.5t-190 -68.5z" />
    <glyph glyph-name="V" unicode="V" horiz-adv-x="657" 
d="M260 0l-245 730h141l173 -522l172 522h141l-245 -730h-137z" />
    <glyph glyph-name="W" unicode="W" horiz-adv-x="1023" 
d="M222 0l-208 730h142l138 -511l153 511h134l152 -509l137 509h137l-206 -730h-135l-153 515l-153 -515h-138z" />
    <glyph glyph-name="X" unicode="X" horiz-adv-x="630" 
d="M467 0l-152 251l-151 -251h-153l223 369l-218 361h152l147 -243l147 243h153l-220 -361l224 -369h-152z" />
    <glyph glyph-name="Y" unicode="Y" horiz-adv-x="629" 
d="M245 0v346l-232 384h150l151 -253l152 253h150l-235 -387v-343h-136z" />
    <glyph glyph-name="Z" unicode="Z" horiz-adv-x="556" 
d="M36 0v125l323 475h-312v130h472v-124l-323 -476h323v-130h-483z" />
    <glyph glyph-name="bracketleft" unicode="[" horiz-adv-x="345" 
d="M36 -230v960h273v-130h-137v-700h137v-130h-273z" />
    <glyph glyph-name="backslash" unicode="\" horiz-adv-x="511" 
d="M357 0l-346 730h144l346 -730h-144z" />
    <glyph glyph-name="bracketright" unicode="]" horiz-adv-x="345" 
d="M36 -230v130h137v700h-137v130h273v-960h-273z" />
    <glyph glyph-name="asciicircum" unicode="^" horiz-adv-x="472" 
d="M75 549l119 170h84l119 -170h-101l-60 89l-59 -89h-102z" />
    <glyph glyph-name="underscore" unicode="_" horiz-adv-x="447" 
d="M36 -125v115h375v-115h-375z" />
    <glyph glyph-name="grave" unicode="`" horiz-adv-x="472" 
d="M255 550l-150 170h127l114 -170h-91z" />
    <glyph glyph-name="a" unicode="a" horiz-adv-x="671" 
d="M308 -12q-113 0 -200.5 83.5t-87.5 220.5q0 139 86 222t204 83q119 0 188 -82v70h135v-585h-135v76q-32 -41 -82 -64.5t-108 -23.5zM330 112q75 0 125 53t50 129t-50 128t-125 52t-126 -52t-51 -128q0 -77 51 -129.5t126 -52.5z" />
    <glyph glyph-name="b" unicode="b" horiz-adv-x="668" 
d="M365 -12q-124 0 -192 88v-76h-134v740h135v-229q31 40 81 63t108 23q117 0 202.5 -83t85.5 -222q0 -137 -87 -220.5t-199 -83.5zM342 112q74 0 125 52.5t51 129.5q0 76 -51 128t-125 52t-124 -52t-50 -128t50 -129t124 -53z" />
    <glyph glyph-name="c" unicode="c" horiz-adv-x="617" 
d="M324 -12q-128 0 -216 88.5t-88 215.5q0 128 88 216.5t216 88.5q96 0 170 -49.5t109 -131.5l-121 -51q-20 49 -62 77t-95 28q-74 0 -123.5 -51.5t-49.5 -126.5q0 -74 50 -125.5t124 -51.5q55 0 96 29.5t62 79.5l121 -52q-36 -84 -109 -134t-172 -50z" />
    <glyph glyph-name="d" unicode="d" horiz-adv-x="671" 
d="M308 -12q-113 0 -200.5 83.5t-87.5 220.5q0 139 86 222t204 83q119 0 187 -81v224h136v-740h-135v76q-32 -41 -82 -64.5t-108 -23.5zM330 112q75 0 125 53t50 129t-50 128t-125 52t-126 -52t-51 -128q0 -77 51 -129.5t126 -52.5z" />
    <glyph glyph-name="e" unicode="e" 
d="M329 -12q-136 0 -222.5 87t-86.5 216q0 128 88 217t216 89q130 0 215.5 -85.5t85.5 -215.5v-51h-476q15 -63 62 -100.5t118 -37.5q56 0 98.5 27.5t63.5 75.5l111 -64q-85 -158 -273 -158zM324 478q-60 0 -105 -32.5t-63 -87.5h332q-15 59 -57.5 89.5t-106.5 30.5z" />
    <glyph glyph-name="f" unicode="f" horiz-adv-x="391" 
d="M17 464v121h99v1q0 126 56 180t189 54h12v-125q-78 0 -99 -21.5t-21 -88.5h120v-121h-120v-464h-137v464h-99z" />
    <glyph glyph-name="g" unicode="g" horiz-adv-x="673" 
d="M499 10v68q-69 -90 -191 -90q-113 0 -200.5 83.5t-87.5 220.5q0 139 86 222t204 83q117 0 188 -87v75h135v-570q0 -129 -80 -213.5t-222 -84.5q-208 0 -300 168l120 73q34 -62 74.5 -89.5t107.5 -27.5q74 0 120 50t46 119zM330 112q75 0 125 53t50 129t-50 128t-125 52
t-126 -52t-51 -128q0 -77 51 -129.5t126 -52.5z" />
    <glyph glyph-name="h" unicode="h" horiz-adv-x="619" 
d="M39 0v740h135v-225q64 82 175 82q110 0 171 -65.5t61 -184.5v-347h-138v332q0 70 -33.5 109t-98.5 39q-59 0 -97.5 -42.5t-38.5 -116.5v-321h-136z" />
    <glyph glyph-name="i" unicode="i" horiz-adv-x="214" 
d="M39 0v585h136v-585h-136zM22 728q0 38 23 61.5t62 23.5t62 -23t23 -62q0 -38 -23 -61t-62 -23q-41 0 -63 22.5t-22 61.5z" />
    <glyph glyph-name="j" unicode="j" horiz-adv-x="213" 
d="M-82 -269v127q79 0 100 20.5t21 97.5v609h136v-610q0 -138 -51.5 -191t-186.5 -53h-19zM22 728q0 38 23 61.5t62 23.5t62 -23t23 -62q0 -38 -23 -61t-62 -23q-41 0 -63 22.5t-22 61.5z" />
    <glyph glyph-name="k" unicode="k" horiz-adv-x="601" 
d="M39 0v740h135v-437l249 282h162l-226 -253l234 -332h-151l-175 252l-93 -103v-149h-135z" />
    <glyph glyph-name="l" unicode="l" horiz-adv-x="214" 
d="M39 0v740h136v-740h-136z" />
    <glyph glyph-name="m" unicode="m" horiz-adv-x="998" 
d="M39 0v585h134v-68q60 80 167 80q135 0 190 -101q31 47 80.5 74t111.5 27q117 0 177.5 -64t60.5 -181v-352h-138v341q0 65 -32.5 102t-94.5 37q-57 0 -93 -39.5t-36 -113.5v-327h-137v345q0 64 -31.5 99.5t-91.5 35.5q-59 0 -95.5 -40t-36.5 -116v-324h-135z" />
    <glyph glyph-name="n" unicode="n" horiz-adv-x="619" 
d="M39 0v585h134v-72q64 84 175 84q110 0 171 -65.5t61 -184.5v-347h-137v333q0 70 -33.5 108.5t-98.5 38.5q-60 0 -98.5 -42t-38.5 -117v-321h-135z" />
    <glyph glyph-name="o" unicode="o" 
d="M323 -12q-126 0 -214.5 89t-88.5 215q0 128 88 216.5t215 88.5q126 0 214.5 -88.5t88.5 -216.5q0 -126 -88.5 -215t-214.5 -89zM323 115q72 0 121 52t49 125q0 75 -49 126.5t-121 51.5t-121 -51.5t-49 -126.5q0 -73 49 -125t121 -52z" />
    <glyph glyph-name="p" unicode="p" horiz-adv-x="668" 
d="M364 -12q-127 0 -191 81v-338h-134v854h134v-78q31 42 81 66t109 24q117 0 202.5 -83t85.5 -222q0 -137 -87 -220.5t-200 -83.5zM342 112q74 0 125 52.5t51 129.5q0 76 -51 128t-125 52q-75 0 -124.5 -52t-49.5 -128q0 -77 49.5 -129.5t124.5 -52.5z" />
    <glyph glyph-name="q" unicode="q" horiz-adv-x="671" 
d="M308 -12q-113 0 -200.5 83.5t-87.5 220.5q0 139 86 222t204 83q117 0 188 -87v75h135v-854h-136v337q-67 -80 -189 -80zM330 112q75 0 125 53t50 129t-50 128t-125 52t-126 -52t-51 -128q0 -77 51 -129.5t126 -52.5z" />
    <glyph glyph-name="r" unicode="r" horiz-adv-x="431" 
d="M39 0v585h134v-87q41 87 150 87q58 0 103 -25l-51 -128q-35 23 -81 23q-60 0 -90 -34.5t-30 -108.5v-312h-135z" />
    <glyph glyph-name="s" unicode="s" horiz-adv-x="518" 
d="M259 -12q-187 0 -260 142l125 60q43 -85 141 -85q48 0 74 20t26 51q0 7 -2 13t-7 11t-10 9t-14.5 7.5l-16.5 6t-19.5 5.5l-21 5t-23.5 5t-23 5q-35 7 -60 14.5t-54.5 21t-47.5 31t-30.5 45.5t-12.5 64q0 73 64.5 126t165.5 53q166 0 239 -121l-115 -58q-39 67 -124 67
q-45 0 -69.5 -18t-24.5 -45t28.5 -39t105.5 -29q43 -8 74 -18.5t64 -30t50.5 -51.5t17.5 -76q0 -71 -62.5 -131t-177.5 -60z" />
    <glyph glyph-name="t" unicode="t" horiz-adv-x="399" 
d="M18 464v121h100v89l136 93v-182h119v-121h-119v-219q0 -77 20.5 -97.5t98.5 -20.5v-127h-19q-136 0 -186 52t-50 192v220h-100z" />
    <glyph glyph-name="u" unicode="u" horiz-adv-x="605" 
d="M566 585v-585h-134v67q-60 -79 -168 -79q-106 0 -165.5 65.5t-59.5 184.5v347h137v-333q0 -70 31.5 -108.5t93.5 -38.5q58 0 94 42t36 117v321h135z" />
    <glyph glyph-name="v" unicode="v" horiz-adv-x="599" 
d="M232 0l-223 585h141l151 -412l148 412h139l-220 -585h-136z" />
    <glyph glyph-name="w" unicode="w" horiz-adv-x="995" 
d="M213 0l-195 585h138l129 -403l147 403h134l144 -404l134 404h137l-205 -585h-130l-148 405l-152 -405h-133z" />
    <glyph glyph-name="x" unicode="x" horiz-adv-x="614" 
d="M5 0l220 298l-212 287h165l133 -186l132 186h160l-210 -289l224 -296h-165l-143 195l-139 -195h-165z" />
    <glyph glyph-name="y" unicode="y" horiz-adv-x="618" 
d="M123 -270l123 299l-240 556h144l163 -394l154 394h142l-349 -855h-137z" />
    <glyph glyph-name="z" unicode="z" horiz-adv-x="577" 
d="M28 0v123l340 342h-333v120h509v-123l-340 -342h346v-120h-522z" />
    <glyph glyph-name="braceleft" unicode="{" horiz-adv-x="372" 
d="M346 -230h-11q-125 0 -172.5 47t-47.5 170v97q0 61 -16.5 81t-77.5 20v125q61 0 77.5 19.5t16.5 80.5v103q0 123 47.5 170t172.5 47h11v-125q-64 0 -80.5 -16t-16.5 -77v-103q0 -65 -17.5 -103.5t-57.5 -58.5q41 -20 58 -58.5t17 -103.5v-97q0 -61 16.5 -77t80.5 -16
v-125z" />
    <glyph glyph-name="bar" unicode="|" horiz-adv-x="209" 
d="M36 -230v960h136v-960h-136z" />
    <glyph glyph-name="braceright" unicode="}" horiz-adv-x="372" 
d="M26 -230v125q64 0 80.5 16t16.5 77v97q0 65 17 103.5t58 58.5q-41 20 -58 58.5t-17 103.5v103q0 61 -16.5 77t-80.5 16v125h11q125 0 172.5 -47t47.5 -170v-103q0 -61 16.5 -80.5t77.5 -19.5v-125q-61 0 -77.5 -20t-16.5 -81v-97q0 -123 -47.5 -170t-172.5 -47h-11z" />
    <glyph glyph-name="asciitilde" unicode="~" horiz-adv-x="471" 
d="M142 574h-79q0 62 27.5 98t77.5 36q36 0 76 -24q38 -24 52 -24q28 0 28 44h78q0 -63 -26.5 -98.5t-78.5 -35.5q-34 0 -87 30q-28 17 -42 17q-26 0 -26 -43z" />
    <glyph glyph-name="exclamdown" unicode="&#xa1;" horiz-adv-x="209" 
d="M37 -230v117q0 220 31 416h73q30 -189 30 -416v-117h-134zM22 430q0 37 22 59.5t60 22.5t59.5 -22.5t21.5 -59.5q0 -36 -22 -58.5t-60 -22.5t-59.5 22t-21.5 59z" />
    <glyph glyph-name="cent" unicode="&#xa2;" horiz-adv-x="588" 
d="M234 -130v130q-89 24 -146 97.5t-57 168.5t57.5 168.5t145.5 97.5v131h136v-128q67 -14 116.5 -56t76.5 -104l-121 -52q-17 43 -53 67.5t-83 24.5q-61 0 -103.5 -43.5t-42.5 -105.5t42.5 -105.5t104.5 -43.5q46 0 81.5 25t53.5 66l121 -51q-27 -62 -76.5 -104t-116.5 -56
v-127h-136z" />
    <glyph glyph-name="sterling" unicode="&#xa3;" horiz-adv-x="588" 
d="M54 329v107h56q-18 47 -18 96q0 94 60 151t162 57q177 0 223 -146l-129 -47q-21 75 -92 75q-41 0 -63.5 -24t-22.5 -64q0 -43 26 -98h193v-107h-142q36 -85 36 -158q0 -24 -8 -53q25 -20 37 -20q20 0 25.5 11.5t5.5 46.5v81h139v-77q0 -92 -29.5 -131t-106.5 -39
q-59 0 -115 47q-45 -48 -106 -48q-152 0 -152 114q0 52 33.5 85t92.5 33q46 0 84 -24q-2 12 -6.5 24.5t-14 28l-14.5 23.5t-20 29t-19 27h-115zM177 81q25 0 41 18q-29 22 -50 22t-21 -19q0 -21 30 -21z" />
    <glyph glyph-name="currency" unicode="&#xa4;" horiz-adv-x="773" 
d="M390 102q-72 0 -130 34l-127 -130l-98 96l129 131q-33 60 -33 129t35 130l-133 140l99 93l131 -136q59 33 127 33q67 0 126 -32l124 127l98 -95l-125 -128q36 -61 36 -132q0 -72 -36 -133l125 -131l-98 -95l-126 130q-56 -31 -124 -31zM390 229q54 0 91.5 39t37.5 94
t-37.5 94t-91.5 39t-91 -39t-37 -94t37 -94t91 -39z" />
    <glyph glyph-name="yen" unicode="&#xa5;" horiz-adv-x="588" 
d="M80 282v109h146v24l-203 315h152l120 -198l120 198h150l-203 -315v-24h147v-109h-147v-79h147v-110h-147v-93h-136v93h-146v110h146v79h-146z" />
    <glyph glyph-name="brokenbar" unicode="&#xa6;" horiz-adv-x="211" 
d="M36 310v420h136v-420h-136zM36 -230v420h136v-420h-136z" />
    <glyph glyph-name="section" unicode="&#xa7;" horiz-adv-x="575" 
d="M285 -10q-91 0 -158.5 45.5t-84.5 105.5l135 37q9 -34 41.5 -55t76.5 -21q41 0 62.5 12.5t21.5 33.5q0 12 -7.5 21t-30 17.5t-36 12t-53.5 12.5q-11 3 -17 4q-107 27 -161 61t-54 101q0 39 23.5 70.5t61.5 47.5q-32 38 -32 89q0 69 56 113.5t154 42.5q86 0 149.5 -41
t77.5 -97l-128 -36q-5 30 -32.5 49.5t-69.5 19.5q-80 0 -80 -45q0 -25 34 -41t105 -33q103 -23 159.5 -59.5t56.5 -100.5q0 -75 -77 -114q35 -35 35 -88q0 -69 -64 -117.5t-164 -46.5zM312 317q50 -13 71 -20q37 12 37 41q0 25 -35.5 40t-122.5 36q-35 9 -67 21
q-40 -10 -40 -43q0 -25 35.5 -40t121.5 -35z" />
    <glyph glyph-name="dieresis" unicode="&#xa8;" horiz-adv-x="473" 
d="M69 619q0 32 19.5 52t52.5 20t52.5 -19.5t19.5 -52.5t-19.5 -52t-52.5 -19t-52.5 19t-19.5 52zM260 619q0 32 19.5 52t52.5 20t52.5 -20t19.5 -52t-19.5 -51.5t-52.5 -19.5q-35 0 -53.5 19t-18.5 52z" />
    <glyph glyph-name="copyright" unicode="&#xa9;" horiz-adv-x="790" 
d="M395 -10q-156 0 -264.5 109.5t-108.5 265.5t108.5 265.5t264.5 109.5t265 -109.5t109 -265.5t-109 -265.5t-265 -109.5zM395 94q111 0 189.5 79.5t78.5 191.5t-78.5 191.5t-189.5 79.5q-113 0 -189 -79t-76 -192t76 -192t189 -79zM401 163q-89 0 -146.5 58.5t-57.5 143.5
t58.5 143.5t145.5 58.5q59 0 107.5 -30.5t70.5 -79.5q-87 -39 -89 -40l-15 -7q-6 21 -25.5 35.5t-49.5 14.5q-39 0 -66 -27.5t-27 -67.5t27 -67.5t66 -27.5q29 0 50 15.5t27 35.5l107 -37q-24 -53 -73 -87t-110 -34z" />
    <glyph glyph-name="ordfeminine" unicode="&#xaa;" horiz-adv-x="364" 
d="M151 435q-49 0 -90 38.5t-41 111.5q0 74 42 112.5t91 38.5q48 0 77 -32v26h98v-290h-98v31q-33 -36 -79 -36zM176 525q26 0 41.5 17.5t15.5 43.5q0 25 -15.5 42.5t-41.5 17.5t-43 -16.5t-17 -43.5q0 -26 17 -43.5t43 -17.5z" />
    <glyph glyph-name="guillemotleft" unicode="&#xab;" horiz-adv-x="477" 
d="M431 104l-183 114v75l183 113v-91l-100 -60l100 -59v-92zM229 104l-183 114v75l183 113v-91l-100 -60l100 -59v-92z" />
    <glyph glyph-name="logicalnot" unicode="&#xac;" horiz-adv-x="603" 
d="M432 156v231h-404v131h540v-362h-136z" />
    <glyph glyph-name="uni00AD" unicode="&#xad;" horiz-adv-x="442" 
d="M36 197v115h370v-115h-370z" />
    <glyph glyph-name="registered" unicode="&#xae;" horiz-adv-x="790" 
d="M395 -125q-156 0 -264.5 109.5t-108.5 265.5t108.5 265.5t264.5 109.5t265 -109.5t109 -265.5t-109 -265.5t-265 -109.5zM395 -21q111 0 189.5 79.5t78.5 191.5t-78.5 191.5t-189.5 79.5q-113 0 -189 -79t-76 -192t76 -192t189 -79zM236 65v374h173q78 0 124 -39.5
t46 -93.5q0 -88 -76 -116l74 -125h-125l-97 186h50q59 0 59 49q0 46 -61 46h-54v-281h-113z" />
    <glyph glyph-name="overscore" unicode="&#xaf;" horiz-adv-x="472" 
d="M105 550v86h264v-86h-264z" />
    <glyph glyph-name="degree" unicode="&#xb0;" horiz-adv-x="400" 
d="M200 387q-74 0 -125.5 51.5t-51.5 125.5q0 72 52 124t125 52q74 0 125 -51.5t51 -124.5q0 -74 -51 -125.5t-125 -51.5zM200 501q26 0 44.5 18.5t18.5 44.5t-18.5 44.5t-44.5 18.5t-44.5 -18.5t-18.5 -44.5t18.5 -44.5t44.5 -18.5z" />
    <glyph glyph-name="plusminus" unicode="&#xb1;" horiz-adv-x="442" 
d="M36 417v114h129v128h113v-128h128v-114h-128v-128h-113v128h-129zM36 117v114h370v-114h-370z" />
    <glyph glyph-name="twosuperior" unicode="&#xb2;" horiz-adv-x="330" 
d="M14 308v83q0 56 32 91t83 61l16.5 9.5l16 9t13.5 8t12.5 9l8.5 8.5t6.5 10t1.5 10q0 14 -11 23t-30 9q-40 0 -62 -54l-97 50q50 101 161 101q69 0 111.5 -35.5t42.5 -92.5q0 -53 -32.5 -86t-85.5 -60q-55 -30 -63 -42q-2 -4 -3 -8h181v-104h-302z" />
    <glyph glyph-name="threesuperior" unicode="&#xb3;" horiz-adv-x="325" 
d="M158 302q-100 0 -153 53l85 77q27 -28 61 -28q45 0 45 36q0 33 -59 33h-44v98h42q52 0 52 36q0 31 -43 31q-36 0 -52 -28l-80 69q24 26 61.5 41.5t74.5 15.5q70 0 113.5 -34t43.5 -91q0 -50 -42 -83q52 -31 52 -91q0 -58 -43 -96.5t-114 -38.5z" />
    <glyph glyph-name="acute" unicode="&#xb4;" horiz-adv-x="472" 
d="M105 550l115 170h126l-150 -170h-91z" />
    <glyph glyph-name="mu" unicode="&#xb5;" horiz-adv-x="527" 
d="M32 -230v730h136v-261q0 -133 94 -133q44 0 71.5 30.5t27.5 90.5v273h134v-500h-133v49q-49 -59 -125 -59q-36 0 -72 17v-237h-133z" />
    <glyph glyph-name="mu" unicode="&#x3bc;" horiz-adv-x="527" 
d="M32 -230v730h136v-261q0 -133 94 -133q44 0 71.5 30.5t27.5 90.5v273h134v-500h-133v49q-49 -59 -125 -59q-36 0 -72 17v-237h-133z" />
    <glyph glyph-name="paragraph" unicode="&#xb6;" horiz-adv-x="658" 
d="M329 0v302h-91q-93 0 -155 62t-62 152t62 152t154 62h385v-730h-117v604h-60v-604h-116z" />
    <glyph glyph-name="middot" unicode="&#xb7;" horiz-adv-x="207" 
d="M36 186v137h134v-137h-134z" />
    <glyph glyph-name="cedilla" unicode="&#xb8;" horiz-adv-x="472" 
d="M213 -240q-78 0 -144 59l78 47l23 -18t22.5 -11t30.5 -5q22 0 38.5 9t16.5 22q0 27 -58 27h-50v110h84v-53q55 2 85 -20t30 -60q0 -46 -45 -76.5t-111 -30.5z" />
    <glyph glyph-name="onesuperior" unicode="&#xb9;" horiz-adv-x="298" 
d="M14 308v104h81v166q-20 -26 -63 -26h-6v107h3q38 0 54 21.5t16 49.5h109v-318h78v-104h-272z" />
    <glyph glyph-name="ordmasculine" unicode="&#xba;" horiz-adv-x="339" 
d="M170 435q-62 0 -106 44t-44 106q0 63 44 107t106 44t105.5 -43.5t43.5 -107.5q0 -62 -43.5 -106t-105.5 -44zM170 528q23 0 39 17t16 40q0 24 -16 41t-39 17q-24 0 -39.5 -17t-15.5 -41t15.5 -40.5t39.5 -16.5z" />
    <glyph glyph-name="guillemotright" unicode="&#xbb;" horiz-adv-x="477" 
d="M248 104v92l100 59l-100 60v91l183 -113v-75zM46 104v92l100 59l-100 60v91l183 -113v-75z" />
    <glyph glyph-name="onequarter" unicode="&#xbc;" horiz-adv-x="854" 
d="M85 0l527 730h156l-527 -730h-156zM674 0v84h-169v99l168 239h105v-243h62v-95h-62v-84h-104zM14 308v104h81v166q-20 -26 -63 -26h-6v107h3q38 0 54 21.5t16 49.5h109v-318h78v-104h-272zM621 179h53v77z" />
    <glyph glyph-name="onehalf" unicode="&#xbd;" horiz-adv-x="870" 
d="M85 0l527 730h156l-527 -730h-156zM553 0v83q0 56 32 91t83 61l16.5 9.5l16 9t13.5 8t12.5 9l8.5 8.5t6.5 10t1.5 10q0 14 -11 23t-30 9q-40 0 -62 -54l-97 50q50 101 161 101q69 0 111.5 -35.5t42.5 -92.5q0 -53 -32.5 -86t-85.5 -60q-55 -30 -63 -42q-2 -4 -3 -8h181
v-104h-302zM14 308v104h81v166q-20 -26 -63 -26h-6v107h3q38 0 54 21.5t16 49.5h109v-318h78v-104h-272z" />
    <glyph glyph-name="threequarters" unicode="&#xbe;" horiz-adv-x="860" 
d="M92 0l527 730h156l-527 -730h-156zM680 0v84h-169v99l168 239h105v-243h62v-95h-62v-84h-104zM158 302q-100 0 -153 53l85 77q27 -28 61 -28q45 0 45 36q0 33 -59 33h-44v98h42q52 0 52 36q0 31 -43 31q-36 0 -52 -28l-80 69q24 26 61.5 41.5t74.5 15.5q70 0 113.5 -34
t43.5 -91q0 -50 -42 -83q52 -31 52 -91q0 -58 -43 -96.5t-114 -38.5zM627 179h53v77z" />
    <glyph glyph-name="questiondown" unicode="&#xbf;" horiz-adv-x="517" 
d="M263 -240q-102 0 -166.5 58t-64.5 151q0 52 19 88.5t46 58.5l53.5 43t45.5 56.5t19 85.5v11h120v-11q0 -67 -17 -115.5t-41 -73.5t-48.5 -44.5t-41.5 -44t-17 -56.5q0 -39 26 -64t69 -25q40 0 66 23.5t35 62.5l126 -43q-19 -75 -77 -118t-152 -43zM194 431q0 37 22 59.5
t60 22.5t59.5 -22.5t21.5 -59.5q0 -36 -22 -58.5t-60 -22.5t-59.5 22t-21.5 59z" />
    <glyph glyph-name="Agrave" unicode="&#xc0;" horiz-adv-x="687" 
d="M15 0l260 730h137l260 -730h-142l-45 130h-283l-45 -130h-142zM344 537l-96 -277h192zM300 780l-150 170h127l114 -170h-91z" />
    <glyph glyph-name="Aacute" unicode="&#xc1;" horiz-adv-x="687" 
d="M15 0l260 730h137l260 -730h-142l-45 130h-283l-45 -130h-142zM344 537l-96 -277h192zM297 780l115 170h126l-150 -170h-91z" />
    <glyph glyph-name="Acircumflex" unicode="&#xc2;" horiz-adv-x="687" 
d="M15 0l260 730h137l260 -730h-142l-45 130h-283l-45 -130h-142zM181 780l119 170h84l119 -170h-102l-59 89l-59 -89h-102zM344 537l-96 -277h192z" />
    <glyph glyph-name="Atilde" unicode="&#xc3;" horiz-adv-x="687" 
d="M15 0l260 730h137l260 -730h-142l-45 130h-283l-45 -130h-142zM251 780h-78q0 61 28 98t76 37q35 0 77 -24q37 -25 52 -25q28 0 28 45h78q0 -64 -26.5 -99.5t-78.5 -35.5q-9 0 -18.5 1.5t-16 3.5t-15.5 6t-12.5 6l-13 7.5t-11.5 6.5q-28 17 -43 17q-26 0 -26 -44z
M344 537l-96 -277h192z" />
    <glyph glyph-name="Adieresis" unicode="&#xc4;" horiz-adv-x="687" 
d="M15 0l260 730h137l260 -730h-142l-45 130h-283l-45 -130h-142zM344 537l-96 -277h192zM176 849q0 32 19.5 52t52.5 20t52.5 -19.5t19.5 -52.5t-19 -52t-53 -19t-53 19t-19 52zM367 849q0 32 19.5 52t52.5 20t52.5 -20t19.5 -52t-19.5 -51.5t-52.5 -19.5q-35 0 -53.5 19
t-18.5 52z" />
    <glyph glyph-name="Aring" unicode="&#xc5;" horiz-adv-x="687" 
d="M15 0l245 688q-33 35 -33 82q0 50 34 84t82 34q49 0 83 -34t34 -84q0 -48 -34 -82l246 -688h-142l-45 130h-283l-45 -130h-142zM344 537l-96 -277h192zM343 731q17 0 29 11.5t12 27.5q0 17 -12 29t-29 12t-28.5 -12t-11.5 -29q0 -16 11.5 -27.5t28.5 -11.5z" />
    <glyph glyph-name="AE" unicode="&#xc6;" horiz-adv-x="938" 
d="M13 0l333 730h558v-130h-386l42 -168h344v-130h-311l43 -172h268v-130h-378l-32 129h-281l-58 -129h-142zM395 534l-126 -279h194z" />
    <glyph glyph-name="Ccedilla" unicode="&#xc7;" horiz-adv-x="738" 
d="M388 -240q-78 0 -144 59l78 47l23 -18t22.5 -11t30.5 -5q22 0 38.5 9t16.5 22q0 27 -58 27h-50v104q-145 18 -234 121.5t-89 249.5q0 162 108 268.5t267 106.5q101 0 186 -49t134 -132l-119 -76q-70 123 -201 123q-104 0 -172 -69t-68 -172q0 -100 68 -169.5t169 -69.5
q143 0 210 137l124 -65q-46 -89 -123.5 -143.5t-175.5 -62.5v-45q55 2 85 -20t30 -60q0 -46 -45 -76.5t-111 -30.5z" />
    <glyph glyph-name="Egrave" unicode="&#xc8;" horiz-adv-x="509" 
d="M42 0v730h433v-130h-297v-168h297v-130h-297v-172h297v-130h-433zM222 780l-150 170h127l114 -170h-91z" />
    <glyph glyph-name="Eacute" unicode="&#xc9;" horiz-adv-x="509" 
d="M42 0v730h433v-130h-297v-168h297v-130h-297v-172h297v-130h-433zM202 780l115 170h126l-150 -170h-91z" />
    <glyph glyph-name="Ecircumflex" unicode="&#xca;" horiz-adv-x="509" 
d="M42 0v730h433v-130h-297v-168h297v-130h-297v-172h297v-130h-433zM97 780l119 170h84l119 -170h-102l-59 89l-59 -89h-102z" />
    <glyph glyph-name="Edieresis" unicode="&#xcb;" horiz-adv-x="509" 
d="M42 0v730h433v-130h-297v-168h297v-130h-297v-172h297v-130h-433zM95 849q0 32 19.5 52t52.5 20t52.5 -19.5t19.5 -52.5t-19.5 -52t-52.5 -19t-52.5 19t-19.5 52zM286 849q0 32 19.5 52t52.5 20t52.5 -20t19.5 -52t-19.5 -51.5t-52.5 -19.5q-35 0 -53.5 19t-18.5 52z" />
    <glyph glyph-name="Igrave" unicode="&#xcc;" horiz-adv-x="230" 
d="M47 0v730h136v-730h-136zM70 780l-150 170h127l114 -170h-91z" />
    <glyph glyph-name="Iacute" unicode="&#xcd;" horiz-adv-x="230" 
d="M47 0v730h136v-730h-136zM70 780l115 170h126l-150 -170h-91z" />
    <glyph glyph-name="Icircumflex" unicode="&#xce;" horiz-adv-x="230" 
d="M47 0v730h136v-730h-136zM-46 780l119 170h84l119 -170h-102l-59 89l-59 -89h-102z" />
    <glyph glyph-name="Idieresis" unicode="&#xcf;" horiz-adv-x="230" 
d="M152 781v137h134v-137h-134zM-55 781v137h134v-137h-134zM47 0v730h136v-730h-136z" />
    <glyph glyph-name="Eth" unicode="&#xd0;" horiz-adv-x="695" 
d="M20 309v115h69v306h199q180 0 283 -102.5t103 -262.5q0 -157 -107 -261t-273 -104h-205v309h-69zM272 604h-47v-180h165v-115h-165v-183h53q118 0 189 67.5t71 171.5q0 109 -67.5 174t-198.5 65z" />
    <glyph glyph-name="Ntilde" unicode="&#xd1;" horiz-adv-x="690" 
d="M42 0v730h154l316 -497v497h136v-730h-145l-325 513v-513h-136zM252 780h-78q0 61 28 98t76 37q35 0 77 -24q37 -25 52 -25q28 0 28 45h78q0 -64 -26.5 -99.5t-78.5 -35.5q-9 0 -18.5 1.5t-16 3.5t-15.5 6t-12.5 6l-13 7.5t-11.5 6.5q-28 17 -43 17q-26 0 -26 -44z" />
    <glyph glyph-name="Ograve" unicode="&#xd2;" horiz-adv-x="790" 
d="M395 -10q-156 0 -264.5 109.5t-108.5 265.5t108.5 265.5t264.5 109.5t265 -109.5t109 -265.5t-109 -265.5t-265 -109.5zM395 124q100 0 169.5 70.5t69.5 170.5t-69.5 170.5t-169.5 70.5q-99 0 -168.5 -70.5t-69.5 -170.5t69.5 -170.5t168.5 -70.5zM349 780l-150 170h127
l114 -170h-91z" />
    <glyph glyph-name="Oacute" unicode="&#xd3;" horiz-adv-x="790" 
d="M343 780l115 170h126l-150 -170h-91zM395 -10q-156 0 -264.5 109.5t-108.5 265.5t108.5 265.5t264.5 109.5t265 -109.5t109 -265.5t-109 -265.5t-265 -109.5zM395 124q100 0 169.5 70.5t69.5 170.5t-69.5 170.5t-169.5 70.5q-99 0 -168.5 -70.5t-69.5 -170.5t69.5 -170.5
t168.5 -70.5z" />
    <glyph glyph-name="Ocircumflex" unicode="&#xd4;" horiz-adv-x="790" 
d="M395 -10q-156 0 -264.5 109.5t-108.5 265.5t108.5 265.5t264.5 109.5t265 -109.5t109 -265.5t-109 -265.5t-265 -109.5zM395 124q100 0 169.5 70.5t69.5 170.5t-69.5 170.5t-169.5 70.5q-99 0 -168.5 -70.5t-69.5 -170.5t69.5 -170.5t168.5 -70.5zM230 780l119 170h84
l119 -170h-102l-59 89l-59 -89h-102z" />
    <glyph glyph-name="Otilde" unicode="&#xd5;" horiz-adv-x="790" 
d="M395 -10q-156 0 -264.5 109.5t-108.5 265.5t108.5 265.5t264.5 109.5t265 -109.5t109 -265.5t-109 -265.5t-265 -109.5zM395 124q100 0 169.5 70.5t69.5 170.5t-69.5 170.5t-169.5 70.5q-99 0 -168.5 -70.5t-69.5 -170.5t69.5 -170.5t168.5 -70.5zM298 780h-78
q0 61 28 98t76 37q35 0 77 -24q37 -25 52 -25q28 0 28 45h78q0 -64 -26.5 -99.5t-78.5 -35.5q-9 0 -18.5 1.5t-16 3.5t-15.5 6t-12.5 6l-13 7.5t-11.5 6.5q-28 17 -43 17q-26 0 -26 -44z" />
    <glyph glyph-name="Odieresis" unicode="&#xd6;" horiz-adv-x="790" 
d="M221 849q0 32 19.5 52t52.5 20t52.5 -19.5t19.5 -52.5t-19.5 -52t-52.5 -19t-52.5 19t-19.5 52zM412 849q0 32 19.5 52t52.5 20t52.5 -20t19.5 -52t-19.5 -51.5t-52.5 -19.5q-35 0 -53.5 19t-18.5 52zM395 -10q-156 0 -264.5 109.5t-108.5 265.5t108.5 265.5t264.5 109.5
t265 -109.5t109 -265.5t-109 -265.5t-265 -109.5zM395 124q100 0 169.5 70.5t69.5 170.5t-69.5 170.5t-169.5 70.5q-99 0 -168.5 -70.5t-69.5 -170.5t69.5 -170.5t168.5 -70.5z" />
    <glyph glyph-name="multiply" unicode="&#xd7;" horiz-adv-x="442" 
d="M116 179l-79 79l105 105l-106 106l79 79l106 -106l106 106l79 -79l-106 -106l105 -105l-79 -79l-105 105z" />
    <glyph glyph-name="Oslash" unicode="&#xd8;" horiz-adv-x="790" 
d="M24 0l92 114q-94 107 -94 251q0 156 108.5 265.5t264.5 109.5q96 0 186 -50l33 40h157l-95 -117q93 -106 93 -248q0 -156 -109 -265.5t-265 -109.5q-99 0 -184 48l-30 -38h-157zM157 365q0 -81 46 -144l292 362q-49 23 -100 23q-99 0 -168.5 -70.5t-69.5 -170.5zM395 124
q100 0 169.5 70.5t69.5 170.5q0 77 -45 140l-291 -361q46 -20 97 -20z" />
    <glyph glyph-name="Ugrave" unicode="&#xd9;" horiz-adv-x="608" 
d="M304 -10q-118 0 -190.5 68.5t-72.5 193.5v478h136v-486q0 -54 36 -91t90 -37q53 0 90.5 37t37.5 91v486h136v-478q0 -125 -73 -193.5t-190 -68.5zM267 780l-150 170h127l114 -170h-91z" />
    <glyph glyph-name="Uacute" unicode="&#xda;" horiz-adv-x="608" 
d="M250 780l115 170h126l-150 -170h-91zM304 -10q-118 0 -190.5 68.5t-72.5 193.5v478h136v-486q0 -54 36 -91t90 -37q53 0 90.5 37t37.5 91v486h136v-478q0 -125 -73 -193.5t-190 -68.5z" />
    <glyph glyph-name="Ucircumflex" unicode="&#xdb;" horiz-adv-x="608" 
d="M304 -10q-118 0 -190.5 68.5t-72.5 193.5v478h136v-486q0 -54 36 -91t90 -37q53 0 90.5 37t37.5 91v486h136v-478q0 -125 -73 -193.5t-190 -68.5zM143 780l119 170h84l119 -170h-102l-59 89l-59 -89h-102z" />
    <glyph glyph-name="Udieresis" unicode="&#xdc;" horiz-adv-x="608" 
d="M141 849q0 32 19.5 52t52.5 20t52.5 -19.5t19.5 -52.5t-19.5 -52t-52.5 -19t-52.5 19t-19.5 52zM332 849q0 32 19.5 52t52.5 20t52.5 -20t19.5 -52t-19.5 -51.5t-52.5 -19.5q-35 0 -53.5 19t-18.5 52zM304 -10q-118 0 -190.5 68.5t-72.5 193.5v478h136v-486q0 -54 36 -91
t90 -37q53 0 90.5 37t37.5 91v486h136v-478q0 -125 -73 -193.5t-190 -68.5z" />
    <glyph glyph-name="Yacute" unicode="&#xdd;" horiz-adv-x="629" 
d="M245 0v346l-232 384h150l151 -253l152 253h150l-235 -387v-343h-136zM264 780l115 170h126l-150 -170h-91z" />
    <glyph glyph-name="Thorn" unicode="&#xde;" horiz-adv-x="558" 
d="M42 0v730h136v-127h121q101 0 166.5 -67t65.5 -165t-66 -165t-167 -67h-120v-139h-136zM291 477h-113v-212h113q47 0 76 30t29 76q0 45 -29 75.5t-76 30.5z" />
    <glyph glyph-name="germandbls" unicode="&#xdf;" horiz-adv-x="589" 
d="M-80 -269v127q75 0 97 23t22 95v625q-4 114 63 183.5t189 69.5q110 0 179.5 -66t69.5 -169q0 -61 -30.5 -107t-85.5 -69q65 -21 105.5 -74t40.5 -124q0 -113 -73 -184.5t-191 -71.5q-51 0 -79 11v122q14 -11 77 -11q54 0 91 38t37 95q0 55 -43 93t-114 38h-26v123h26
q59 0 96 34.5t37 87.5q0 51 -32.5 85.5t-85.5 34.5q-58 0 -90.5 -31.5t-32.5 -93.5v-639q0 -137 -49 -191t-177 -54h-21z" />
    <glyph glyph-name="agrave" unicode="&#xe0;" horiz-adv-x="671" 
d="M308 -12q-113 0 -200.5 83.5t-87.5 220.5q0 139 86 222t204 83q119 0 188 -82v70h135v-585h-135v76q-32 -41 -82 -64.5t-108 -23.5zM330 112q75 0 125 53t50 129t-50 128t-125 52t-126 -52t-51 -128q0 -77 51 -129.5t126 -52.5zM286 645l-150 170h127l114 -170h-91z" />
    <glyph glyph-name="aacute" unicode="&#xe1;" horiz-adv-x="671" 
d="M308 -12q-113 0 -200.5 83.5t-87.5 220.5q0 139 86 222t204 83q119 0 188 -82v70h135v-585h-135v76q-32 -41 -82 -64.5t-108 -23.5zM330 112q75 0 125 53t50 129t-50 128t-125 52t-126 -52t-51 -128q0 -77 51 -129.5t126 -52.5zM271 645l115 170h126l-150 -170h-91z" />
    <glyph glyph-name="acircumflex" unicode="&#xe2;" horiz-adv-x="671" 
d="M308 -12q-113 0 -200.5 83.5t-87.5 220.5q0 139 86 222t204 83q119 0 188 -82v70h135v-585h-135v76q-32 -41 -82 -64.5t-108 -23.5zM330 112q75 0 125 53t50 129t-50 128t-125 52t-126 -52t-51 -128q0 -77 51 -129.5t126 -52.5zM149 642l119 170h84l119 -170h-102l-59 89
l-59 -89h-102z" />
    <glyph glyph-name="atilde" unicode="&#xe3;" horiz-adv-x="671" 
d="M308 -12q-113 0 -200.5 83.5t-87.5 220.5q0 139 86 222t204 83q119 0 188 -82v70h135v-585h-135v76q-32 -41 -82 -64.5t-108 -23.5zM330 112q75 0 125 53t50 129t-50 128t-125 52t-126 -52t-51 -128q0 -77 51 -129.5t126 -52.5zM241 645h-78q0 61 28 98t76 37
q35 0 77 -24q37 -25 52 -25q28 0 28 45h78q0 -64 -26.5 -99.5t-78.5 -35.5q-9 0 -18.5 1.5t-16 3.5t-15.5 6t-12.5 6l-13 7.5t-11.5 6.5q-28 17 -43 17q-26 0 -26 -44z" />
    <glyph glyph-name="adieresis" unicode="&#xe4;" horiz-adv-x="671" 
d="M308 -12q-113 0 -200.5 83.5t-87.5 220.5q0 139 86 222t204 83q119 0 188 -82v70h135v-585h-135v76q-32 -41 -82 -64.5t-108 -23.5zM330 112q75 0 125 53t50 129t-50 128t-125 52t-126 -52t-51 -128q0 -77 51 -129.5t126 -52.5zM156 713q0 32 19.5 52t52.5 20t52.5 -19.5
t19.5 -52.5t-19 -52t-53 -19t-53 19t-19 52zM347 713q0 32 19.5 52t52.5 20t52.5 -20t19.5 -52t-19.5 -51.5t-52.5 -19.5q-35 0 -53.5 19t-18.5 52z" />
    <glyph glyph-name="aring" unicode="&#xe5;" horiz-adv-x="671" 
d="M308 -12q-113 0 -200.5 83.5t-87.5 220.5q0 139 86 222t204 83q119 0 188 -82v70h135v-585h-135v76q-32 -41 -82 -64.5t-108 -23.5zM330 112q75 0 125 53t50 129t-50 128t-125 52t-126 -52t-51 -128q0 -77 51 -129.5t126 -52.5zM329 640q-48 0 -82 34t-34 82q0 50 34 84
t82 34q49 0 83 -34t34 -84q0 -48 -34 -82t-83 -34zM329 717q17 0 29 11.5t12 27.5q0 17 -12 29t-29 12t-28.5 -12t-11.5 -29q0 -16 11.5 -27.5t28.5 -11.5z" />
    <glyph glyph-name="ae" unicode="&#xe6;" horiz-adv-x="1035" 
d="M719 -12q-166 0 -250 123q-32 -53 -96 -88t-143 -35q-106 0 -159 45.5t-53 120.5q0 76 50.5 119t142.5 65q17 4 56.5 14t56.5 15t40.5 14t33 20.5t9.5 25.5q0 28 -28 45.5t-80 17.5q-69 0 -105 -31t-36 -79v-3h-124v2q0 104 68 161t191 57q149 0 210 -85q85 85 210 85
q129 0 215.5 -86t86.5 -215v-47h-477q12 -65 60 -103.5t121 -38.5q56 0 100.5 29t65.5 77l114 -49q-37 -82 -110.5 -129t-169.5 -47zM237 100q66 0 117 46t58 89q0 56 -2 59q-9 -24 -134 -52q-67 -15 -95 -33t-28 -51q0 -58 84 -58zM713 478q-59 0 -102 -31.5t-64 -84.5h330
q-17 56 -60 86t-104 30z" />
    <glyph glyph-name="ccedilla" unicode="&#xe7;" horiz-adv-x="617" 
d="M316 -245q-78 0 -144 59l78 47l23 -18t22.5 -11t30.5 -5q22 0 38.5 9t16.5 22q0 27 -58 27h-50v107q-110 18 -181.5 102.5t-71.5 197.5q0 128 88 216.5t216 88.5q96 0 170 -49.5t109 -131.5l-121 -51q-20 49 -62 77t-95 28q-74 0 -123.5 -51.5t-49.5 -126.5
q0 -74 50 -125.5t124 -51.5q55 0 96 29.5t62 79.5l121 -52q-33 -78 -96.5 -126t-151.5 -56v-48q55 2 85 -20t30 -60q0 -46 -45 -76.5t-111 -30.5z" />
    <glyph glyph-name="egrave" unicode="&#xe8;" 
d="M329 -12q-136 0 -222.5 87t-86.5 216q0 128 88 217t216 89q130 0 215.5 -85.5t85.5 -215.5v-51h-476q15 -63 62 -100.5t118 -37.5q56 0 98.5 27.5t63.5 75.5l111 -64q-85 -158 -273 -158zM324 478q-60 0 -105 -32.5t-63 -87.5h332q-15 59 -57.5 89.5t-106.5 30.5z
M306 640l-150 170h127l114 -170h-91z" />
    <glyph glyph-name="eacute" unicode="&#xe9;" 
d="M329 -12q-136 0 -222.5 87t-86.5 216q0 128 88 217t216 89q130 0 215.5 -85.5t85.5 -215.5v-51h-476q15 -63 62 -100.5t118 -37.5q56 0 98.5 27.5t63.5 75.5l111 -64q-85 -158 -273 -158zM324 478q-60 0 -105 -32.5t-63 -87.5h332q-15 59 -57.5 89.5t-106.5 30.5z
M279 645l115 170h126l-150 -170h-91z" />
    <glyph glyph-name="ecircumflex" unicode="&#xea;" 
d="M329 -12q-136 0 -222.5 87t-86.5 216q0 128 88 217t216 89q130 0 215.5 -85.5t85.5 -215.5v-51h-476q15 -63 62 -100.5t118 -37.5q56 0 98.5 27.5t63.5 75.5l111 -64q-85 -158 -273 -158zM324 478q-60 0 -105 -32.5t-63 -87.5h332q-15 59 -57.5 89.5t-106.5 30.5z
M168 639l119 170h84l119 -170h-102l-59 89l-59 -89h-102z" />
    <glyph glyph-name="edieresis" unicode="&#xeb;" 
d="M329 -12q-136 0 -222.5 87t-86.5 216q0 128 88 217t216 89q130 0 215.5 -85.5t85.5 -215.5v-51h-476q15 -63 62 -100.5t118 -37.5q56 0 98.5 27.5t63.5 75.5l111 -64q-85 -158 -273 -158zM324 478q-60 0 -105 -32.5t-63 -87.5h332q-15 59 -57.5 89.5t-106.5 30.5z
M156 703q0 32 19.5 52t52.5 20t52.5 -19.5t19.5 -52.5t-19 -52t-53 -19t-53 19t-19 52zM347 703q0 32 19.5 52t52.5 20t52.5 -20t19.5 -52t-19.5 -51.5t-52.5 -19.5q-35 0 -53.5 19t-18.5 52z" />
    <glyph glyph-name="igrave" unicode="&#xec;" horiz-adv-x="214" 
d="M39 0v585h136v-585h-136zM59 635l-150 170h127l114 -170h-91z" />
    <glyph glyph-name="iacute" unicode="&#xed;" horiz-adv-x="214" 
d="M55 635l115 170h126l-150 -170h-91zM39 0v585h136v-585h-136z" />
    <glyph glyph-name="icircumflex" unicode="&#xee;" horiz-adv-x="214" 
d="M39 0v585h136v-585h-136zM-51 635l119 170h84l119 -170h-102l-59 89l-59 -89h-102z" />
    <glyph glyph-name="idieresis" unicode="&#xef;" horiz-adv-x="214" 
d="M145 630v161h135v-161h-135zM-68 630v161h136v-161h-136zM39 0v585h136v-585h-136z" />
    <glyph glyph-name="eth" unicode="&#xf0;" horiz-adv-x="661" 
d="M116 626l133 92q-71 55 -160 116h193q13 -10 61 -50l71 50h126l-140 -99q124 -114 175.5 -216t51.5 -227q0 -124 -88.5 -214t-215.5 -90q-125 0 -214 87.5t-89 221.5q0 124 86 211t199 87q68 0 111 -32q-40 53 -108 108l-64 -45h-128zM323 115q72 0 121 52t49 125
q0 75 -49 126.5t-121 51.5t-121 -51.5t-49 -126.5q0 -73 49 -125t121 -52z" />
    <glyph glyph-name="ntilde" unicode="&#xf1;" horiz-adv-x="618" 
d="M39 0v585h134v-72q64 84 175 84q110 0 171 -65.5t61 -184.5v-347h-137v333q0 70 -33.5 108.5t-98.5 38.5q-60 0 -98.5 -42t-38.5 -117v-321h-135zM245 646h-78q0 61 28 98t76 37q35 0 77 -24q37 -25 52 -25q28 0 28 45h78q0 -64 -26.5 -99.5t-78.5 -35.5q-9 0 -18.5 1.5
t-16 3.5t-15.5 6t-12.5 6l-13 7.5t-11.5 6.5q-28 17 -43 17q-26 0 -26 -44z" />
    <glyph glyph-name="ograve" unicode="&#xf2;" 
d="M323 -12q-126 0 -214.5 89t-88.5 215q0 93 51.5 170t133.5 111l-129 147h127l84 -125q24 2 36 2q126 0 214.5 -88.5t88.5 -216.5q0 -126 -88.5 -215t-214.5 -89zM323 115q72 0 121 52t49 125q0 75 -49 126.5t-121 51.5t-121 -51.5t-49 -126.5q0 -73 49 -125t121 -52z" />
    <glyph glyph-name="oacute" unicode="&#xf3;" 
d="M277 645l115 170h126l-150 -170h-91zM323 -12q-126 0 -214.5 89t-88.5 215q0 128 88 216.5t215 88.5q126 0 214.5 -88.5t88.5 -216.5q0 -126 -88.5 -215t-214.5 -89zM323 115q72 0 121 52t49 125q0 75 -49 126.5t-121 51.5t-121 -51.5t-49 -126.5q0 -73 49 -125t121 -52z
" />
    <glyph glyph-name="ocircumflex" unicode="&#xf4;" 
d="M323 -12q-126 0 -214.5 89t-88.5 215q0 128 88 216.5t215 88.5q126 0 214.5 -88.5t88.5 -216.5q0 -126 -88.5 -215t-214.5 -89zM323 115q72 0 121 52t49 125q0 75 -49 126.5t-121 51.5t-121 -51.5t-49 -126.5q0 -73 49 -125t121 -52zM165 635l119 170h84l119 -170h-102
l-59 89l-59 -89h-102z" />
    <glyph glyph-name="otilde" unicode="&#xf5;" 
d="M323 -12q-126 0 -214.5 89t-88.5 215q0 128 88 216.5t215 88.5q126 0 214.5 -88.5t88.5 -216.5q0 -126 -88.5 -215t-214.5 -89zM323 115q72 0 121 52t49 125q0 75 -49 126.5t-121 51.5t-121 -51.5t-49 -126.5q0 -73 49 -125t121 -52zM243 643h-78q0 61 28 98t76 37
q35 0 77 -24q37 -25 52 -25q28 0 28 45h78q0 -64 -26.5 -99.5t-78.5 -35.5q-9 0 -18.5 1.5t-16 3.5t-15.5 6t-12.5 6l-13 7.5t-11.5 6.5q-28 17 -43 17q-26 0 -26 -44z" />
    <glyph glyph-name="odieresis" unicode="&#xf6;" 
d="M154 703q0 32 19.5 52t52.5 20t52.5 -19.5t19.5 -52.5t-19 -52t-53 -19t-53 19t-19 52zM345 703q0 32 19.5 52t52.5 20t52.5 -20t19.5 -52t-19.5 -51.5t-52.5 -19.5q-35 0 -53.5 19t-18.5 52zM323 -12q-126 0 -214.5 89t-88.5 215q0 128 88 216.5t215 88.5
q126 0 214.5 -88.5t88.5 -216.5q0 -126 -88.5 -215t-214.5 -89zM323 115q72 0 121 52t49 125q0 75 -49 126.5t-121 51.5t-121 -51.5t-49 -126.5q0 -73 49 -125t121 -52z" />
    <glyph glyph-name="divide" unicode="&#xf7;" horiz-adv-x="442" 
d="M36 307v115h370v-115h-370zM165 462v117h114v-117h-114zM165 151v116h114v-116h-114z" />
    <glyph glyph-name="oslash" unicode="&#xf8;" 
d="M323 -12q-78 0 -145 36l-19 -24h-139l73 92q-73 82 -73 200q0 128 88 216.5t215 88.5q76 0 143 -36l19 24h139l-73 -92q75 -85 75 -201q0 -126 -88.5 -215t-214.5 -89zM323 115q72 0 121.5 52t49.5 125q0 52 -27 96l-207 -261q28 -12 63 -12zM152 292q0 -53 25 -94
l207 260q-29 12 -61 12q-73 0 -122 -51.5t-49 -126.5z" />
    <glyph glyph-name="ugrave" unicode="&#xf9;" horiz-adv-x="608" 
d="M569 585v-585h-134v67q-60 -79 -168 -79q-106 0 -165.5 65.5t-59.5 184.5v347h137v-333q0 -70 31.5 -108.5t93.5 -38.5q58 0 94 42t36 117v321h135zM268 627l-150 170h127l114 -170h-91z" />
    <glyph glyph-name="uacute" unicode="&#xfa;" horiz-adv-x="608" 
d="M569 585v-585h-134v67q-60 -79 -168 -79q-106 0 -165.5 65.5t-59.5 184.5v347h137v-333q0 -70 31.5 -108.5t93.5 -38.5q58 0 94 42t36 117v321h135zM249 624l115 170h126l-150 -170h-91z" />
    <glyph glyph-name="ucircumflex" unicode="&#xfb;" horiz-adv-x="608" 
d="M569 585v-585h-134v67q-60 -79 -168 -79q-106 0 -165.5 65.5t-59.5 184.5v347h137v-333q0 -70 31.5 -108.5t93.5 -38.5q58 0 94 42t36 117v321h135zM141 635l119 170h84l119 -170h-102l-59 89l-59 -89h-102z" />
    <glyph glyph-name="udieresis" unicode="&#xfc;" horiz-adv-x="608" 
d="M569 585v-585h-134v67q-60 -79 -168 -79q-106 0 -165.5 65.5t-59.5 184.5v347h137v-333q0 -70 31.5 -108.5t93.5 -38.5q58 0 94 42t36 117v321h135zM138 703q0 32 19.5 52t52.5 20t52.5 -19.5t19.5 -52.5t-19 -52t-53 -19t-53 19t-19 52zM329 703q0 32 19.5 52t52.5 20
t52.5 -20t19.5 -52t-19.5 -51.5t-52.5 -19.5q-35 0 -53.5 19t-18.5 52z" />
    <glyph glyph-name="yacute" unicode="&#xfd;" horiz-adv-x="618" 
d="M123 -270l123 299l-240 556h144l163 -394l154 394h142l-349 -855h-137zM257 611l115 170h126l-150 -170h-91z" />
    <glyph glyph-name="thorn" unicode="&#xfe;" horiz-adv-x="670" 
d="M365 -12q-123 0 -192 92v-349h-134v1123h134v-348q70 91 192 91q117 0 201 -82t84 -220q0 -139 -85.5 -223t-199.5 -84zM343 112q76 0 126 53t50 130q0 75 -50 127t-126 52q-74 0 -124 -52t-50 -128q0 -75 50 -128.5t124 -53.5z" />
    <glyph glyph-name="ydieresis" unicode="&#xff;" horiz-adv-x="618" 
d="M123 -270l123 299l-240 556h144l163 -394l154 394h142l-349 -855h-137zM144 703q0 32 19.5 52t52.5 20t52.5 -19.5t19.5 -52.5t-19 -52t-53 -19t-53 19t-19 52zM335 703q0 32 19.5 52t52.5 20t52.5 -20t19.5 -52t-19.5 -51.5t-52.5 -19.5q-35 0 -53.5 19t-18.5 52z" />
    <glyph glyph-name="Amacron" unicode="&#x100;" horiz-adv-x="687" 
d="M15 0l260 730h137l260 -730h-142l-45 130h-283l-45 -130h-142zM344 537l-96 -277h192zM213 780v86h264v-86h-264z" />
    <glyph glyph-name="amacron" unicode="&#x101;" horiz-adv-x="671" 
d="M308 -12q-113 0 -200.5 83.5t-87.5 220.5q0 139 86 222t204 83q119 0 188 -82v70h135v-585h-135v76q-32 -41 -82 -64.5t-108 -23.5zM330 112q75 0 125 53t50 129t-50 128t-125 52t-126 -52t-51 -128q0 -77 51 -129.5t126 -52.5zM203 646v86h264v-86h-264z" />
    <glyph glyph-name="Abreve" unicode="&#x102;" horiz-adv-x="687" 
d="M15 0l260 730h137l260 -730h-142l-45 130h-283l-45 -130h-142zM343 775q-79 0 -120 47t-41 123h85q0 -91 76 -96q76 5 76 96h86q0 -74 -44 -122t-118 -48zM344 537l-96 -277h192z" />
    <glyph glyph-name="abreve" unicode="&#x103;" horiz-adv-x="671" 
d="M308 -12q-113 0 -200.5 83.5t-87.5 220.5q0 139 86 222t204 83q119 0 188 -82v70h135v-585h-135v76q-32 -41 -82 -64.5t-108 -23.5zM330 112q75 0 125 53t50 129t-50 128t-125 52t-126 -52t-51 -128q0 -77 51 -129.5t126 -52.5zM323 643q-79 0 -120 47t-41 123h85
q0 -91 76 -96q76 5 76 96h86q0 -74 -44 -122t-118 -48z" />
    <glyph glyph-name="Aogonek" unicode="&#x104;" horiz-adv-x="687" 
d="M585 -227q-64 0 -104 31t-40 78q0 69 87 124l-43 124h-283l-45 -130h-142l260 730h137l260 -730q-85 -56 -107.5 -75t-22.5 -38q0 -31 43 -31q6 0 11 0.5t10 2.5t8 3.5t8 5l7 5t8 6.5t8 6l79 -54q-27 -25 -65.5 -41.5t-73.5 -16.5zM344 537l-96 -277h192z" />
    <glyph glyph-name="aogonek" unicode="&#x105;" horiz-adv-x="671" 
d="M308 -12q-113 0 -200.5 83.5t-87.5 220.5q0 139 86 222t204 83q119 0 188 -82v70h135v-585h1q-105 -65 -105 -111q0 -33 38 -33q26 0 50 30l79 -55q-58 -60 -134 -60q-58 0 -94.5 30.5t-37.5 77.5q-1 66 68 124v73q-32 -41 -82 -64.5t-108 -23.5zM330 112q75 0 125 53
t50 129t-50 128t-125 52t-126 -52t-51 -128q0 -77 51 -129.5t126 -52.5z" />
    <glyph glyph-name="Cacute" unicode="&#x106;" horiz-adv-x="738" 
d="M349 780l115 170h126l-150 -170h-91zM397 -10q-166 0 -270.5 108t-104.5 267q0 162 108 268.5t267 106.5q101 0 186 -49t134 -132l-119 -76q-70 123 -201 123q-104 0 -172 -69t-68 -172q0 -100 68 -169.5t169 -69.5q143 0 210 137l124 -65q-49 -95 -137 -151.5
t-194 -56.5z" />
    <glyph glyph-name="cacute" unicode="&#x107;" horiz-adv-x="617" 
d="M276 645l115 170h126l-150 -170h-91zM324 -12q-128 0 -216 88.5t-88 215.5q0 128 88 216.5t216 88.5q96 0 170 -49.5t109 -131.5l-121 -51q-20 49 -62 77t-95 28q-74 0 -123.5 -51.5t-49.5 -126.5q0 -74 50 -125.5t124 -51.5q55 0 96 29.5t62 79.5l121 -52
q-36 -84 -109 -134t-172 -50z" />
    <glyph glyph-name="Ccircumflex" unicode="&#x108;" horiz-adv-x="738" 
d="M397 -10q-166 0 -270.5 108t-104.5 267q0 162 108 268.5t267 106.5q101 0 186 -49t134 -132l-119 -76q-70 123 -201 123q-104 0 -172 -69t-68 -172q0 -100 68 -169.5t169 -69.5q143 0 210 137l124 -65q-49 -95 -137 -151.5t-194 -56.5zM240 780l119 170h84l119 -170h-102
l-59 89l-59 -89h-102z" />
    <glyph glyph-name="ccircumflex" unicode="&#x109;" horiz-adv-x="617" 
d="M324 -12q-128 0 -216 88.5t-88 215.5q0 128 88 216.5t216 88.5q96 0 170 -49.5t109 -131.5l-121 -51q-20 49 -62 77t-95 28q-74 0 -123.5 -51.5t-49.5 -126.5q0 -74 50 -125.5t124 -51.5q55 0 96 29.5t62 79.5l121 -52q-36 -84 -109 -134t-172 -50zM164 639l119 170h84
l119 -170h-102l-59 89l-59 -89h-102z" />
    <glyph glyph-name="Cdotaccent" unicode="&#x10a;" horiz-adv-x="738" 
d="M397 -10q-166 0 -270.5 108t-104.5 267q0 162 108 268.5t267 106.5q101 0 186 -49t134 -132l-119 -76q-70 123 -201 123q-104 0 -172 -69t-68 -172q0 -100 68 -169.5t169 -69.5q143 0 210 137l124 -65q-49 -95 -137 -151.5t-194 -56.5zM324 849q0 35 21.5 57t57.5 22
t57.5 -21.5t21.5 -57.5q0 -35 -21 -56.5t-58 -21.5q-38 0 -58.5 21t-20.5 57z" />
    <glyph glyph-name="cdotaccent" unicode="&#x10b;" horiz-adv-x="617" 
d="M324 -12q-128 0 -216 88.5t-88 215.5q0 128 88 216.5t216 88.5q96 0 170 -49.5t109 -131.5l-121 -51q-20 49 -62 77t-95 28q-74 0 -123.5 -51.5t-49.5 -126.5q0 -74 50 -125.5t124 -51.5q55 0 96 29.5t62 79.5l121 -52q-36 -84 -109 -134t-172 -50zM244 713q0 35 21.5 57
t57.5 22t57.5 -21.5t21.5 -57.5q0 -35 -21 -56.5t-58 -21.5q-38 0 -58.5 21t-20.5 57z" />
    <glyph glyph-name="Ccaron" unicode="&#x10c;" horiz-adv-x="738" 
d="M397 -10q-166 0 -270.5 108t-104.5 267q0 162 108 268.5t267 106.5q101 0 186 -49t134 -132l-119 -76q-70 123 -201 123q-104 0 -172 -69t-68 -172q0 -100 68 -169.5t169 -69.5q143 0 210 137l124 -65q-49 -95 -137 -151.5t-194 -56.5zM356 780l-119 170h102l59 -89
l59 89h102l-119 -170h-84z" />
    <glyph glyph-name="ccaron" unicode="&#x10d;" horiz-adv-x="617" 
d="M324 -12q-128 0 -216 88.5t-88 215.5q0 128 88 216.5t216 88.5q96 0 170 -49.5t109 -131.5l-121 -51q-20 49 -62 77t-95 28q-74 0 -123.5 -51.5t-49.5 -126.5q0 -74 50 -125.5t124 -51.5q55 0 96 29.5t62 79.5l121 -52q-36 -84 -109 -134t-172 -50zM291 645l-119 170h102
l59 -89l59 89h102l-119 -170h-84z" />
    <glyph glyph-name="Dcaron" unicode="&#x10e;" horiz-adv-x="648" 
d="M42 0v730h199q180 0 283 -102.5t103 -262.5q0 -157 -107 -261t-273 -104h-205zM225 604h-47v-478h53q118 0 189 67.5t71 171.5q0 109 -67.5 174t-198.5 65zM224 780l-119 170h102l59 -89l59 89h102l-119 -170h-84z" />
    <glyph glyph-name="dcaron" unicode="&#x10f;" horiz-adv-x="742" 
d="M308 -12q-113 0 -200.5 83.5t-87.5 220.5q0 139 86 222t204 83q119 0 187 -81v224h136v-740h-135v76q-32 -41 -82 -64.5t-108 -23.5zM330 112q75 0 125 53t50 129t-50 128t-125 52t-126 -52t-51 -128q0 -77 51 -129.5t126 -52.5zM654 561l25 171h109l-51 -171h-83z" />
    <glyph glyph-name="Dcroat" unicode="&#x110;" horiz-adv-x="695" 
d="M20 309v115h69v306h199q180 0 283 -102.5t103 -262.5q0 -157 -107 -261t-273 -104h-205v309h-69zM272 604h-47v-180h165v-115h-165v-183h53q118 0 189 67.5t71 171.5q0 109 -67.5 174t-198.5 65z" />
    <glyph glyph-name="dslash" unicode="&#x111;" horiz-adv-x="679" 
d="M430 608v74h67v58h136v-58h61v-74h-61v-608h-135v76q-32 -41 -82 -64.5t-108 -23.5q-113 0 -200.5 83.5t-87.5 220.5q0 139 86 222t204 83q119 0 187 -81v92h-67zM330 112q75 0 125 53t50 129t-50 128t-125 52t-126 -52t-51 -128q0 -77 51 -129.5t126 -52.5z" />
    <glyph glyph-name="Emacron" unicode="&#x112;" horiz-adv-x="509" 
d="M42 0v730h433v-130h-297v-168h297v-130h-297v-172h297v-130h-433zM127 780v86h264v-86h-264z" />
    <glyph glyph-name="emacron" unicode="&#x113;" 
d="M329 -12q-136 0 -222.5 87t-86.5 216q0 128 88 217t216 89q130 0 215.5 -85.5t85.5 -215.5v-51h-476q15 -63 62 -100.5t118 -37.5q56 0 98.5 27.5t63.5 75.5l111 -64q-85 -158 -273 -158zM324 478q-60 0 -105 -32.5t-63 -87.5h332q-15 59 -57.5 89.5t-106.5 30.5z
M199 643v86h264v-86h-264z" />
    <glyph glyph-name="Ebreve" unicode="&#x114;" horiz-adv-x="509" 
d="M42 0v730h433v-130h-297v-168h297v-130h-297v-172h297v-130h-433zM262 775q-79 0 -120 47t-41 123h85q0 -91 76 -96q76 5 76 96h86q0 -74 -44 -122t-118 -48z" />
    <glyph glyph-name="ebreve" unicode="&#x115;" 
d="M329 -12q-136 0 -222.5 87t-86.5 216q0 128 88 217t216 89q130 0 215.5 -85.5t85.5 -215.5v-51h-476q15 -63 62 -100.5t118 -37.5q56 0 98.5 27.5t63.5 75.5l111 -64q-85 -158 -273 -158zM329 640q-79 0 -120 47t-41 123h85q0 -91 76 -96q76 5 76 96h86q0 -74 -44 -122
t-118 -48zM324 478q-60 0 -105 -32.5t-63 -87.5h332q-15 59 -57.5 89.5t-106.5 30.5z" />
    <glyph glyph-name="Edotaccent" unicode="&#x116;" horiz-adv-x="509" 
d="M42 0v730h433v-130h-297v-168h297v-130h-297v-172h297v-130h-433zM197 849q0 35 21.5 57t57.5 22t57.5 -21.5t21.5 -57.5q0 -35 -21.5 -56.5t-57.5 -21.5q-38 0 -58.5 21t-20.5 57z" />
    <glyph glyph-name="edotaccent" unicode="&#x117;" 
d="M329 -12q-136 0 -222.5 87t-86.5 216q0 128 88 217t216 89q130 0 215.5 -85.5t85.5 -215.5v-51h-476q15 -63 62 -100.5t118 -37.5q56 0 98.5 27.5t63.5 75.5l111 -64q-85 -158 -273 -158zM324 478q-60 0 -105 -32.5t-63 -87.5h332q-15 59 -57.5 89.5t-106.5 30.5z
M247 708q0 35 21.5 57t57.5 22t57.5 -21.5t21.5 -57.5t-21.5 -57t-57.5 -21q-38 0 -58.5 21t-20.5 57z" />
    <glyph glyph-name="Eogonek" unicode="&#x118;" horiz-adv-x="509" 
d="M42 0v730h433v-130h-297v-168h297v-130h-297v-172h297v-130h1q-85 -56 -107.5 -75t-22.5 -38q0 -31 43 -31q6 0 11 0.5t10 2.5t8 3.5t8 5l7 5t8 6.5t8 6l79 -54q-27 -25 -65.5 -41.5t-73.5 -16.5q-64 0 -104 31t-40 78q0 65 77 118h-280z" />
    <glyph glyph-name="eogonek" unicode="&#x119;" 
d="M343 -224q-64 0 -104 31t-40 78q0 61 64 109q-110 22 -176.5 104t-66.5 193q0 128 88 217t216 89q130 0 215.5 -85.5t85.5 -215.5v-51h-476q15 -63 62 -100.5t118 -37.5q56 0 98.5 27.5t63.5 75.5l111 -64q-60 -110 -173 -144q-104 -71 -116.5 -84t-12.5 -28
q0 -31 43 -31q6 0 11 0.5t10 2.5t8 3.5t8 5l7 5t8 6.5t8 6l79 -54q-27 -25 -65.5 -41.5t-73.5 -16.5zM324 478q-60 0 -105 -32.5t-63 -87.5h332q-15 59 -57.5 89.5t-106.5 30.5z" />
    <glyph glyph-name="Ecaron" unicode="&#x11a;" horiz-adv-x="509" 
d="M42 0v730h433v-130h-297v-168h297v-130h-297v-172h297v-130h-433zM215 780l-119 170h102l59 -89l59 89h102l-119 -170h-84z" />
    <glyph glyph-name="ecaron" unicode="&#x11b;" 
d="M329 -12q-136 0 -222.5 87t-86.5 216q0 128 88 217t216 89q130 0 215.5 -85.5t85.5 -215.5v-51h-476q15 -63 62 -100.5t118 -37.5q56 0 98.5 27.5t63.5 75.5l111 -64q-85 -158 -273 -158zM324 478q-60 0 -105 -32.5t-63 -87.5h332q-15 59 -57.5 89.5t-106.5 30.5z
M285 640l-119 170h102l59 -89l59 89h102l-119 -170h-84z" />
    <glyph glyph-name="Gcircumflex" unicode="&#x11c;" horiz-adv-x="780" 
d="M401 -10q-167 0 -273 109.5t-106 265.5q0 158 106.5 266.5t266.5 108.5q110 0 197 -51t135 -136l-120 -72q-69 127 -211 127q-101 0 -170 -71.5t-69 -171.5q0 -102 69.5 -172.5t174.5 -70.5q81 0 135.5 42t75.5 116h-233v130h379v-54q0 -153 -98.5 -259.5t-258.5 -106.5z
M234 780l119 170h84l119 -170h-102l-59 89l-59 -89h-102z" />
    <glyph glyph-name="gcircumflex" unicode="&#x11d;" horiz-adv-x="673" 
d="M499 10v68q-69 -90 -191 -90q-113 0 -200.5 83.5t-87.5 220.5q0 139 86 222t204 83q117 0 188 -87v75h135v-570q0 -129 -80 -213.5t-222 -84.5q-208 0 -300 168l120 73q34 -62 74.5 -89.5t107.5 -27.5q74 0 120 50t46 119zM330 112q75 0 125 53t50 129t-50 128t-125 52
t-126 -52t-51 -128q0 -77 51 -129.5t126 -52.5zM183 645l119 170h84l119 -170h-102l-59 89l-59 -89h-102z" />
    <glyph glyph-name="Gbreve" unicode="&#x11e;" horiz-adv-x="780" 
d="M401 -10q-167 0 -273 109.5t-106 265.5q0 158 106.5 266.5t266.5 108.5q110 0 197 -51t135 -136l-120 -72q-69 127 -211 127q-101 0 -170 -71.5t-69 -171.5q0 -102 69.5 -172.5t174.5 -70.5q81 0 135.5 42t75.5 116h-233v130h379v-54q0 -153 -98.5 -259.5t-258.5 -106.5z
M394 775q-79 0 -120 47t-41 123h85q0 -91 76 -96q76 5 76 96h86q0 -74 -44 -122t-118 -48z" />
    <glyph glyph-name="gbreve" unicode="&#x11f;" horiz-adv-x="673" 
d="M499 10v68q-69 -90 -191 -90q-113 0 -200.5 83.5t-87.5 220.5q0 139 86 222t204 83q117 0 188 -87v75h135v-570q0 -129 -80 -213.5t-222 -84.5q-208 0 -300 168l120 73q34 -62 74.5 -89.5t107.5 -27.5q74 0 120 50t46 119zM330 112q75 0 125 53t50 129t-50 128t-125 52
t-126 -52t-51 -128q0 -77 51 -129.5t126 -52.5zM340 638q-79 0 -120 47t-41 123h85q0 -91 76 -96q76 5 76 96h86q0 -74 -44 -122t-118 -48z" />
    <glyph glyph-name="Gdotaccent" unicode="&#x120;" horiz-adv-x="780" 
d="M401 -10q-167 0 -273 109.5t-106 265.5q0 158 106.5 266.5t266.5 108.5q110 0 197 -51t135 -136l-120 -72q-69 127 -211 127q-101 0 -170 -71.5t-69 -171.5q0 -102 69.5 -172.5t174.5 -70.5q81 0 135.5 42t75.5 116h-233v130h379v-54q0 -153 -98.5 -259.5t-258.5 -106.5z
M319 849q0 35 21.5 57t57.5 22t57.5 -21.5t21.5 -57.5q0 -35 -21.5 -56.5t-57.5 -21.5q-38 0 -58.5 21t-20.5 57z" />
    <glyph glyph-name="gdotaccent" unicode="&#x121;" horiz-adv-x="673" 
d="M499 10v68q-69 -90 -191 -90q-113 0 -200.5 83.5t-87.5 220.5q0 139 86 222t204 83q117 0 188 -87v75h135v-570q0 -129 -80 -213.5t-222 -84.5q-208 0 -300 168l120 73q34 -62 74.5 -89.5t107.5 -27.5q74 0 120 50t46 119zM330 112q75 0 125 53t50 129t-50 128t-125 52
t-126 -52t-51 -128q0 -77 51 -129.5t126 -52.5zM249 713q0 35 21.5 57t57.5 22t57.5 -21.5t21.5 -57.5q0 -35 -21.5 -56.5t-57.5 -21.5q-38 0 -58.5 21t-20.5 57z" />
    <glyph glyph-name="uni0122" unicode="&#x122;" horiz-adv-x="780" 
d="M401 -10q-167 0 -273 109.5t-106 265.5q0 158 106.5 266.5t266.5 108.5q110 0 197 -51t135 -136l-120 -72q-69 127 -211 127q-101 0 -170 -71.5t-69 -171.5q0 -102 69.5 -172.5t174.5 -70.5q81 0 135.5 42t75.5 116h-233v130h379v-54q0 -153 -98.5 -259.5t-258.5 -106.5z
M397 -250h-83l34 204h119z" />
    <glyph glyph-name="uni0123" unicode="&#x123;" horiz-adv-x="673" 
d="M499 10v68q-69 -90 -191 -90q-113 0 -200.5 83.5t-87.5 220.5q0 139 86 222t204 83q117 0 188 -87v75h135v-570q0 -129 -80 -213.5t-222 -84.5q-208 0 -300 168l120 73q34 -62 74.5 -89.5t107.5 -27.5q74 0 120 50t46 119zM330 112q75 0 125 53t50 129t-50 128t-125 52
t-126 -52t-51 -128q0 -77 51 -129.5t126 -52.5zM362 645h-83l34 204h119z" />
    <glyph glyph-name="Hcircumflex" unicode="&#x124;" horiz-adv-x="636" 
d="M458 0v301h-280v-301h-136v730h136v-299h280v299h136v-730h-136zM156 780l119 170h84l119 -170h-102l-59 89l-59 -89h-102z" />
    <glyph glyph-name="hcircumflex" unicode="&#x125;" horiz-adv-x="619" 
d="M39 0v740h135v-225q64 82 175 82q110 0 171 -65.5t61 -184.5v-347h-138v332q0 70 -33.5 109t-98.5 39q-59 0 -97.5 -42.5t-38.5 -116.5v-321h-136zM-52 776l119 170h84l119 -170h-102l-59 89l-59 -89h-102z" />
    <glyph glyph-name="Hbar" unicode="&#x126;" horiz-adv-x="695" 
d="M14 529v103h57v98h136v-98h280v98h136v-98h57v-103h-57v-529h-136v301h-280v-301h-136v529h-57zM207 529v-98h280v98h-280z" />
    <glyph glyph-name="hbar" unicode="&#x127;" horiz-adv-x="627" 
d="M-11 605v73h58v62h135v-62h63v-73h-63v-90q64 82 175 82q110 0 171 -65.5t61 -184.5v-347h-138v332q0 70 -33.5 109t-98.5 39q-59 0 -97.5 -42.5t-38.5 -116.5v-321h-136v605h-58z" />
    <glyph glyph-name="Itilde" unicode="&#x128;" horiz-adv-x="230" 
d="M47 0v730h136v-730h-136zM31 780h-78q0 61 28 98t76 37q35 0 77 -24q37 -25 52 -25q28 0 28 45h78q0 -64 -26.5 -99.5t-78.5 -35.5q-9 0 -18.5 1.5t-16 3.5t-15.5 6t-12.5 6l-13 7.5t-11.5 6.5q-28 17 -43 17q-26 0 -26 -44z" />
    <glyph glyph-name="itilde" unicode="&#x129;" horiz-adv-x="214" 
d="M39 0v585h136v-585h-136zM15 635h-78q0 61 28 98t76 37q35 0 77 -24q37 -25 52 -25q28 0 28 45h78q0 -64 -26.5 -99.5t-78.5 -35.5q-9 0 -18.5 1.5t-16 3.5t-15.5 6t-12.5 6l-13 7.5t-11.5 6.5q-28 17 -43 17q-26 0 -26 -44z" />
    <glyph glyph-name="Imacron" unicode="&#x12a;" horiz-adv-x="230" 
d="M47 0v730h136v-730h-136zM-17 780v86h264v-86h-264z" />
    <glyph glyph-name="imacron" unicode="&#x12b;" horiz-adv-x="214" 
d="M39 0v585h136v-585h-136zM-23 635v86h264v-86h-264z" />
    <glyph glyph-name="Ibreve" unicode="&#x12c;" horiz-adv-x="230" 
d="M47 0v730h136v-730h-136zM113 775q-79 0 -120 47t-41 123h85q0 -91 76 -96q76 5 76 96h86q0 -74 -44 -122t-118 -48z" />
    <glyph glyph-name="ibreve" unicode="&#x12d;" horiz-adv-x="214" 
d="M39 0v585h136v-585h-136zM111 629q-79 0 -120 47t-41 123h85q0 -91 76 -96q76 5 76 96h86q0 -74 -44 -122t-118 -48z" />
    <glyph glyph-name="Iogonek" unicode="&#x12e;" horiz-adv-x="230" 
d="M107 -229q-58 0 -94.5 30.5t-37.5 77.5q-1 71 72 127v724h136v-730h-4q-105 -65 -105 -111q0 -33 38 -33q26 0 50 30l79 -55q-58 -60 -134 -60z" />
    <glyph glyph-name="iogonek" unicode="&#x12f;" horiz-adv-x="214" 
d="M48 -229q-58 0 -94.5 30.5t-37.5 77.5q-1 49 29.5 86t92.5 77l1 -1v544h136v-585h-55q-105 -65 -105 -111q0 -33 38 -33q26 0 50 30l79 -55q-58 -60 -134 -60zM22 728q0 38 23 61.5t62 23.5t62 -23t23 -62q0 -38 -23 -61t-62 -23q-41 0 -63 22.5t-22 61.5z" />
    <glyph glyph-name="Idot" unicode="&#x130;" horiz-adv-x="230" 
d="M47 0v730h136v-730h-136zM34 849q0 35 21.5 57t57.5 22t57.5 -21.5t21.5 -57.5q0 -35 -21 -56.5t-58 -21.5q-38 0 -58.5 21t-20.5 57z" />
    <glyph glyph-name="dotlessi" unicode="&#x131;" horiz-adv-x="214" 
d="M39 0v585h136v-585h-136z" />
    <glyph glyph-name="IJ" unicode="&#x132;" horiz-adv-x="495" 
d="M237 0v133h8q46 0 59.5 13t13.5 60v524h136v-520q0 -121 -38.5 -165.5t-155.5 -44.5h-23zM41 0v730h136v-730h-136z" />
    <glyph glyph-name="ij" unicode="&#x133;" horiz-adv-x="434" 
d="M39 -239v127h99q79 0 100 20.5t21 97.5v579h136v-580q0 -138 -51.5 -191t-184.5 -53h-120zM39 0v585h136v-585h-136zM39 659v163h136v-163h-136zM259 659v163h136v-163h-136z" />
    <glyph glyph-name="Jcircumflex" unicode="&#x134;" horiz-adv-x="501" 
d="M247 -10q-89 0 -149.5 44.5t-78.5 120.5l134 44q9 -36 33.5 -59t58.5 -23q40 0 59.5 26t19.5 67v520h136v-508q0 -111 -55 -171.5t-158 -60.5zM226 780l119 170h84l119 -170h-102l-59 89l-59 -89h-102z" />
    <glyph glyph-name="jcircumflex" unicode="&#x135;" horiz-adv-x="214" 
d="M-82 -269v127q79 0 100 20.5t21 97.5v609h137v-610q0 -139 -52 -191.5t-187 -52.5h-19zM-53 635l119 170h84l119 -170h-102l-59 89l-59 -89h-102z" />
    <glyph glyph-name="uni0136" unicode="&#x136;" horiz-adv-x="618" 
d="M450 0l-193 351l-79 -98v-253h-136v730h136v-299l241 299h165l-231 -284l252 -446h-155zM306 -250h-83l34 204h119z" />
    <glyph glyph-name="uni0137" unicode="&#x137;" horiz-adv-x="601" 
d="M39 0v740h135v-437l249 282h162l-226 -253l234 -332h-151l-175 252l-93 -103v-149h-135zM285 -240h-83l34 204h119z" />
    <glyph glyph-name="kgreenlandic" unicode="&#x138;" horiz-adv-x="601" 
d="M442 0l-175 252l-93 -103v-149h-135v585h135v-282l249 282h162l-225 -253l232 -332h-150z" />
    <glyph glyph-name="Lacute" unicode="&#x139;" horiz-adv-x="481" 
d="M42 0v730h136v-600h267v-130h-403zM62 780l115 170h126l-150 -170h-91z" />
    <glyph glyph-name="lacute" unicode="&#x13a;" horiz-adv-x="214" 
d="M62 795l115 170h126l-150 -170h-91zM39 0v740h136v-740h-136z" />
    <glyph glyph-name="uni013B" unicode="&#x13b;" horiz-adv-x="481" 
d="M42 0v730h136v-600h267v-130h-403zM233 -250h-83l34 204h119z" />
    <glyph glyph-name="uni013C" unicode="&#x13c;" horiz-adv-x="214" 
d="M96 -250h-83l34 204h119zM39 0v740h136v-740h-136z" />
    <glyph glyph-name="Lcaron" unicode="&#x13d;" horiz-adv-x="481" 
d="M42 0v730h136v-600h267v-130h-403zM233 559l25 171h109l-51 -171h-83z" />
    <glyph glyph-name="lcaron" unicode="&#x13e;" horiz-adv-x="282" 
d="M37 0v740h136v-740h-136zM195 569l25 171h109l-51 -171h-83z" />
    <glyph glyph-name="Ldot" unicode="&#x13f;" horiz-adv-x="481" 
d="M42 0v730h136v-600h267v-130h-403zM298 360q0 35 21.5 57t57.5 22t57.5 -21.5t21.5 -57.5t-21 -57t-58 -21q-38 0 -58.5 21t-20.5 57z" />
    <glyph glyph-name="ldot" unicode="&#x140;" horiz-adv-x="381" 
d="M39 0v740h136v-740h-136zM217 314q0 35 21.5 57t57.5 22t57.5 -21.5t21.5 -57.5t-21.5 -57t-57.5 -21q-38 0 -58.5 21t-20.5 57z" />
    <glyph glyph-name="Lslash" unicode="&#x141;" horiz-adv-x="525" 
d="M17 285v96l69 22v327h136v-284l155 50v-97l-155 -49v-220h267v-130h-403v307z" />
    <glyph glyph-name="lslash" unicode="&#x142;" horiz-adv-x="369" 
d="M29 368v99l86 28v245h135v-201l90 30v-98l-90 -30v-441h-135v396z" />
    <glyph glyph-name="Nacute" unicode="&#x143;" horiz-adv-x="690" 
d="M42 0v730h154l316 -497v497h136v-730h-145l-325 513v-513h-136zM307 780l115 170h126l-150 -170h-91z" />
    <glyph glyph-name="nacute" unicode="&#x144;" horiz-adv-x="618" 
d="M39 0v585h134v-72q64 84 175 84q110 0 171 -65.5t61 -184.5v-347h-137v333q0 70 -33.5 108.5t-98.5 38.5q-60 0 -98.5 -42t-38.5 -117v-321h-135zM258 640l115 170h126l-150 -170h-91z" />
    <glyph glyph-name="uni0145" unicode="&#x145;" horiz-adv-x="690" 
d="M42 0v730h154l316 -497v497h136v-730h-145l-325 513v-513h-136zM332 -250h-83l34 204h119z" />
    <glyph glyph-name="uni0146" unicode="&#x146;" horiz-adv-x="618" 
d="M39 0v585h134v-72q64 84 175 84q110 0 171 -65.5t61 -184.5v-347h-137v333q0 70 -33.5 108.5t-98.5 38.5q-60 0 -98.5 -42t-38.5 -117v-321h-135zM303 -233h-83l34 204h119z" />
    <glyph glyph-name="Ncaron" unicode="&#x147;" horiz-adv-x="690" 
d="M42 0v730h154l316 -497v497h136v-730h-145l-325 513v-513h-136zM305 780l-119 170h102l59 -89l59 89h102l-119 -170h-84z" />
    <glyph glyph-name="ncaron" unicode="&#x148;" horiz-adv-x="618" 
d="M39 0v585h134v-72q64 84 175 84q110 0 171 -65.5t61 -184.5v-347h-137v333q0 70 -33.5 108.5t-98.5 38.5q-60 0 -98.5 -42t-38.5 -117v-321h-135zM277 640l-119 170h102l59 -89l59 89h102l-119 -170h-84z" />
    <glyph glyph-name="Eng" unicode="&#x14a;" horiz-adv-x="690" 
d="M436 -208v133h6q43 0 56.5 13.5t13.5 55.5v33l-334 494v-521h-136v730h154l316 -466v466h136v-731q0 -116 -43 -161.5t-149 -45.5h-20z" />
    <glyph glyph-name="eng" unicode="&#x14b;" horiz-adv-x="618" 
d="M322 -269v127q79 0 100 20.5t21 97.5v357q0 70 -33.5 108.5t-98.5 38.5q-60 0 -98.5 -42t-38.5 -117v-321h-135v585h134v-72q64 84 175 84q110 0 171 -65.5t61 -184.5v-372q0 -139 -51.5 -191.5t-186.5 -52.5h-20z" />
    <glyph glyph-name="Omacron" unicode="&#x14c;" horiz-adv-x="790" 
d="M258 780v86h264v-86h-264zM395 -10q-156 0 -264.5 109.5t-108.5 265.5t108.5 265.5t264.5 109.5t265 -109.5t109 -265.5t-109 -265.5t-265 -109.5zM395 124q100 0 169.5 70.5t69.5 170.5t-69.5 170.5t-169.5 70.5q-99 0 -168.5 -70.5t-69.5 -170.5t69.5 -170.5
t168.5 -70.5z" />
    <glyph glyph-name="omacron" unicode="&#x14d;" 
d="M193 645v86h264v-86h-264zM323 -12q-126 0 -214.5 89t-88.5 215q0 128 88 216.5t215 88.5q126 0 214.5 -88.5t88.5 -216.5q0 -126 -88.5 -215t-214.5 -89zM323 115q72 0 121 52t49 125q0 75 -49 126.5t-121 51.5t-121 -51.5t-49 -126.5q0 -73 49 -125t121 -52z" />
    <glyph glyph-name="Obreve" unicode="&#x14e;" horiz-adv-x="790" 
d="M395 -10q-156 0 -264.5 109.5t-108.5 265.5t108.5 265.5t264.5 109.5t265 -109.5t109 -265.5t-109 -265.5t-265 -109.5zM395 124q100 0 169.5 70.5t69.5 170.5t-69.5 170.5t-169.5 70.5q-99 0 -168.5 -70.5t-69.5 -170.5t69.5 -170.5t168.5 -70.5zM388 775q-79 0 -120 47
t-41 123h85q0 -91 76 -96q76 5 76 96h86q0 -74 -44 -122t-118 -48z" />
    <glyph glyph-name="obreve" unicode="&#x14f;" 
d="M323 -12q-126 0 -214.5 89t-88.5 215q0 128 88 216.5t215 88.5q126 0 214.5 -88.5t88.5 -216.5q0 -126 -88.5 -215t-214.5 -89zM323 115q72 0 121 52t49 125q0 75 -49 126.5t-121 51.5t-121 -51.5t-49 -126.5q0 -73 49 -125t121 -52zM321 642q-79 0 -120 47t-41 123h85
q0 -91 76 -96q76 5 76 96h86q0 -74 -44 -122t-118 -48z" />
    <glyph glyph-name="Ohungarumlaut" unicode="&#x150;" horiz-adv-x="790" 
d="M256 780l114 170h120l-150 -170h-84zM422 780l114 170h120l-150 -170h-84zM395 -10q-156 0 -264.5 109.5t-108.5 265.5t108.5 265.5t264.5 109.5t265 -109.5t109 -265.5t-109 -265.5t-265 -109.5zM395 124q100 0 169.5 70.5t69.5 170.5t-69.5 170.5t-169.5 70.5
q-99 0 -168.5 -70.5t-69.5 -170.5t69.5 -170.5t168.5 -70.5z" />
    <glyph glyph-name="ohungarumlaut" unicode="&#x151;" 
d="M189 638l114 170h120l-150 -170h-84zM355 638l114 170h120l-150 -170h-84zM323 -12q-126 0 -214.5 89t-88.5 215q0 128 88 216.5t215 88.5q126 0 214.5 -88.5t88.5 -216.5q0 -126 -88.5 -215t-214.5 -89zM323 115q72 0 121 52t49 125q0 75 -49 126.5t-121 51.5
t-121 -51.5t-49 -126.5q0 -73 49 -125t121 -52z" />
    <glyph glyph-name="OE" unicode="&#x152;" horiz-adv-x="1101" 
d="M634 0v83q-96 -93 -239 -93q-156 0 -264.5 109.5t-108.5 265.5t108.5 265.5t264.5 109.5q142 0 239 -94v84h433v-130h-297v-168h297v-130h-297v-172h297v-130h-433zM395 124q96 0 165.5 67t73.5 164v20q-4 96 -73.5 163.5t-165.5 67.5q-99 0 -168.5 -70.5t-69.5 -170.5
t69.5 -170.5t168.5 -70.5z" />
    <glyph glyph-name="oe" unicode="&#x153;" horiz-adv-x="1121" 
d="M323 -12q-126 0 -214.5 89t-88.5 215q0 128 88 216.5t215 88.5q153 0 238 -119q86 119 237 119q130 0 216 -85.5t86 -215.5v-47h-476q12 -65 60.5 -103.5t120.5 -38.5q56 0 99.5 28.5t67.5 77.5l113 -49q-39 -82 -112 -129t-169 -47q-162 0 -245 117q-86 -117 -236 -117z
M323 115q72 0 121.5 52t49.5 125q0 74 -49.5 126t-121.5 52q-73 0 -122 -51.5t-49 -126.5q0 -74 49 -125.5t122 -51.5zM800 478q-59 0 -103 -31.5t-65 -84.5h331q-17 56 -59.5 86t-103.5 30z" />
    <glyph glyph-name="Racute" unicode="&#x154;" horiz-adv-x="584" 
d="M178 0h-136v730h234q127 0 200 -69.5t73 -184.5q0 -67 -32 -124t-91 -89l146 -263h-155l-117 223h-122v-223zM178 348h86q79 0 114 36.5t35 96.5q0 122 -149 122h-86v-255zM196 780l115 170h126l-150 -170h-91z" />
    <glyph glyph-name="racute" unicode="&#x155;" horiz-adv-x="431" 
d="M39 0v585h134v-87q41 87 150 87q58 0 103 -25l-51 -128q-35 23 -81 23q-60 0 -90 -34.5t-30 -108.5v-312h-135zM178 635l115 170h126l-150 -170h-91z" />
    <glyph glyph-name="uni0156" unicode="&#x156;" horiz-adv-x="584" 
d="M178 0h-136v730h234q127 0 200 -69.5t73 -184.5q0 -67 -32 -124t-91 -89l146 -263h-155l-117 223h-122v-223zM178 348h86q79 0 114 36.5t35 96.5q0 122 -149 122h-86v-255zM290 -281h-83l34 204h119z" />
    <glyph glyph-name="uni0157" unicode="&#x157;" horiz-adv-x="431" 
d="M39 0v585h134v-87q41 87 150 87q58 0 103 -25l-51 -128q-35 23 -81 23q-60 0 -90 -34.5t-30 -108.5v-312h-135zM93 -249h-83l34 204h119z" />
    <glyph glyph-name="Rcaron" unicode="&#x158;" horiz-adv-x="584" 
d="M178 0h-136v730h234q127 0 200 -69.5t73 -184.5q0 -67 -32 -124t-91 -89l146 -263h-155l-117 223h-122v-223zM178 348h86q79 0 114 36.5t35 96.5q0 122 -149 122h-86v-255zM250 780l-119 170h102l59 -89l59 89h102l-119 -170h-84z" />
    <glyph glyph-name="rcaron" unicode="&#x159;" horiz-adv-x="431" 
d="M39 0v585h134v-87q41 87 150 87q58 0 103 -25l-51 -128q-35 23 -81 23q-60 0 -90 -34.5t-30 -108.5v-312h-135zM179 635l-119 170h102l59 -89l59 89h102l-119 -170h-84z" />
    <glyph glyph-name="Sacute" unicode="&#x15a;" horiz-adv-x="563" 
d="M222 780l115 170h126l-150 -170h-91zM288 -10q-168 0 -285 131l124 98q57 -99 160 -99q52 0 81.5 28.5t29.5 69.5q0 49 -73 78q-19 8 -79 27q-39 12 -61 20.5t-54 26.5t-49 37.5t-30 51.5t-13 72q0 88 69 148.5t173 60.5q82 0 138.5 -27.5t106.5 -78.5l-112 -85
q-46 70 -132 70q-49 0 -75.5 -23t-26.5 -60q0 -16 7.5 -29t16.5 -21t29 -17.5t33.5 -14.5t41.5 -14q14 -5 21 -7q36 -12 60.5 -21.5t55.5 -28t50 -39.5t32 -54t13 -73q0 -92 -68.5 -159.5t-183.5 -67.5z" />
    <glyph glyph-name="sacute" unicode="&#x15b;" horiz-adv-x="518" 
d="M205 641l115 170h126l-150 -170h-91zM259 -12q-187 0 -260 142l125 60q43 -85 141 -85q48 0 74 20t26 51q0 7 -2 13t-7 11t-10 9t-14.5 7.5l-16.5 6t-19.5 5.5l-21 5t-23.5 5t-23 5q-35 7 -60 14.5t-54.5 21t-47.5 31t-30.5 45.5t-12.5 64q0 73 64.5 126t165.5 53
q166 0 239 -121l-115 -58q-39 67 -124 67q-45 0 -69.5 -18t-24.5 -45t28.5 -39t105.5 -29q43 -8 74 -18.5t64 -30t50.5 -51.5t17.5 -76q0 -71 -62.5 -131t-177.5 -60z" />
    <glyph glyph-name="Scircumflex" unicode="&#x15c;" horiz-adv-x="563" 
d="M288 -10q-168 0 -285 131l124 98q57 -99 160 -99q52 0 81.5 28.5t29.5 69.5q0 49 -73 78q-19 8 -79 27q-39 12 -61 20.5t-54 26.5t-49 37.5t-30 51.5t-13 72q0 88 69 148.5t173 60.5q82 0 138.5 -27.5t106.5 -78.5l-112 -85q-46 70 -132 70q-49 0 -75.5 -23t-26.5 -60
q0 -16 7.5 -29t16.5 -21t29 -17.5t33.5 -14.5t41.5 -14q14 -5 21 -7q36 -12 60.5 -21.5t55.5 -28t50 -39.5t32 -54t13 -73q0 -92 -68.5 -159.5t-183.5 -67.5zM116 780l119 170h84l119 -170h-102l-59 89l-59 -89h-102z" />
    <glyph glyph-name="scircumflex" unicode="&#x15d;" horiz-adv-x="518" 
d="M259 -12q-187 0 -260 142l125 60q43 -85 141 -85q48 0 74 20t26 51q0 7 -2 13t-7 11t-10 9t-14.5 7.5l-16.5 6t-19.5 5.5l-21 5t-23.5 5t-23 5q-35 7 -60 14.5t-54.5 21t-47.5 31t-30.5 45.5t-12.5 64q0 73 64.5 126t165.5 53q166 0 239 -121l-115 -58q-39 67 -124 67
q-45 0 -69.5 -18t-24.5 -45t28.5 -39t105.5 -29q43 -8 74 -18.5t64 -30t50.5 -51.5t17.5 -76q0 -71 -62.5 -131t-177.5 -60zM98 635l119 170h84l119 -170h-102l-59 89l-59 -89h-102z" />
    <glyph glyph-name="Scedilla" unicode="&#x15e;" horiz-adv-x="563" 
d="M273 -240q-78 0 -144 59l78 47l23 -18t22.5 -11t30.5 -5q22 0 38.5 9t16.5 22q0 27 -58 27h-50v104q-131 17 -227 127l124 98q57 -99 160 -99q52 0 81.5 28.5t29.5 69.5q0 49 -73 78q-19 8 -79 27q-39 12 -61 20.5t-54 26.5t-49 37.5t-30 51.5t-13 72q0 88 69 148.5
t173 60.5q82 0 138.5 -27.5t106.5 -78.5l-112 -85q-46 70 -132 70q-49 0 -75.5 -23t-26.5 -60q0 -16 7.5 -29t16.5 -21t29 -17.5t33.5 -14.5t41.5 -14q14 -5 21 -7q36 -12 60.5 -21.5t55.5 -28t50 -39.5t32 -54t13 -73q0 -86 -61 -152t-165 -74v-44q55 2 85 -20t30 -60
q0 -46 -45 -76.5t-111 -30.5z" />
    <glyph glyph-name="scedilla" unicode="&#x15f;" horiz-adv-x="518" 
d="M246 -240q-78 0 -144 59l78 47l23 -18t22.5 -11t30.5 -5q22 0 38.5 9t16.5 22q0 27 -58 27h-50v102q-143 17 -204 138l125 60q43 -85 141 -85q48 0 74 20t26 51q0 7 -2 13t-7 11t-10 9t-14.5 7.5l-16.5 6t-19.5 5.5l-21 5t-23.5 5t-23 5q-35 7 -60 14.5t-54.5 21
t-47.5 31t-30.5 45.5t-12.5 64q0 73 64.5 126t165.5 53q166 0 239 -121l-115 -58q-39 67 -124 67q-45 0 -69.5 -18t-24.5 -45t28.5 -39t105.5 -29q43 -8 74 -18.5t64 -30t50.5 -51.5t17.5 -76q0 -66 -55 -124t-157 -66v-42q55 2 85 -20t30 -60q0 -46 -45 -76.5t-111 -30.5z
" />
    <glyph glyph-name="Scaron" unicode="&#x160;" horiz-adv-x="563" 
d="M288 -10q-168 0 -285 131l124 98q57 -99 160 -99q52 0 81.5 28.5t29.5 69.5q0 49 -73 78q-19 8 -79 27q-39 12 -61 20.5t-54 26.5t-49 37.5t-30 51.5t-13 72q0 88 69 148.5t173 60.5q82 0 138.5 -27.5t106.5 -78.5l-112 -85q-46 70 -132 70q-49 0 -75.5 -23t-26.5 -60
q0 -16 7.5 -29t16.5 -21t29 -17.5t33.5 -14.5t41.5 -14q14 -5 21 -7q36 -12 60.5 -21.5t55.5 -28t50 -39.5t32 -54t13 -73q0 -92 -68.5 -159.5t-183.5 -67.5zM241 780l-119 170h102l59 -89l59 89h102l-119 -170h-84z" />
    <glyph glyph-name="scaron" unicode="&#x161;" horiz-adv-x="518" 
d="M259 -12q-187 0 -260 142l125 60q43 -85 141 -85q48 0 74 20t26 51q0 7 -2 13t-7 11t-10 9t-14.5 7.5l-16.5 6t-19.5 5.5l-21 5t-23.5 5t-23 5q-35 7 -60 14.5t-54.5 21t-47.5 31t-30.5 45.5t-12.5 64q0 73 64.5 126t165.5 53q166 0 239 -121l-115 -58q-39 67 -124 67
q-45 0 -69.5 -18t-24.5 -45t28.5 -39t105.5 -29q43 -8 74 -18.5t64 -30t50.5 -51.5t17.5 -76q0 -71 -62.5 -131t-177.5 -60zM216 641l-119 170h102l59 -89l59 89h102l-119 -170h-84z" />
    <glyph glyph-name="uni0162" unicode="&#x162;" horiz-adv-x="598" 
d="M289 -250h-83l34 204h119zM233 0v600h-195v130h527v-130h-196v-600h-136z" />
    <glyph glyph-name="uni0163" unicode="&#x163;" horiz-adv-x="399" 
d="M18 464v121h100v89l136 93v-182h119v-121h-119v-219q0 -77 20.5 -97.5t98.5 -20.5v-127h-19q-136 0 -186 52t-50 192v220h-100zM228 -243h-83l34 204h119z" />
    <glyph glyph-name="Tcaron" unicode="&#x164;" horiz-adv-x="598" 
d="M233 0v600h-195v130h527v-130h-196v-600h-136zM254 780l-119 170h102l59 -89l59 89h102l-119 -170h-84z" />
    <glyph glyph-name="tcaron" unicode="&#x165;" horiz-adv-x="399" 
d="M18 464v121h100v89l136 93v-182h119v-121h-119v-219q0 -77 20.5 -97.5t98.5 -20.5v-127h-19q-136 0 -186 52t-50 192v220h-100zM297 634l25 171h109l-51 -171h-83z" />
    <glyph glyph-name="Tbar" unicode="&#x166;" horiz-adv-x="598" 
d="M108 303v130h125v167h-195v130h527v-130h-196v-167h120v-130h-120v-303h-136v303h-125z" />
    <glyph glyph-name="tbar" unicode="&#x167;" horiz-adv-x="399" 
d="M18 464v121h100v89l136 93v-182h119v-121h-119v-103h119v-111h-119v-5q0 -77 20.5 -97.5t98.5 -20.5v-127h-19q-136 0 -186 52t-50 192v6h-100v111h100v103h-100z" />
    <glyph glyph-name="Utilde" unicode="&#x168;" horiz-adv-x="608" 
d="M304 -10q-118 0 -190.5 68.5t-72.5 193.5v478h136v-486q0 -54 36 -91t90 -37q53 0 90.5 37t37.5 91v486h136v-478q0 -125 -73 -193.5t-190 -68.5zM204 780h-78q0 61 28 98t76 37q35 0 77 -24q37 -25 52 -25q28 0 28 45h78q0 -64 -26.5 -99.5t-78.5 -35.5q-9 0 -18.5 1.5
t-16 3.5t-15.5 6t-12.5 6l-13 7.5t-11.5 6.5q-28 17 -43 17q-26 0 -26 -44z" />
    <glyph glyph-name="utilde" unicode="&#x169;" horiz-adv-x="608" 
d="M569 585v-585h-134v67q-60 -79 -168 -79q-106 0 -165.5 65.5t-59.5 184.5v347h137v-333q0 -70 31.5 -108.5t93.5 -38.5q58 0 94 42t36 117v321h135zM219 634h-78q0 61 28 98t76 37q35 0 77 -24q37 -25 52 -25q28 0 28 45h78q0 -64 -26.5 -99.5t-78.5 -35.5
q-9 0 -18.5 1.5t-16 3.5t-15.5 6t-12.5 6l-13 7.5t-11.5 6.5q-28 17 -43 17q-26 0 -26 -44z" />
    <glyph glyph-name="Umacron" unicode="&#x16a;" horiz-adv-x="608" 
d="M304 -10q-118 0 -190.5 68.5t-72.5 193.5v478h136v-486q0 -54 36 -91t90 -37q53 0 90.5 37t37.5 91v486h136v-478q0 -125 -73 -193.5t-190 -68.5zM172 780v86h264v-86h-264z" />
    <glyph glyph-name="umacron" unicode="&#x16b;" horiz-adv-x="608" 
d="M569 585v-585h-134v67q-60 -79 -168 -79q-106 0 -165.5 65.5t-59.5 184.5v347h137v-333q0 -70 31.5 -108.5t93.5 -38.5q58 0 94 42t36 117v321h135zM174 639v86h264v-86h-264z" />
    <glyph glyph-name="Ubreve" unicode="&#x16c;" horiz-adv-x="608" 
d="M304 -10q-118 0 -190.5 68.5t-72.5 193.5v478h136v-486q0 -54 36 -91t90 -37q53 0 90.5 37t37.5 91v486h136v-478q0 -125 -73 -193.5t-190 -68.5zM308 775q-79 0 -120 47t-41 123h85q0 -91 76 -96q76 5 76 96h86q0 -74 -44 -122t-118 -48z" />
    <glyph glyph-name="ubreve" unicode="&#x16d;" horiz-adv-x="608" 
d="M569 585v-585h-134v67q-60 -79 -168 -79q-106 0 -165.5 65.5t-59.5 184.5v347h137v-333q0 -70 31.5 -108.5t93.5 -38.5q58 0 94 42t36 117v321h135zM309 623q-79 0 -120 47t-41 123h85q0 -91 76 -96q76 5 76 96h86q0 -74 -44 -122t-118 -48z" />
    <glyph glyph-name="Uring" unicode="&#x16e;" horiz-adv-x="608" 
d="M302 729q-48 0 -82 34t-34 82q0 50 34 84t82 34q49 0 83 -34t34 -84q0 -48 -34 -82t-83 -34zM302 806q17 0 29 11.5t12 27.5q0 17 -12 29t-29 12t-28.5 -12t-11.5 -29q0 -16 11.5 -27.5t28.5 -11.5zM304 -10q-118 0 -190.5 68.5t-72.5 193.5v478h136v-486q0 -54 36 -91
t90 -37q53 0 90.5 37t37.5 91v486h136v-478q0 -125 -73 -193.5t-190 -68.5z" />
    <glyph glyph-name="uring" unicode="&#x16f;" horiz-adv-x="608" 
d="M569 585v-585h-134v67q-60 -79 -168 -79q-106 0 -165.5 65.5t-59.5 184.5v347h137v-333q0 -70 31.5 -108.5t93.5 -38.5q58 0 94 42t36 117v321h135zM305 599q-48 0 -82 34t-34 82q0 50 34 84t82 34q49 0 83 -34t34 -84q0 -48 -34 -82t-83 -34zM305 676q17 0 29 11.5
t12 27.5q0 17 -12 29t-29 12t-28.5 -12t-11.5 -29q0 -16 11.5 -27.5t28.5 -11.5z" />
    <glyph glyph-name="Uhungarumlaut" unicode="&#x170;" horiz-adv-x="608" 
d="M304 -10q-118 0 -190.5 68.5t-72.5 193.5v478h136v-486q0 -54 36 -91t90 -37q53 0 90.5 37t37.5 91v486h136v-478q0 -125 -73 -193.5t-190 -68.5zM161 780l114 170h120l-150 -170h-84zM327 780l114 170h120l-150 -170h-84z" />
    <glyph glyph-name="uhungarumlaut" unicode="&#x171;" horiz-adv-x="608" 
d="M569 585v-585h-134v67q-60 -79 -168 -79q-106 0 -165.5 65.5t-59.5 184.5v347h137v-333q0 -70 31.5 -108.5t93.5 -38.5q58 0 94 42t36 117v321h135zM328 635l114 170h120l-150 -170h-84zM162 635l114 170h120l-150 -170h-84z" />
    <glyph glyph-name="Uogonek" unicode="&#x172;" horiz-adv-x="608" 
d="M316 -222q-64 0 -104 31t-40 78q0 60 65 110q-90 18 -143 83.5t-53 171.5v478h136v-486q0 -54 36 -91t90 -37q53 0 90.5 37t37.5 91v486h136v-478q0 -98 -43.5 -160t-120.5 -87q-85 -56 -107.5 -75t-22.5 -38q0 -31 43 -31q6 0 11 0.5t10 2.5t8 3.5t8 5l7 5t8 6.5t8 6
l79 -54q-27 -25 -65.5 -41.5t-73.5 -16.5z" />
    <glyph glyph-name="uogonek" unicode="&#x173;" horiz-adv-x="608" 
d="M569 585v-585q-105 -65 -105 -111q0 -33 38 -33q26 0 50 30l79 -55q-58 -60 -134 -60q-58 0 -94.5 30.5t-37.5 77.5q-1 68 70 125v63q-60 -79 -168 -79q-106 0 -165.5 65.5t-59.5 184.5v347h137v-333q0 -70 31.5 -108.5t93.5 -38.5q58 0 94 42t36 117v321h135z" />
    <glyph glyph-name="Wcircumflex" unicode="&#x174;" horiz-adv-x="1023" 
d="M222 0l-208 730h142l138 -511l153 511h134l152 -509l137 509h137l-206 -730h-135l-153 515l-153 -515h-138zM350 780l119 170h84l119 -170h-102l-59 89l-59 -89h-102z" />
    <glyph glyph-name="wcircumflex" unicode="&#x175;" horiz-adv-x="995" 
d="M213 0l-195 585h138l129 -403l147 403h134l144 -404l134 404h137l-205 -585h-130l-148 405l-152 -405h-133zM336 634l119 170h84l119 -170h-102l-59 89l-59 -89h-102z" />
    <glyph glyph-name="Ycircumflex" unicode="&#x176;" horiz-adv-x="629" 
d="M245 0v346l-232 384h150l151 -253l152 253h150l-235 -387v-343h-136zM153 780l119 170h84l119 -170h-102l-59 89l-59 -89h-102z" />
    <glyph glyph-name="ycircumflex" unicode="&#x177;" horiz-adv-x="618" 
d="M123 -270l123 299l-240 556h144l163 -394l154 394h142l-349 -855h-137zM148 635l119 170h84l119 -170h-102l-59 89l-59 -89h-102z" />
    <glyph glyph-name="Ydieresis" unicode="&#x178;" horiz-adv-x="629" 
d="M245 0v346l-232 384h150l151 -253l152 253h150l-235 -387v-343h-136zM146 849q0 32 19.5 52t52.5 20t52.5 -19.5t19.5 -52.5t-19 -52t-53 -19t-53 19t-19 52zM337 849q0 32 19.5 52t52.5 20t52.5 -20t19.5 -52t-19.5 -51.5t-52.5 -19.5q-35 0 -53.5 19t-18.5 52z" />
    <glyph glyph-name="Zacute" unicode="&#x179;" horiz-adv-x="556" 
d="M36 0v125l323 475h-312v130h472v-124l-323 -476h323v-130h-483zM222 780l115 170h126l-150 -170h-91z" />
    <glyph glyph-name="zacute" unicode="&#x17a;" horiz-adv-x="577" 
d="M28 0v123l340 342h-333v120h509v-123l-340 -342h346v-120h-522zM241 635l115 170h126l-150 -170h-91z" />
    <glyph glyph-name="Zdotaccent" unicode="&#x17b;" horiz-adv-x="556" 
d="M36 0v125l323 475h-312v130h472v-124l-323 -476h323v-130h-483zM203 849q0 35 21.5 57t57.5 22t57.5 -21.5t21.5 -57.5q0 -35 -21.5 -56.5t-57.5 -21.5q-38 0 -58.5 21t-20.5 57z" />
    <glyph glyph-name="zdotaccent" unicode="&#x17c;" horiz-adv-x="577" 
d="M28 0v123l340 342h-333v120h509v-123l-340 -342h346v-120h-522zM218 704q0 35 21.5 57t57.5 22t57.5 -21.5t21.5 -57.5t-21 -57t-58 -21q-38 0 -58.5 21t-20.5 57z" />
    <glyph glyph-name="Zcaron" unicode="&#x17d;" horiz-adv-x="556" 
d="M36 0v125l323 475h-312v130h472v-124l-323 -476h323v-130h-483zM241 780l-119 170h102l59 -89l59 89h102l-119 -170h-84z" />
    <glyph glyph-name="zcaron" unicode="&#x17e;" horiz-adv-x="577" 
d="M28 0v123l340 342h-333v120h509v-123l-340 -342h346v-120h-522zM255 635l-119 170h102l59 -89l59 89h102l-119 -170h-84z" />
    <glyph glyph-name="uni018F" unicode="&#x18f;" horiz-adv-x="789" 
d="M389 -10q-106 0 -192 54t-131 137.5t-43 175.5l1 53h605q-16 85 -81.5 141.5t-153.5 56.5q-67 0 -121.5 -34t-87.5 -93l-116 72q46 84 132 135.5t194 51.5q160 0 266.5 -110t106.5 -265q0 -156 -106 -265.5t-273 -109.5zM389 122q82 0 143 43.5t86 114.5h-446
q17 -62 79.5 -110t137.5 -48z" />
    <glyph glyph-name="florin" unicode="&#x192;" horiz-adv-x="588" 
d="M48 305v120h191l25 89q33 119 97 167.5t172 48.5h10v-125q-68 0 -96.5 -18.5t-45.5 -73.5l-25 -88h165v-120h-199l-25 -89q-33 -118 -90.5 -167t-158.5 -49h-22v125q61 0 90.5 20t43.5 72l25 88h-157z" />
    <glyph glyph-name="Aringacute" unicode="&#x1fa;" horiz-adv-x="687" 
d="M15 0l246 691q-31 33 -31 79q0 50 34 84t82 34q49 0 83 -34t34 -84t-36 -84l245 -686h-142l-45 130h-283l-45 -130h-142zM344 536l-96 -276h192zM299 930l115 170h126l-150 -170h-91zM346 731q17 0 29 11.5t12 27.5q0 17 -12 29t-29 12t-28.5 -12t-11.5 -29
q0 -16 11.5 -27.5t28.5 -11.5z" />
    <glyph glyph-name="aringacute" unicode="&#x1fb;" horiz-adv-x="671" 
d="M308 -12q-113 0 -200.5 83.5t-87.5 220.5q0 108 53.5 183.5t138.5 104.5q-14 26 -14 56q0 50 34 84t82 34q49 0 83 -34t34 -84q0 -31 -17 -60q52 -21 84 -61v70h135v-585h-135v76q-32 -41 -82 -64.5t-108 -23.5zM330 112q75 0 125 53t50 129t-50 128t-125 52t-126 -52
t-51 -128q0 -77 51 -129.5t126 -52.5zM267 788l115 170h126l-150 -170h-91zM310 597h4q17 0 29 11.5t12 27.5q0 17 -12 29t-29 12t-28.5 -12t-11.5 -29q0 -15 10.5 -26.5t25.5 -12.5z" />
    <glyph glyph-name="AEacute" unicode="&#x1fc;" horiz-adv-x="938" 
d="M13 0l333 730h558v-130h-386l42 -168h344v-130h-311l43 -172h268v-130h-378l-32 129h-281l-58 -129h-142zM395 534l-126 -279h194zM490 780l115 170h126l-150 -170h-91z" />
    <glyph glyph-name="aeacute" unicode="&#x1fd;" horiz-adv-x="1035" 
d="M719 -12q-166 0 -250 123q-32 -53 -96 -88t-143 -35q-106 0 -159 45.5t-53 120.5q0 76 50.5 119t142.5 65q17 4 56.5 14t56.5 15t40.5 14t33 20.5t9.5 25.5q0 28 -28 45.5t-80 17.5q-69 0 -105 -31t-36 -79v-3h-124v2q0 104 68 161t191 57q149 0 210 -85q85 85 210 85
q129 0 215.5 -86t86.5 -215v-47h-477q12 -65 60 -103.5t121 -38.5q56 0 100.5 29t65.5 77l114 -49q-37 -82 -110.5 -129t-169.5 -47zM237 100q66 0 117 46t58 89q0 56 -2 59q-9 -24 -134 -52q-67 -15 -95 -33t-28 -51q0 -58 84 -58zM713 478q-59 0 -102 -31.5t-64 -84.5h330
q-17 56 -60 86t-104 30zM469 638l115 170h126l-150 -170h-91z" />
    <glyph glyph-name="Oslashacute" unicode="&#x1fe;" horiz-adv-x="790" 
d="M24 0l92 114q-94 107 -94 251q0 156 108.5 265.5t264.5 109.5q96 0 186 -50l33 40h157l-95 -117q93 -106 93 -248q0 -156 -109 -265.5t-265 -109.5q-99 0 -184 48l-30 -38h-157zM157 365q0 -81 46 -144l292 362q-49 23 -100 23q-99 0 -168.5 -70.5t-69.5 -170.5zM395 124
q100 0 169.5 70.5t69.5 170.5q0 77 -45 140l-291 -361q46 -20 97 -20zM333 780l115 170h126l-150 -170h-91z" />
    <glyph glyph-name="oslashacute" unicode="&#x1ff;" 
d="M323 -12q-78 0 -145 36l-19 -24h-139l73 92q-73 82 -73 200q0 128 88 216.5t215 88.5q76 0 143 -36l19 24h139l-73 -92q75 -85 75 -201q0 -126 -88.5 -215t-214.5 -89zM323 115q72 0 121.5 52t49.5 125q0 52 -27 96l-207 -261q28 -12 63 -12zM152 292q0 -53 25 -94
l207 260q-29 12 -61 12q-73 0 -122 -51.5t-49 -126.5zM278 640l115 170h126l-150 -170h-91z" />
    <glyph glyph-name="uni0218" unicode="&#x218;" horiz-adv-x="563" 
d="M270 -249h-83l34 204h119zM288 -10q-168 0 -285 131l124 98q57 -99 160 -99q52 0 81.5 28.5t29.5 69.5q0 49 -73 78q-19 8 -79 27q-39 12 -61 20.5t-54 26.5t-49 37.5t-30 51.5t-13 72q0 88 69 148.5t173 60.5q82 0 138.5 -27.5t106.5 -78.5l-112 -85q-46 70 -132 70
q-49 0 -75.5 -23t-26.5 -60q0 -16 7.5 -29t16.5 -21t29 -17.5t33.5 -14.5t41.5 -14q14 -5 21 -7q36 -12 60.5 -21.5t55.5 -28t50 -39.5t32 -54t13 -73q0 -92 -68.5 -159.5t-183.5 -67.5z" />
    <glyph glyph-name="uni0219" unicode="&#x219;" horiz-adv-x="518" 
d="M248 -254h-83l34 204h119zM259 -12q-187 0 -260 142l125 60q43 -85 141 -85q48 0 74 20t26 51q0 7 -2 13t-7 11t-10 9t-14.5 7.5l-16.5 6t-19.5 5.5l-21 5t-23.5 5t-23 5q-35 7 -60 14.5t-54.5 21t-47.5 31t-30.5 45.5t-12.5 64q0 73 64.5 126t165.5 53q166 0 239 -121
l-115 -58q-39 67 -124 67q-45 0 -69.5 -18t-24.5 -45t28.5 -39t105.5 -29q43 -8 74 -18.5t64 -30t50.5 -51.5t17.5 -76q0 -71 -62.5 -131t-177.5 -60z" />
    <glyph glyph-name="uni0237" unicode="&#x237;" horiz-adv-x="214" 
d="M-82 -269v127q79 0 100 20.5t21 97.5v609h137v-610q0 -139 -52 -191.5t-187 -52.5h-19z" />
    <glyph glyph-name="uni0259" unicode="&#x259;" horiz-adv-x="645" 
d="M316 597q136 0 222.5 -87t86.5 -216q0 -128 -88 -217t-216 -89t-214.5 90t-86.5 211v51h468q-10 53 -58.5 91.5t-113.5 38.5q-51 0 -88.5 -27.5t-57.5 -70.5l-115 67q38 67 105.5 112.5t155.5 45.5zM321 114q60 0 103 32.5t61 87.5h-322q10 -47 56 -83.5t102 -36.5z" />
    <glyph glyph-name="circumflex" unicode="&#x2c6;" horiz-adv-x="472" 
d="M75 550l119 170h84l119 -170h-102l-59 89l-59 -89h-102z" />
    <glyph glyph-name="caron" unicode="&#x2c7;" horiz-adv-x="472" 
d="M193 550l-119 170h102l59 -89l59 89h102l-119 -170h-84z" />
    <glyph glyph-name="breve" unicode="&#x2d8;" horiz-adv-x="472" 
d="M235 545q-79 0 -120 47t-41 123h85q0 -91 76 -96q76 5 76 96h86q0 -74 -44 -122t-118 -48z" />
    <glyph glyph-name="dotaccent" unicode="&#x2d9;" horiz-adv-x="473" 
d="M147 619q0 35 21.5 57t57.5 22t57.5 -21.5t21.5 -57.5q0 -35 -21.5 -56.5t-57.5 -21.5q-38 0 -58.5 21t-20.5 57z" />
    <glyph glyph-name="ring" unicode="&#x2da;" horiz-adv-x="472" 
d="M235 546q-48 0 -82 34t-34 82q0 50 34 84t82 34q49 0 83 -34t34 -84q0 -48 -34 -82t-83 -34zM235 623q17 0 29 11.5t12 27.5q0 17 -12 29t-29 12t-28.5 -12t-11.5 -29q0 -16 11.5 -27.5t28.5 -11.5z" />
    <glyph glyph-name="ogonek" unicode="&#x2db;" horiz-adv-x="472" 
d="M232 -227q-64 0 -104 31t-40 78q0 42 33.5 80t116.5 80l81 -42q-85 -56 -107.5 -75t-22.5 -38q0 -31 43 -31q6 0 11 0.5t10 2.5t8 3.5t8 5l7 5t8 6.5t8 6l79 -54q-27 -25 -65.5 -41.5t-73.5 -16.5z" />
    <glyph glyph-name="tilde" unicode="&#x2dc;" horiz-adv-x="472" 
d="M142 550h-78q0 61 28 98t76 37q35 0 77 -24q37 -25 52 -25q28 0 28 45h78q0 -64 -26.5 -99.5t-78.5 -35.5q-9 0 -18.5 1.5t-16 3.5t-15.5 6t-12.5 6l-13 7.5t-11.5 6.5q-28 17 -43 17q-26 0 -26 -44z" />
    <glyph glyph-name="hungarumlaut" unicode="&#x2dd;" horiz-adv-x="472" 
d="M36 550l114 170h120l-150 -170h-84zM202 550l114 170h120l-150 -170h-84z" />
    <glyph glyph-name="uni0328" unicode="&#x328;" horiz-adv-x="472" 
d="M248 -229q-58 0 -94.5 30.5t-37.5 77.5q-1 49 29.5 86t92.5 77l82 -42q-105 -65 -105 -111q0 -33 38 -33q26 0 50 30l79 -55q-58 -60 -134 -60z" />
    <glyph glyph-name="pi" unicode="&#x3c0;" horiz-adv-x="779" 
d="M36 600v130h706v-130h-129v-394q0 -45 11 -57t53 -12h65v-137h-103q-96 0 -129 47.5t-33 153.5l1 399h-184v-600h-136v600h-122z" />
    <glyph glyph-name="pi" unicode="&#x3d6;" horiz-adv-x="779" 
d="M36 600v130h706v-130h-129v-394q0 -45 11 -57t53 -12h65v-137h-103q-96 0 -129 47.5t-33 153.5l1 399h-184v-600h-136v600h-122z" />
    <glyph glyph-name="uni0E3F" unicode="&#xe3f;" horiz-adv-x="489" 
d="M36 61v596h178v73h69v-74q182 -12 182 -167q0 -80 -66 -120q71 -43 71 -128q1 -82 -48 -126t-139 -53v-62h-69v61h-178zM170 305v-124h44v124h-44zM170 538v-111h44v111h-44zM334 245q0 47 -51 57v-118q51 13 51 61zM332 485q0 42 -49 51v-107q49 10 49 56z" />
    <glyph glyph-name="Wgrave" unicode="&#x1e80;" horiz-adv-x="1023" 
d="M222 0l-208 730h142l138 -511l153 511h134l152 -509l137 509h137l-206 -730h-135l-153 515l-153 -515h-138zM462 780l-150 170h127l114 -170h-91z" />
    <glyph glyph-name="wgrave" unicode="&#x1e81;" horiz-adv-x="995" 
d="M213 0l-195 585h138l129 -403l147 403h134l144 -404l134 404h137l-205 -585h-130l-148 405l-152 -405h-133zM454 635l-150 170h127l114 -170h-91z" />
    <glyph glyph-name="Wacute" unicode="&#x1e82;" horiz-adv-x="1023" 
d="M222 0l-208 730h142l138 -511l153 511h134l152 -509l137 509h137l-206 -730h-135l-153 515l-153 -515h-138zM463 780l115 170h126l-150 -170h-91z" />
    <glyph glyph-name="wacute" unicode="&#x1e83;" horiz-adv-x="995" 
d="M213 0l-195 585h138l129 -403l147 403h134l144 -404l134 404h137l-205 -585h-130l-148 405l-152 -405h-133zM452 636l115 170h126l-150 -170h-91z" />
    <glyph glyph-name="Wdieresis" unicode="&#x1e84;" horiz-adv-x="1023" 
d="M222 0l-208 730h142l138 -511l153 511h134l152 -509l137 509h137l-206 -730h-135l-153 515l-153 -515h-138zM345 849q0 32 19.5 52t52.5 20t52.5 -19.5t19.5 -52.5t-19.5 -52t-52.5 -19t-52.5 19t-19.5 52zM536 849q0 32 19.5 52t52.5 20t52.5 -20t19.5 -52t-19.5 -51.5
t-52.5 -19.5q-35 0 -53.5 19t-18.5 52z" />
    <glyph glyph-name="wdieresis" unicode="&#x1e85;" horiz-adv-x="995" 
d="M213 0l-195 585h138l129 -403l147 403h134l144 -404l134 404h137l-205 -585h-130l-148 405l-152 -405h-133zM334 702q0 32 19.5 52t52.5 20t52.5 -19.5t19.5 -52.5q0 -32 -19 -51.5t-53 -19.5t-53 19.5t-19 51.5zM525 702q0 32 19.5 52t52.5 20t52.5 -20t19.5 -52
t-19.5 -51.5t-52.5 -19.5q-35 0 -53.5 19t-18.5 52z" />
    <glyph glyph-name="Ygrave" unicode="&#x1ef2;" horiz-adv-x="629" 
d="M245 0v346l-232 384h150l151 -253l152 253h150l-235 -387v-343h-136zM266 780l-150 170h127l114 -170h-91z" />
    <glyph glyph-name="ygrave" unicode="&#x1ef3;" horiz-adv-x="618" 
d="M123 -270l123 299l-240 556h144l163 -394l154 394h142l-349 -855h-137zM265 637l-150 170h127l114 -170h-91z" />
    <glyph glyph-name="figuredash" unicode="&#x2012;" horiz-adv-x="623" 
d="M36 197v115h551v-115h-551z" />
    <glyph glyph-name="endash" unicode="&#x2013;" horiz-adv-x="473" 
d="M36 197v115h401v-115h-401z" />
    <glyph glyph-name="emdash" unicode="&#x2014;" horiz-adv-x="673" 
d="M36 197v115h601v-115h-601z" />
    <glyph glyph-name="uni2015" unicode="&#x2015;" horiz-adv-x="973" 
d="M36 197v115h901v-115h-901z" />
    <glyph glyph-name="uni2016" unicode="&#x2016;" horiz-adv-x="406" 
d="M36 -230v960h136v-960h-136zM234 -230v960h136v-960h-136z" />
    <glyph glyph-name="quoteleft" unicode="&#x2018;" horiz-adv-x="207" 
d="M142 730l34 -204h-83l-70 204h119z" />
    <glyph glyph-name="quoteright" unicode="&#x2019;" horiz-adv-x="207" 
d="M111 526h-83l34 204h119z" />
    <glyph glyph-name="quotesinglbase" unicode="&#x201a;" horiz-adv-x="207" 
d="M105 -117h-83l34 204h119z" />
    <glyph glyph-name="quotereversed" unicode="&#x201b;" horiz-adv-x="207" 
d="M111 526h-83l34 204h119z" />
    <glyph glyph-name="quotedblleft" unicode="&#x201c;" horiz-adv-x="368" 
d="M145 730l35 -204h-83l-70 204h118zM306 730l35 -204h-84l-69 204h118z" />
    <glyph glyph-name="quotedblright" unicode="&#x201d;" horiz-adv-x="368" 
d="M111 526h-83l34 204h119zM272 526h-83l34 204h119z" />
    <glyph glyph-name="quotedblbase" unicode="&#x201e;" horiz-adv-x="368" 
d="M105 -117h-83l34 204h119zM266 -117h-83l34 204h119z" />
    <glyph glyph-name="uni201F" unicode="&#x201f;" horiz-adv-x="368" 
d="M111 526h-83l34 204h119zM272 526h-83l34 204h119z" />
    <glyph glyph-name="dagger" unicode="&#x2020;" horiz-adv-x="526" 
d="M36 379v121h159v230h136v-230h158v-121h-158v-379h-136v379h-159z" />
    <glyph glyph-name="daggerdbl" unicode="&#x2021;" horiz-adv-x="526" 
d="M36 435v120h159v175h136v-175h158v-120h-158v-131h158v-120h-158v-184h-136v184h-159v120h159v131h-159z" />
    <glyph glyph-name="bullet" unicode="&#x2022;" horiz-adv-x="395" 
d="M198 144q-45 0 -78 33t-33 78t33 78t78 33t78 -33t33 -78t-33 -78t-78 -33z" />
    <glyph glyph-name="ellipsis" unicode="&#x2026;" horiz-adv-x="577" 
d="M33 62q0 33 20 53.5t54 20.5q35 0 54 -20t19 -54q0 -33 -19.5 -53t-54.5 -20q-33 0 -53 20t-20 53zM215 62q0 33 20 53.5t54 20.5q35 0 54 -20t19 -54q0 -33 -19.5 -53t-54.5 -20q-33 0 -53 20t-20 53zM397 62q0 33 20 53.5t54 20.5q35 0 54 -20t19 -54q0 -33 -19.5 -53
t-54.5 -20q-33 0 -53 20t-20 53z" />
    <glyph glyph-name="perthousand" unicode="&#x2030;" horiz-adv-x="1204" 
d="M13 0l627 730h172l-627 -730h-172zM625 -11q-74 0 -126.5 52.5t-52.5 126.5t52.5 126t126.5 52t126 -52t52 -126t-52 -126.5t-126 -52.5zM625 103q26 0 45 19t19 46q0 26 -19 45.5t-45 19.5q-27 0 -46 -19.5t-19 -45.5q0 -27 19 -46t46 -19zM201 383q-74 0 -126.5 52.5
t-52.5 126.5t52.5 126t126.5 52t126 -52t52 -126t-52 -126.5t-126 -52.5zM201 496q26 0 45.5 19.5t19.5 46.5q0 26 -19.5 45.5t-45.5 19.5t-45.5 -19.5t-19.5 -45.5q0 -27 19.5 -46.5t45.5 -19.5zM1003 -11q-74 0 -126 52.5t-52 126.5t52 126t126 52t126.5 -52t52.5 -126
t-52.5 -126.5t-126.5 -52.5zM1003 103q26 0 45.5 19t19.5 46q0 26 -19.5 45.5t-45.5 19.5t-45.5 -19.5t-19.5 -45.5q0 -27 19.5 -46t45.5 -19z" />
    <glyph glyph-name="minute" unicode="&#x2032;" horiz-adv-x="207" 
d="M111 526h-83l34 204h119z" />
    <glyph glyph-name="second" unicode="&#x2033;" horiz-adv-x="368" 
d="M111 526h-83l34 204h119zM272 526h-83l34 204h119z" />
    <glyph glyph-name="uni2034" unicode="&#x2034;" horiz-adv-x="468" 
d="M107 500h-37q-9 19 -21.5 71t-12.5 75v84h105v-84q0 -23 -12.5 -74.5t-21.5 -71.5zM252 500h-37q-9 19 -21 71t-12 75v84h105v-84q0 -24 -13 -75t-22 -71zM398 500h-37q-9 19 -21.5 71t-12.5 75v84h105v-84q0 -23 -12.5 -74.5t-21.5 -71.5z" />
    <glyph glyph-name="guilsinglleft" unicode="&#x2039;" horiz-adv-x="275" 
d="M222 95l-169 119v83l169 119v-101l-89 -60l89 -59v-101z" />
    <glyph glyph-name="guilsinglright" unicode="&#x203a;" horiz-adv-x="275" 
d="M53 96v101l89 59l-89 60v101l169 -119v-83z" />
    <glyph glyph-name="fraction" unicode="&#x2044;" horiz-adv-x="704" 
d="M11 0l527 730h156l-527 -730h-156z" />
    <glyph glyph-name="uni2070" unicode="&#x2070;" horiz-adv-x="454" 
d="M226 302q-90 0 -152.5 63.5t-62.5 153.5t62.5 153.5t152.5 63.5q91 0 154 -63.5t63 -153.5q0 -91 -62.5 -154t-154.5 -63zM226 413q45 0 73.5 30.5t28.5 75.5t-29 75.5t-73 30.5t-72.5 -30.5t-28.5 -75.5t28.5 -75.5t72.5 -30.5z" />
    <glyph glyph-name="uni2074" unicode="&#x2074;" horiz-adv-x="363" 
d="M183 308v84h-169v99l168 239h105v-243h62v-95h-62v-84h-104zM130 487h53v77z" />
    <glyph glyph-name="uni2075" unicode="&#x2075;" horiz-adv-x="320" 
d="M157 302q-51 0 -91 21t-61 57l108 57q14 -29 44 -29q19 0 30.5 11.5t11.5 30.5q0 18 -12 29t-32 11q-30 0 -43 -27l-102 35l32 232h242v-103h-155l-7 -45q23 9 49 9q64 0 101.5 -37.5t37.5 -103.5t-43 -107t-110 -41z" />
    <glyph glyph-name="uni2076" unicode="&#x2076;" horiz-adv-x="352" 
d="M176 302q-72 0 -118.5 44.5t-46.5 111.5q0 55 41 123l94 149h129l-76 -119q62 -2 102 -44t40 -109t-46.5 -111.5t-118.5 -44.5zM176 406q23 0 39 15.5t16 38.5q0 22 -16 37.5t-39 15.5t-37.5 -15.5t-14.5 -38.5q0 -22 14.5 -37.5t37.5 -15.5z" />
    <glyph glyph-name="uni2077" unicode="&#x2077;" horiz-adv-x="307" 
d="M28 308l148 318h-162v104h279v-98l-144 -324h-121z" />
    <glyph glyph-name="uni2078" unicode="&#x2078;" horiz-adv-x="328" 
d="M163 302q-65 0 -107 38t-42 102q0 54 40 91q-28 31 -28 76q0 60 38 93.5t99 33.5q62 0 100.5 -33.5t38.5 -93.5q0 -43 -26 -75q37 -37 37 -92q0 -64 -42.5 -102t-107.5 -38zM163 398q20 0 32.5 12.5t12.5 31.5q0 18 -12.5 30t-32.5 12t-32 -12t-12 -30q0 -19 12 -31.5
t32 -12.5zM163 574q18 0 28 10t10 25t-10 25t-27 10t-27 -10t-10 -25t9.5 -25t26.5 -10z" />
    <glyph glyph-name="uni2079" unicode="&#x2079;" horiz-adv-x="352" 
d="M78 308l75 120q-60 0 -101 42t-41 110q0 67 46.5 111.5t118.5 44.5t118.5 -44.5t46.5 -111.5q0 -61 -41 -123l-94 -149h-128zM176 525q23 0 38.5 15.5t15.5 38.5t-15.5 38t-38.5 15t-38 -15t-15 -38t15 -38.5t38 -15.5z" />
    <glyph glyph-name="uni207A" unicode="&#x207a;" horiz-adv-x="247" 
d="M16 473v91h63v61h88v-61h63v-91h-63v-61h-88v61h-63z" />
    <glyph glyph-name="uni207B" unicode="&#x207b;" horiz-adv-x="247" 
d="M16 473v90h214v-90h-214z" />
    <glyph glyph-name="uni207C" unicode="&#x207c;" horiz-adv-x="241" 
d="M14 526v86h213v-86h-213zM14 423v87h213v-87h-213z" />
    <glyph glyph-name="uni207D" unicode="&#x207d;" horiz-adv-x="266" 
d="M240 307l-67 -91q-151 114 -151 301q0 183 150 300l68 -91q-105 -77 -105 -209q0 -129 105 -210z" />
    <glyph glyph-name="uni207E" unicode="&#x207e;" horiz-adv-x="266" 
d="M94 216l-68 91q105 81 105 210q0 132 -105 209l68 91q150 -117 150 -300q0 -185 -150 -301z" />
    <glyph glyph-name="uni2080" unicode="&#x2080;" horiz-adv-x="454" 
d="M226 -6q-90 0 -152.5 63.5t-62.5 153.5t62.5 153.5t152.5 63.5q91 0 154 -63.5t63 -153.5q0 -91 -62.5 -154t-154.5 -63zM226 105q45 0 73.5 30.5t28.5 75.5t-29 75.5t-73 30.5t-72.5 -30.5t-28.5 -75.5t28.5 -75.5t72.5 -30.5z" />
    <glyph glyph-name="uni2081" unicode="&#x2081;" horiz-adv-x="298" 
d="M14 0v104h81v166q-20 -26 -63 -26h-6v107h3q38 0 54 21.5t16 49.5h109v-318h78v-104h-272z" />
    <glyph glyph-name="uni2082" unicode="&#x2082;" horiz-adv-x="330" 
d="M14 0v83q0 56 32 91t83 61l16.5 9.5l16 9t13.5 8t12.5 9l8.5 8.5t6.5 10t1.5 10q0 14 -11 23t-30 9q-40 0 -62 -54l-97 50q50 101 161 101q69 0 111.5 -35.5t42.5 -92.5q0 -53 -32.5 -86t-85.5 -60q-55 -30 -63 -42q-2 -4 -3 -8h181v-104h-302z" />
    <glyph glyph-name="uni2083" unicode="&#x2083;" horiz-adv-x="325" 
d="M158 -6q-100 0 -153 53l85 77q27 -28 61 -28q45 0 45 36q0 33 -59 33h-44v98h42q52 0 52 36q0 31 -43 31q-36 0 -52 -28l-80 69q24 26 61.5 41.5t74.5 15.5q70 0 113.5 -34t43.5 -91q0 -50 -42 -83q52 -31 52 -91q0 -58 -43 -96.5t-114 -38.5z" />
    <glyph glyph-name="uni2084" unicode="&#x2084;" horiz-adv-x="363" 
d="M183 0v84h-169v99l168 239h105v-243h62v-95h-62v-84h-104zM130 179h53v77z" />
    <glyph glyph-name="uni2085" unicode="&#x2085;" horiz-adv-x="320" 
d="M157 -6q-51 0 -91 21t-61 57l108 57q14 -29 44 -29q19 0 30.5 11.5t11.5 30.5q0 18 -12 29t-32 11q-30 0 -43 -27l-102 35l32 232h242v-103h-155l-7 -45q23 9 49 9q64 0 101.5 -37.5t37.5 -103.5t-43 -107t-110 -41z" />
    <glyph glyph-name="uni2086" unicode="&#x2086;" horiz-adv-x="352" 
d="M176 -6q-72 0 -118.5 44.5t-46.5 111.5q0 55 41 123l94 149h129l-76 -119q62 -2 102 -44t40 -109t-46.5 -111.5t-118.5 -44.5zM176 98q23 0 39 15.5t16 38.5q0 22 -16 37.5t-39 15.5t-37.5 -15.5t-14.5 -38.5q0 -22 14.5 -37.5t37.5 -15.5z" />
    <glyph glyph-name="uni2087" unicode="&#x2087;" horiz-adv-x="307" 
d="M28 0l148 318h-162v104h279v-98l-144 -324h-121z" />
    <glyph glyph-name="uni2088" unicode="&#x2088;" horiz-adv-x="328" 
d="M163 -6q-65 0 -107 38t-42 102q0 54 40 91q-28 31 -28 76q0 60 38 93.5t99 33.5q62 0 100.5 -33.5t38.5 -93.5q0 -43 -26 -75q37 -37 37 -92q0 -64 -42.5 -102t-107.5 -38zM163 90q20 0 32.5 12.5t12.5 31.5q0 18 -12.5 30t-32.5 12t-32 -12t-12 -30q0 -19 12 -31.5
t32 -12.5zM163 266q18 0 28 10t10 25t-10 25t-27 10t-27 -10t-10 -25t9.5 -25t26.5 -10z" />
    <glyph glyph-name="uni2089" unicode="&#x2089;" horiz-adv-x="352" 
d="M78 0l75 120q-60 0 -101 42t-41 110q0 67 46.5 111.5t118.5 44.5t118.5 -44.5t46.5 -111.5q0 -61 -41 -123l-94 -149h-128zM176 217q23 0 38.5 15.5t15.5 38.5t-15.5 38t-38.5 15t-38 -15t-15 -38t15 -38.5t38 -15.5z" />
    <glyph glyph-name="uni208A" unicode="&#x208a;" horiz-adv-x="247" 
d="M16 165v91h63v61h88v-61h63v-91h-63v-61h-88v61h-63z" />
    <glyph glyph-name="uni208B" unicode="&#x208b;" horiz-adv-x="247" 
d="M16 165v90h214v-90h-214z" />
    <glyph glyph-name="uni208C" unicode="&#x208c;" horiz-adv-x="241" 
d="M14 218v86h213v-86h-213zM14 115v87h213v-87h-213z" />
    <glyph glyph-name="uni208D" unicode="&#x208d;" horiz-adv-x="266" 
d="M240 -1l-67 -91q-151 114 -151 301q0 183 150 300l68 -91q-105 -77 -105 -209q0 -129 105 -210z" />
    <glyph glyph-name="uni208E" unicode="&#x208e;" horiz-adv-x="266" 
d="M94 -92l-68 91q105 81 105 210q0 132 -105 209l68 91q150 -117 150 -300q0 -185 -150 -301z" />
    <glyph glyph-name="colonmonetary" unicode="&#x20a1;" horiz-adv-x="738" 
d="M149 -120h-73l78 192q-132 107 -132 293q0 162 108 268.5t267 106.5q19 0 30 -1l42 101h75l-47 -114q21 -4 48 -17l54 131h75l-68 -164q69 -46 111 -117l-119 -76q-23 40 -46 61l-172 -418h14q67 0 118.5 33.5t82.5 89.5l122 -70q-52 -89 -133 -139t-187 -50q-25 0 -71 6
l-47 -116h-74l54 133q-28 12 -47 21zM157 365q0 -89 54 -155l161 395q-94 -8 -154.5 -76t-60.5 -164zM446 601l-181 -439q20 -13 46 -22l183 445q-26 12 -48 16z" />
    <glyph glyph-name="uni20A2" unicode="&#x20a2;" horiz-adv-x="738" 
d="M397 -10q-166 0 -270.5 108t-104.5 267q0 162 108 268.5t267 106.5q101 0 186 -49t134 -132l-119 -76q-70 123 -201 123q-104 0 -172 -69t-68 -172q0 -76 39 -135.5t105 -85.5v296h133v-82q39 82 138 82h27v-130h-57q-57 0 -82 -31t-25 -102v-48q115 19 170 132l122 -67
q-48 -96 -134.5 -150t-195.5 -54z" />
    <glyph glyph-name="franc" unicode="&#x20a3;" horiz-adv-x="486" 
d="M36 0v730h413v-130h-277v-101h277v-114h-277v-61h277v-115h-277v-209h-136z" />
    <glyph glyph-name="lira" unicode="&#x20a4;" horiz-adv-x="705" 
d="M85 379v98h68q-4 17 -4 47q0 95 64.5 155.5t166.5 60.5q91 0 150 -38t80 -106l-128 -47q-19 73 -101 73q-47 0 -75.5 -28t-28.5 -68q0 -21 5 -49h210v-98h-173l14 -33h159v-98h-126q7 -35 7 -65q0 -25 -7 -55q56 -30 92 -30q40 0 56 18.5t16 63.5v48h139v-65
q0 -173 -177 -173q-80 0 -173 56q-55 -57 -130 -57q-138 0 -138 104q0 48 34.5 78.5t87.5 30.5q50 0 112 -30q1 2 1 10q0 32 -14 66h-187v98h128q-11 15 -21 33h-107zM189 69q32 0 58 23q-38 24 -68 24q-27 0 -27 -22q0 -25 37 -25z" />
    <glyph glyph-name="uni20A6" unicode="&#x20a6;" horiz-adv-x="808" 
d="M30 389v66h90v275h145l153 -275h134v275h136v-275h90v-66h-90v-33h90v-66h-90v-290h-135l-162 290h-135v-290h-136v290h-90v66h90v33h-90zM256 389v-33h98l-19 33h-79zM455 389l19 -33h78v33h-97zM298 455l-42 76v-76h42zM511 290l41 -74v74h-41z" />
    <glyph glyph-name="peseta" unicode="&#x20a7;" horiz-adv-x="1396" 
d="M619 380h-85q-27 -76 -94 -123.5t-155 -47.5h-113v-209h-136v730h250q105 0 178 -65.5t83 -164.5h72v117l134 74v-191h105v-120h-105v-163q0 -60 16.5 -76t79.5 -16h242q72 0 72 40q0 20 -23.5 28t-72.5 15q-6 1 -9 1q-33 5 -52 9t-47.5 14.5t-44 24t-27.5 38t-12 56.5
q0 71 54.5 116t143.5 43q156 0 217 -114l-118 -51q-25 55 -94 55q-67 0 -67 -40q0 -18 25.5 -25.5t82.5 -15.5q30 -5 50.5 -10t46.5 -16.5t42 -26t27.5 -39.5t11.5 -58q0 -72 -50.5 -121.5t-161.5 -47.5h-256q-119 0 -164.5 47t-45.5 169v164zM277 604h-105v-269h105
q60 0 97.5 39t37.5 96t-37.5 95.5t-97.5 38.5z" />
    <glyph glyph-name="uni20A8" unicode="&#x20a8;" horiz-adv-x="987" 
d="M734 -1q-52 0 -98 7t-105.5 29.5t-113.5 60.5t-116 105.5t-119 158.5h68q74 0 110 39t36 87q0 58 -34.5 87.5t-111.5 29.5h-78v-603h-136v730h229q122 0 195 -69.5t73 -174.5q0 -68 -32 -125t-94 -86q75 -89 155 -120t181 -31q86 0 86 41q0 10 -7 17.5t-25.5 12.5t-31 7
t-41.5 6q-32 5 -52 9t-47.5 15t-43.5 24.5t-28 38t-12 56.5q0 71 54.5 116t143.5 43q156 0 217 -114l-118 -51q-25 55 -94 55q-67 0 -67 -40q0 -6 2.5 -10.5t9 -8t12.5 -6t17 -5t19.5 -4l23.5 -4t24 -4.5q36 -5 63 -12.5t55.5 -23.5t44 -44.5t15.5 -68.5q0 -33 -11 -62
t-36 -54.5t-71.5 -40t-110.5 -13.5z" />
    <glyph glyph-name="uni20A9" unicode="&#x20a9;" horiz-adv-x="1078" 
d="M26 389v66h91l-78 275h142l74 -275h143l83 275h124l82 -275h143l74 275h138l-78 -275h89v-66h-108l-10 -33h118v-66h-136l-82 -290h-134l-87 290h-143l-86 -290h-139l-83 290h-137v66h119l-10 33h-109zM273 389l9 -33h87l10 33h-106zM707 389l10 -33h86l9 33h-105z
M501 389l-10 -33h104l-10 33h-84zM349 290h-49l23 -86zM786 290h-49l26 -86zM565 455l-22 75l-23 -75h45z" />
    <glyph glyph-name="uni20AA" unicode="&#x20aa;" horiz-adv-x="802" 
d="M234 0v550q87 0 111.5 -20.5t24.5 -94.5v-309h69q112 0 151 37.5t39 133.5v433h136v-433q0 -297 -313 -297h-218zM36 0v730h218q314 0 314 -297v-135q0 -67 -28 -92t-108 -25v252q0 98 -38.5 134.5t-152.5 36.5h-69v-604h-136z" />
    <glyph glyph-name="Euro" unicode="&#x20ac;" horiz-adv-x="588" 
d="M31 411v106h91q6 96 75 159.5t172 63.5q115 0 186 -78l-102 -91q-33 35 -84 35q-46 0 -74.5 -24.5t-35.5 -64.5h224l-18 -106h-208v-92h194l-17 -106h-176q14 -88 108 -88q50 0 85 46l122 -80q-66 -101 -206 -101q-114 0 -178 60.5t-68 162.5h-90v106h90v92h-90z" />
    <glyph glyph-name="uni20AE" unicode="&#x20ae;" horiz-adv-x="598" 
d="M121 300v75l110 45v180h-195v130h526v-130h-195v-124l107 44v-75l-107 -44v-56l107 44v-75l-107 -44v-270h-136v214l-110 -45v75l110 45v56z" />
    <glyph glyph-name="uni20B1" unicode="&#x20b1;" horiz-adv-x="726" 
d="M35 488v66h77v176h250q89 0 155.5 -48.5t93.5 -127.5h90v-66h-77q1 -7 1 -18q0 -12 -1 -15h77v-66h-89q-24 -79 -93 -129.5t-158 -50.5h-113v-209h-136v389h-77v66h77v33h-77zM248 335h104q72 0 110 54h-214v-54zM352 604h-104v-50h211q-39 50 -107 50zM488 470
q0 4 -0.5 9t-0.5 9h-239v-33h239q0 3 0.5 8t0.5 7z" />
    <glyph glyph-name="uni2117" unicode="&#x2117;" horiz-adv-x="790" 
d="M395 -16q-156 0 -264.5 109.5t-108.5 265.5t108.5 265.5t264.5 109.5t265 -109.5t109 -265.5t-109 -265.5t-265 -109.5zM395 88q111 0 189.5 79.5t78.5 191.5t-78.5 191.5t-189.5 79.5q-113 0 -189 -79t-76 -192t76 -192t189 -79zM253 165v384h184q61 0 104 -43t43 -105
q0 -61 -42 -104.5t-104 -43.5h-72v-88h-113zM418 455h-52v-108h52q23 0 38.5 16t15.5 38t-15.5 38t-38.5 16z" />
    <glyph glyph-name="uni2120" unicode="&#x2120;" horiz-adv-x="627" 
d="M272 440v290h91l70 -92l75 92h83v-290h-96v141l-64 -72l-63 72v-141h-96zM136 433q-80 0 -123 59l82 52q5 -11 17.5 -20t23.5 -9q8 0 14 4.5t6 10.5q0 9 -21 15.5t-45.5 12.5t-45.5 28t-21 58q0 39 32.5 65.5t82.5 26.5q68 0 108 -54l-73 -46q-15 24 -35 24
q-22 0 -22 -13q0 -4 21 -10.5l45.5 -14.5t45.5 -30.5t21 -55.5q0 -47 -31 -75t-82 -28z" />
    <glyph glyph-name="trademark" unicode="&#x2122;" horiz-adv-x="650" 
d="M295 440v290h91l70 -91l75 91h83v-290h-96v141l-64 -72l-63 72v-141h-96zM99 440v201h-73v89h239v-89h-71v-201h-95z" />
    <glyph glyph-name="onethird" unicode="&#x2153;" horiz-adv-x="884" 
d="M85 0l527 730h156l-527 -730h-156zM717 -6q-100 0 -153 53l85 77q27 -28 61 -28q45 0 45 36q0 33 -59 33h-44v98h42q52 0 52 36q0 31 -43 31q-36 0 -52 -28l-80 69q24 26 61.5 41.5t74.5 15.5q70 0 113.5 -34t43.5 -91q0 -50 -42 -83q52 -31 52 -91q0 -58 -43 -96.5
t-114 -38.5zM14 308v104h81v166q-20 -26 -63 -26h-6v107h3q38 0 54 21.5t16 49.5h109v-318h78v-104h-272z" />
    <glyph glyph-name="twothirds" unicode="&#x2154;" horiz-adv-x="913" 
d="M114 0l527 730h156l-527 -730h-156zM14 308v83q0 56 32 91t83 61l16.5 9.5l16 9t13.5 8t12.5 9l8.5 8.5t6.5 10t1.5 10q0 14 -11 23t-30 9q-40 0 -62 -54l-97 50q50 101 161 101q69 0 111.5 -35.5t42.5 -92.5q0 -53 -32.5 -86t-85.5 -60q-55 -30 -63 -42q-2 -4 -3 -8h181
v-104h-302zM746 -6q-100 0 -153 53l85 77q27 -28 61 -28q45 0 45 36q0 33 -59 33h-44v98h42q52 0 52 36q0 31 -43 31q-36 0 -52 -28l-80 69q24 26 61.5 41.5t74.5 15.5q70 0 113.5 -34t43.5 -91q0 -50 -42 -83q52 -31 52 -91q0 -58 -43 -96.5t-114 -38.5z" />
    <glyph glyph-name="uni2155" unicode="&#x2155;" horiz-adv-x="847" 
d="M85 0l527 730h156l-527 -730h-156zM684 -6q-106 0 -152 78l108 57q14 -29 44 -29q19 0 30.5 11.5t11.5 30.5q0 18 -12 29t-32 11q-30 0 -43 -27l-102 35l32 232h242v-103h-155l-7 -45q23 9 49 9q64 0 101.5 -37.5t37.5 -103.5t-43 -107t-110 -41zM14 308v104h81v166
q-20 -26 -63 -26h-6v107h3q38 0 54 21.5t16 49.5h109v-318h78v-104h-272z" />
    <glyph glyph-name="uni2156" unicode="&#x2156;" horiz-adv-x="877" 
d="M114 0l527 730h156l-527 -730h-156zM14 308v83q0 56 32 91t83 61l16.5 9.5l16 9t13.5 8t12.5 9l8.5 8.5t6.5 10t1.5 10q0 14 -11 23t-30 9q-40 0 -62 -54l-97 50q50 101 161 101q69 0 111.5 -35.5t42.5 -92.5q0 -53 -32.5 -86t-85.5 -60q-55 -30 -63 -42q-2 -4 -3 -8h181
v-104h-302zM713 -6q-106 0 -152 78l108 57q14 -29 44 -29q19 0 30.5 11.5t11.5 30.5q0 18 -12 29t-32 11q-30 0 -43 -27l-102 35l32 232h242v-103h-155l-7 -45q23 9 49 9q64 0 101.5 -37.5t37.5 -103.5t-43 -107t-110 -41z" />
    <glyph glyph-name="uni2157" unicode="&#x2157;" horiz-adv-x="854" 
d="M92 0l527 730h156l-527 -730h-156zM691 -6q-51 0 -91 21t-61 57l108 57q14 -29 44 -29q19 0 30.5 11.5t11.5 30.5q0 18 -12 29t-32 11q-30 0 -43 -27l-102 35l32 232h242v-103h-155l-7 -45q23 9 49 9q64 0 101.5 -37.5t37.5 -103.5t-43 -107t-110 -41zM158 302
q-100 0 -153 53l85 77q27 -28 61 -28q45 0 45 36q0 33 -59 33h-44v98h42q52 0 52 36q0 31 -43 31q-36 0 -52 -28l-80 69q24 26 61.5 41.5t74.5 15.5q70 0 113.5 -34t43.5 -91q0 -50 -42 -83q52 -31 52 -91q0 -58 -43 -96.5t-114 -38.5z" />
    <glyph glyph-name="uni2158" unicode="&#x2158;" horiz-adv-x="848" 
d="M85 0l527 730h156l-527 -730h-156zM685 -6q-51 0 -91 21t-61 57l108 57q14 -29 44 -29q19 0 30.5 11.5t11.5 30.5q0 18 -12 29t-32 11q-30 0 -43 -27l-102 35l32 232h242v-103h-155l-7 -45q23 9 49 9q64 0 101.5 -37.5t37.5 -103.5t-43 -107t-110 -41zM183 308v84h-169
v99l168 239h105v-243h62v-95h-62v-84h-104zM130 487h53v77z" />
    <glyph glyph-name="uni2159" unicode="&#x2159;" horiz-adv-x="881" 
d="M85 0l527 730h156l-527 -730h-156zM705 -6q-72 0 -118.5 44.5t-46.5 111.5q0 55 41 123l94 149h129l-76 -119q62 -2 102 -44t40 -109t-46.5 -111.5t-118.5 -44.5zM14 308v104h81v166q-20 -26 -63 -26h-6v107h3q38 0 54 21.5t16 49.5h109v-318h78v-104h-272zM705 98
q23 0 39 15.5t16 38.5q0 22 -16 37.5t-39 15.5t-37.5 -15.5t-14.5 -38.5q0 -22 14.5 -37.5t37.5 -15.5z" />
    <glyph glyph-name="uni215A" unicode="&#x215a;" horiz-adv-x="878" 
d="M83 0l527 730h156l-527 -730h-156zM702 -6q-72 0 -118.5 44.5t-46.5 111.5q0 55 41 123l94 149h129l-76 -119q62 -2 102 -44t40 -109t-46.5 -111.5t-118.5 -44.5zM157 302q-51 0 -91 21t-61 57l108 57q14 -29 44 -29q19 0 30.5 11.5t11.5 30.5q0 18 -12 29t-32 11
q-30 0 -43 -27l-102 35l32 232h242v-103h-155l-7 -45q23 9 49 9q64 0 101.5 -37.5t37.5 -103.5t-43 -107t-110 -41zM702 98q23 0 39 15.5t16 38.5q0 22 -16 37.5t-39 15.5t-37.5 -15.5t-14.5 -38.5q0 -22 14.5 -37.5t37.5 -15.5z" />
    <glyph glyph-name="oneeighth" unicode="&#x215b;" horiz-adv-x="856" 
d="M85 0l527 730h156l-527 -730h-156zM691 -6q-65 0 -107 38t-42 102q0 54 40 91q-28 31 -28 76q0 60 38 93.5t99 33.5q62 0 100.5 -33.5t38.5 -93.5q0 -43 -26 -75q37 -37 37 -92q0 -64 -42.5 -102t-107.5 -38zM14 308v104h81v166q-20 -26 -63 -26h-6v107h3q38 0 54 21.5
t16 49.5h109v-318h78v-104h-272zM691 90q20 0 32.5 12.5t12.5 31.5q0 18 -12.5 30t-32.5 12t-32 -12t-12 -30q0 -19 12 -31.5t32 -12.5zM691 266q18 0 28 10t10 25t-10 25t-27 10t-27 -10t-10 -25t9.5 -25t26.5 -10z" />
    <glyph glyph-name="threeeighths" unicode="&#x215c;" horiz-adv-x="862" 
d="M92 0l527 730h156l-527 -730h-156zM698 -6q-65 0 -107 38t-42 102q0 54 40 91q-28 31 -28 76q0 60 38 93.5t99 33.5q62 0 100.5 -33.5t38.5 -93.5q0 -43 -26 -75q37 -37 37 -92q0 -64 -42.5 -102t-107.5 -38zM158 302q-100 0 -153 53l85 77q27 -28 61 -28q45 0 45 36
q0 33 -59 33h-44v98h42q52 0 52 36q0 31 -43 31q-36 0 -52 -28l-80 69q24 26 61.5 41.5t74.5 15.5q70 0 113.5 -34t43.5 -91q0 -50 -42 -83q52 -31 52 -91q0 -58 -43 -96.5t-114 -38.5zM698 90q20 0 32.5 12.5t12.5 31.5q0 18 -12.5 30t-32.5 12t-32 -12t-12 -30
q0 -19 12 -31.5t32 -12.5zM698 266q18 0 28 10t10 25t-10 25t-27 10t-27 -10t-10 -25t9.5 -25t26.5 -10z" />
    <glyph glyph-name="fiveeighths" unicode="&#x215d;" horiz-adv-x="853" 
d="M83 0l527 730h156l-527 -730h-156zM688 -6q-65 0 -107 38t-42 102q0 54 40 91q-28 31 -28 76q0 60 38 93.5t99 33.5q62 0 100.5 -33.5t38.5 -93.5q0 -43 -26 -75q37 -37 37 -92q0 -64 -42.5 -102t-107.5 -38zM157 302q-51 0 -91 21t-61 57l108 57q14 -29 44 -29
q19 0 30.5 11.5t11.5 30.5q0 18 -12 29t-32 11q-30 0 -43 -27l-102 35l32 232h242v-103h-155l-7 -45q23 9 49 9q64 0 101.5 -37.5t37.5 -103.5t-43 -107t-110 -41zM688 90q20 0 32.5 12.5t12.5 31.5q0 18 -12.5 30t-32.5 12t-32 -12t-12 -30q0 -19 12 -31.5t32 -12.5z
M688 266q18 0 28 10t10 25t-10 25t-27 10t-27 -10t-10 -25t9.5 -25t26.5 -10z" />
    <glyph glyph-name="seveneighths" unicode="&#x215e;" horiz-adv-x="827" 
d="M57 0l527 730h156l-527 -730h-156zM662 -6q-65 0 -107 38t-42 102q0 54 40 91q-28 31 -28 76q0 60 38 93.5t99 33.5q62 0 100.5 -33.5t38.5 -93.5q0 -43 -26 -75q37 -37 37 -92q0 -64 -42.5 -102t-107.5 -38zM28 308l148 318h-162v104h279v-98l-144 -324h-121zM662 90
q20 0 32.5 12.5t12.5 31.5q0 18 -12.5 30t-32.5 12t-32 -12t-12 -30q0 -19 12 -31.5t32 -12.5zM662 266q18 0 28 10t10 25t-10 25t-27 10t-27 -10t-10 -25t9.5 -25t26.5 -10z" />
    <glyph glyph-name="uni215F" unicode="&#x215f;" horiz-adv-x="779" 
d="M85 0l527 730h156l-527 -730h-156zM14 308v104h81v166q-20 -26 -63 -26h-6v107h3q38 0 54 21.5t16 49.5h109v-318h78v-104h-272z" />
    <glyph glyph-name="arrowleft" unicode="&#x2190;" horiz-adv-x="896" 
d="M419 142l-110 -76q-37 79 -99.5 150t-136.5 118v57q70 47 134 131t81 143l122 -65q-36 -94 -128 -170h523v-130h-522q78 -51 136 -158z" />
    <glyph glyph-name="arrowup" unicode="&#x2191;" horiz-adv-x="896" 
d="M374 0v522q-77 -93 -170 -127l-64 121q58 17 142 81t131 134h53q48 -71 131 -134.5t141 -80.5l-64 -121q-92 33 -169 125v-520h-131z" />
    <glyph glyph-name="arrowright" unicode="&#x2192;" horiz-adv-x="896" 
d="M569 66l-110 76q53 103 135 158h-521v130h523q-92 76 -128 170l122 65q17 -59 81 -143t134 -131v-57q-74 -47 -136.5 -118t-99.5 -150z" />
    <glyph glyph-name="arrowdown" unicode="&#x2193;" horiz-adv-x="896" 
d="M465 -1h-53q-48 71 -131 134.5t-141 80.5l64 122q95 -37 169 -127v521h131v-522q76 92 170 128l64 -122q-58 -17 -142 -81t-131 -134z" />
    <glyph glyph-name="uni2196" unicode="&#x2196;" horiz-adv-x="896" 
d="M660 60l-370 370q14 -117 -30 -210l-131 40q30 55 43 154t-1 192l37 37q91 -16 190 -3t155 43l39 -131q-92 -42 -208 -30l368 -370z" />
    <glyph glyph-name="uni2197" unicode="&#x2197;" horiz-adv-x="896" 
d="M129 152l370 370q-118 -12 -210 30l40 131q53 -29 154.5 -42t191.5 1l37 -37q-16 -91 -3 -191.5t43 -153.5l-131 -40q-42 92 -30 209l-370 -369z" />
    <glyph glyph-name="uni2198" unicode="&#x2198;" horiz-adv-x="896" 
d="M740 164l-36 -37q-92 16 -191 3t-154 -43l-40 131q92 42 208 30l-368 370l92 92l370 -370q-12 118 30 210l131 -40q-29 -55 -42.5 -155t0.5 -191z" />
    <glyph glyph-name="uni2199" unicode="&#x2199;" horiz-adv-x="896" 
d="M593 189l-39 -131q-55 30 -155 43.5t-191 -1.5l-37 37q16 90 2.5 190.5t-43.5 154.5l131 39q42 -93 30 -209l370 369l92 -92l-370 -369q116 12 210 -31z" />
    <glyph glyph-name="partialdiff" unicode="&#x2202;" horiz-adv-x="563" 
d="M279 -10q-105 0 -181 74.5t-76 184.5q0 107 70 177.5t173 70.5q52 0 88 -21q-80 108 -291 254h200q277 -216 277 -474q0 -112 -75 -189t-185 -77zM280 117q52 0 90.5 39t38.5 93q0 55 -37 94t-91 39q-52 0 -90 -38t-38 -95q0 -56 37.5 -94t89.5 -38z" />
    <glyph glyph-name="increment" unicode="&#x2206;" horiz-adv-x="897" 
d="M877 0h-857l429 742zM449 482l-203 -352h406z" />
    <glyph glyph-name="product" unicode="&#x220f;" horiz-adv-x="779" 
d="M36 600v130h706v-130h-121v-600h-136v600h-191v-600h-136v600h-122z" />
    <glyph glyph-name="summation" unicode="&#x2211;" horiz-adv-x="563" 
d="M35 0v146l220 228l-213 226v130h486v-130h-312l213 -226l-234 -244h333v-130h-493z" />
    <glyph glyph-name="minus" unicode="&#x2212;" horiz-adv-x="442" 
d="M36 307v115h370v-115h-370z" />
    <glyph glyph-name="radical" unicode="&#x221a;" horiz-adv-x="789" 
d="M279 0l-146 381h-88v119h181l126 -338l258 568h145l-343 -730h-133z" />
    <glyph glyph-name="infinity" unicode="&#x221e;" horiz-adv-x="893" 
d="M249 206q-74 0 -126 52t-52 126t52 126.5t126 52.5q91 0 198 -101q107 101 196 101q74 0 126.5 -52.5t52.5 -126.5t-52.5 -126t-126.5 -52q-53 0 -99 26.5t-97 73.5q-106 -100 -198 -100zM249 319q49 0 118 65q-69 65 -118 65q-26 0 -45.5 -19.5t-19.5 -45.5t19.5 -45.5
t45.5 -19.5zM643 319q26 0 45.5 19.5t19.5 45.5t-19.5 45.5t-45.5 19.5q-46 0 -116 -65q70 -65 116 -65z" />
    <glyph glyph-name="integral" unicode="&#x222b;" horiz-adv-x="364" 
d="M15 -215v125q63 0 79 15.5t16 74.5v514q0 122 47.5 169t171.5 47h11v-125q-63 0 -79 -15.5t-16 -76.5v-512q0 -122 -47.5 -169t-171.5 -47h-11z" />
    <glyph glyph-name="approxequal" unicode="&#x2248;" horiz-adv-x="441" 
d="M36 384v115q50 26 97 26q31 0 91 -19t86 -19q38 0 96 25v-115q-44 -25 -96 -25q-28 0 -90.5 19t-86.5 19q-43 0 -97 -26zM36 217v115q52 27 94 27q30 0 94 -18.5t88 -18.5q40 0 94 23v-115q-40 -23 -94 -23q-29 0 -93 18.5t-89 18.5q-38 0 -94 -27z" />
    <glyph glyph-name="notequal" unicode="&#x2260;" horiz-adv-x="442" 
d="M363 574l-32 -70h75v-115h-126l-24 -52h150v-115h-201l-31 -69h-95l30 69h-73v115h123l22 52h-145v115h195l31 70h101z" />
    <glyph glyph-name="equivalence" unicode="&#x2261;" horiz-adv-x="442" 
d="M36 305v115h370v-115h-370zM36 139v114h370v-114h-370zM36 472v115h370v-115h-370z" />
    <glyph glyph-name="lessequal" unicode="&#x2264;" horiz-adv-x="442" 
d="M405 261l-370 134v114l370 134v-119l-223 -72l223 -73v-118zM35 114v115h370v-115h-370z" />
    <glyph glyph-name="greaterequal" unicode="&#x2265;" horiz-adv-x="442" 
d="M35 261v118l223 73l-223 72v119l370 -134v-114zM35 114v115h370v-115h-370z" />
    <glyph glyph-name="uni22A0" unicode="&#x22a0;" horiz-adv-x="926" 
d="M100 0v730h726v-730h-726zM236 600v-470h454v470h-454zM340 162l-80 78l123 127l-124 129l80 78l122 -126l124 127l80 -78l-126 -130l125 -128l-80 -78l-123 126z" />
    <glyph glyph-name="house" unicode="&#x2302;" horiz-adv-x="874" 
d="M774 0h-674v427l337 323l337 -323v-427z" />
    <glyph glyph-name="filledbox" unicode="&#x25a0;" horiz-adv-x="926" 
d="M100 0v730h726v-730h-726z" />
    <glyph glyph-name="filledbox" unicode="&#xe740;" horiz-adv-x="926" 
d="M100 0v730h726v-730h-726z" />
    <glyph glyph-name="H22073" unicode="&#x25a1;" horiz-adv-x="926" 
d="M100 0v730h726v-730h-726zM236 600v-470h454v470h-454z" />
    <glyph glyph-name="H18543" unicode="&#x25aa;" horiz-adv-x="700" 
d="M100 0v500h500v-500h-500z" />
    <glyph glyph-name="H18551" unicode="&#x25ab;" horiz-adv-x="700" 
d="M100 0v500h500v-500h-500zM234 367v-234h232v234h-232z" />
    <glyph glyph-name="triagup" unicode="&#x25b2;" horiz-adv-x="897" 
d="M877 0h-857l429 742z" />
    <glyph glyph-name="triagrt" unicode="&#x25ba;" horiz-adv-x="897" 
d="M100 -57v857l742 -428z" />
    <glyph glyph-name="triagdn" unicode="&#x25bc;" horiz-adv-x="897" 
d="M20 730h857l-428 -742z" />
    <glyph glyph-name="triaglf" unicode="&#x25c4;" horiz-adv-x="897" 
d="M797 800v-857l-742 429z" />
    <glyph glyph-name="lozenge" unicode="&#x25ca;" horiz-adv-x="843" 
d="M415 -16l-382 382l380 380l382 -382zM208 367l208 -208l203 203l-208 208z" />
    <glyph glyph-name="circle" unicode="&#x25cb;" horiz-adv-x="927" 
d="M463 -10q-156 0 -264.5 109.5t-108.5 265.5t108.5 265.5t264.5 109.5t265 -109.5t109 -265.5t-109 -265.5t-265 -109.5zM463 124q100 0 169.5 70.5t69.5 170.5t-69.5 170.5t-169.5 70.5q-99 0 -168.5 -70.5t-69.5 -170.5t69.5 -170.5t168.5 -70.5z" />
    <glyph glyph-name="circle" unicode="&#x25ef;" horiz-adv-x="927" 
d="M463 -10q-156 0 -264.5 109.5t-108.5 265.5t108.5 265.5t264.5 109.5t265 -109.5t109 -265.5t-109 -265.5t-265 -109.5zM463 124q100 0 169.5 70.5t69.5 170.5t-69.5 170.5t-169.5 70.5q-99 0 -168.5 -70.5t-69.5 -170.5t69.5 -170.5t168.5 -70.5z" />
    <glyph glyph-name="uni25CE" unicode="&#x25ce;" horiz-adv-x="927" 
d="M0 0v20h927v-20h-927z" />
    <glyph glyph-name="H18533" unicode="&#x25cf;" horiz-adv-x="927" 
d="M463 -10q-156 0 -264.5 109.5t-108.5 265.5t108.5 265.5t264.5 109.5t265 -109.5t109 -265.5t-109 -265.5t-265 -109.5z" />
    <glyph glyph-name="uni25E2" unicode="&#x25e2;" horiz-adv-x="897" 
d="M873 533l-606 -606l-222 828z" />
    <glyph glyph-name="uni25E3" unicode="&#x25e3;" horiz-adv-x="897" 
d="M632 -73l-606 606l828 222z" />
    <glyph glyph-name="uni25E4" unicode="&#x25e4;" horiz-adv-x="897" 
d="M857 -54l-828 222l606 606z" />
    <glyph glyph-name="uni25E5" unicode="&#x25e5;" horiz-adv-x="897" 
d="M872 163l-828 -221l223 828z" />
    <glyph glyph-name="uni2605" unicode="&#x2605;" horiz-adv-x="900" 
d="M562 303l72 -218l-187 135l-186 -135l72 219l-186 135l229 -1l72 218l71 -218l230 -1z" />
    <glyph glyph-name="uni2612" unicode="&#x2612;" horiz-adv-x="700" 
d="M100 0v500h500v-500h-500zM218 383v-266h264v266h-264zM295 369l55 -55l56 57l65 -65l-56 -57l55 -55l-65 -65l-55 54l-54 -55l-65 65l54 55l-55 56z" />
    <glyph glyph-name="sun" unicode="&#x263c;" horiz-adv-x="928" 
d="M287 365q0 71 51.5 122.5t122.5 51.5t122.5 -51.5t51.5 -122.5t-51.5 -122.5t-122.5 -51.5t-122.5 51.5t-51.5 122.5zM451 577l-17 142h54l-17 -142h-20zM471 155l17 -142h-54l17 142h20zM250 356l-142 -17v54l142 -17v-20zM672 376l142 17v-54l-142 17v20zM273 464
l-133 55l28 47l115 -87zM649 268l133 -55l-28 -47l-115 87zM348 544l-87 115l47 28l55 -133zM574 188l87 -115l-47 -28l-55 133zM559 554l55 133l47 -28l-87 -115zM363 178l-55 -133l-47 28l87 115zM639 480l113 86l30 -46l-133 -56zM283 252l-113 -86l-30 46l133 56z" />
    <glyph glyph-name="uni263E" unicode="&#x263e;" horiz-adv-x="787" 
d="M534 616q-99 0 -169 -73.5t-70 -177.5t70 -177.5t169 -73.5q32 0 71 12q-81 -57 -178 -57q-122 0 -209 87t-87 209t87 209t209 87q97 0 178 -57q-39 12 -71 12z" />
    <glyph glyph-name="spade" unicode="&#x2660;" horiz-adv-x="920" 
d="M594 0h-259q66 124 84 204q10 45 10 86q-20 -58 -63.5 -97t-106.5 -39q-70 0 -120.5 47t-50.5 111q0 83 52 151t183 172l140 112h1l140 -112q128 -102 178 -170.5t50 -152.5q0 -64 -46.5 -110.5t-110.5 -46.5q-68 0 -114.5 38.5t-66.5 96.5q0 -29 6 -61t13 -55.5
t21.5 -56t21 -45.5t22.5 -42t16 -30z" />
    <glyph glyph-name="club" unicode="&#x2663;" horiz-adv-x="920" 
d="M595 0h-259q1 2 11.5 21.5t15.5 29.5l15 31.5t16.5 38t13.5 38.5t12 44.5t7 44.5q-22 -53 -66.5 -85.5t-100.5 -32.5q-74 0 -125.5 52t-51.5 125t51.5 125t125.5 52q19 0 42 -7q-19 39 -19 87q0 72 51.5 124t123.5 52t124 -52t52 -124q0 -46 -19 -88q24 8 46 8
q74 0 125 -51.5t51 -125.5q0 -73 -51.5 -125t-125.5 -52q-56 0 -99 32t-64 85q4 -30 12 -60t22 -61l22 -48t24.5 -47t17.5 -31z" />
    <glyph glyph-name="heart" unicode="&#x2665;" horiz-adv-x="920" 
d="M89 550q0 79 53 134.5t130 55.5q75 0 126 -45.5t59 -115.5q10 71 59.5 116t125.5 45q77 0 133 -56t56 -134q0 -85 -53 -177t-179 -233l-142 -157l-141 157q-125 139 -176 231.5t-51 178.5z" />
    <glyph glyph-name="diamond" unicode="&#x2666;" horiz-adv-x="920" 
d="M133 390l327 401l327 -401l-327 -400z" />
    <glyph glyph-name="uni267B" unicode="&#x267b;" horiz-adv-x="921" 
d="M821 246l1 -2l-91 -157q-13 -19 -19.5 -27.5t-23 -16.5t-39.5 -8h-54v-47l-106 128l106 127v-46h136q35 0 66 25q13 10 24 24zM184 111h-2l-90 158q-10 20 -14 30.5t-3 28.5t13 37l27 46l-40 23l164 29l55 -156l-38 23q-20 -32 -33 -57q-33 -56 -35 -61q-18 -29 -12 -68
q1 -15 8 -33zM389 728v1h182q18 -1 26 -1.5t20.5 -4.5t21.5 -13.5t18 -24.5l26 -46l41 23l-58 -157l-162 30l38 22l-67 118q-19 30 -54 45q-19 7 -32 8zM197 558l63 112q11 18 32 29q42 21 91.5 9t63.5 -42l-109 -189zM429 35h-127q-22 0 -42 12q-40 23 -54 74t5 76h218
v-162zM767 491l65 -110q9 -13 9 -41q0 -45 -36.5 -81.5t-68.5 -36.5l-109 189z" />
    <glyph glyph-name="uni267C" unicode="&#x267c;" horiz-adv-x="921" 
d="M837 366q0 -156 -110 -265.5t-265 -109.5q-157 0 -267 109.5t-110 265.5t110 266.5t267 110.5q155 0 265 -110.5t110 -266.5zM304 606l-49 -86l109 -63l84 146q-13 23 -50.5 33t-69.5 -7q-19 -12 -24 -23zM399 652v-1q8 -1 26 -7q26 -9 41 -34l53 -91l-30 -18l126 -23
l44 122l-31 -18l-21 36q-13 22 -27.5 28t-39.5 6h-141zM332 114h99v126h-170q-14 -20 -3 -59t42 -58q14 -9 32 -9zM243 173h1q-5 12 -6 25q-5 29 9 54l53 91l30 -18l-43 121l-127 -22l31 -18l-21 -36q-9 -15 -10 -29.5t2 -21.5t11 -24zM746 383l-49 85l-110 -63l85 -147
q26 0 54 28.5t28 64.5q0 18 -8 32zM739 276l-1 1q-31 -37 -70 -37h-105v35l-83 -98l83 -99v36h41q27 0 39.5 9.5t24.5 30.5z" />
    <glyph glyph-name="uni267D" unicode="&#x267d;" horiz-adv-x="921" 
d="M837 366q0 -156 -110 -265.5t-265 -109.5q-157 0 -267 109.5t-110 265.5t110 266.5t267 110.5q155 0 265 -110.5t110 -266.5zM818 366q0 149 -104 253.5t-252 104.5q-149 0 -254 -104.5t-105 -253.5q0 -148 105 -252.5t254 -104.5q148 0 252 104.5t104 252.5zM255 520
l49 86q5 11 24 23q32 17 69.5 7t50.5 -33l-84 -146zM399 651v1h141q25 0 39.5 -6t27.5 -28l21 -36l31 18l-44 -122l-126 23l30 18l-53 91q-14 23 -41 34q-18 6 -26 7zM431 114h-99q-18 0 -32 9q-31 19 -42 58t3 59h170v-126zM244 173h-1l-70 122q-8 17 -11 24t-2 21.5
t10 29.5l21 36l-31 18l127 22l43 -121l-30 18l-53 -91q-14 -25 -9 -54q1 -13 6 -25zM697 468l49 -85q8 -14 8 -32q0 -36 -28 -64.5t-54 -28.5l-85 147zM738 277l1 -1l-71 -122q-12 -21 -24.5 -30.5t-39.5 -9.5h-41v-36l-83 99l83 98v-35h105q25 0 52 19q10 7 18 18z" />
    <glyph glyph-name="uni26AA" unicode="&#x26aa;" horiz-adv-x="698" 
d="M349 -10q-108 0 -183.5 76t-75.5 184t75.5 184t183.5 76t183.5 -76t75.5 -184t-75.5 -184t-183.5 -76zM349 117q54 0 91.5 39t37.5 94t-37.5 94t-91.5 39t-91 -39t-37 -94t37 -94t91 -39z" />
    <glyph glyph-name="uni26AB" unicode="&#x26ab;" horiz-adv-x="698" 
d="M349 -10q-108 0 -183.5 76t-75.5 184t75.5 184t183.5 76t183.5 -76t75.5 -184t-75.5 -184t-183.5 -76z" />
    <glyph glyph-name="uni3008" unicode="&#x3008;" horiz-adv-x="392" 
d="M238 -230l-227 480l227 480h144l-228 -480l228 -480h-144z" />
    <glyph glyph-name="uni3009" unicode="&#x3009;" horiz-adv-x="392" 
d="M155 -230h-144l228 480l-228 480h144l227 -480z" />
    <glyph glyph-name="uniE141" unicode="&#xe141;" horiz-adv-x="583" 
d="M179 0h-139v730h234q129 0 202 -69.5t73 -186.5q0 -68 -31 -124t-90 -88l144 -262h-158l-113 220h-122v-220zM179 348h83q148 0 148 132q0 120 -148 120h-83v-252z" />
    <glyph glyph-name="uniE142" unicode="&#xe142;" horiz-adv-x="583" 
d="M179 0h-139v730h234q129 0 202 -69.5t73 -186.5q0 -68 -31 -124t-90 -88l144 -262h-158l-113 220h-122v-220zM179 348h83q148 0 148 132q0 120 -148 120h-83v-252zM196 780l115 170h126l-150 -170h-91z" />
    <glyph glyph-name="uniE143" unicode="&#xe143;" horiz-adv-x="583" 
d="M179 0h-139v730h234q129 0 202 -69.5t73 -186.5q0 -68 -31 -124t-90 -88l144 -262h-158l-113 220h-122v-220zM179 348h83q148 0 148 132q0 120 -148 120h-83v-252zM250 780l-119 170h102l59 -89l59 89h102l-119 -170h-84z" />
    <glyph glyph-name="uniE146" unicode="&#xe146;" horiz-adv-x="583" 
d="M179 0h-139v730h234q129 0 202 -69.5t73 -186.5q0 -68 -31 -124t-90 -88l144 -262h-158l-113 220h-122v-220zM179 348h83q148 0 148 132q0 120 -148 120h-83v-252zM290 -281h-83l34 204h119z" />
    <glyph glyph-name="uniE181" unicode="&#xe181;" horiz-adv-x="324" 
d="M170 435q-62 0 -106 44t-44 106q0 63 44 107t106 44q47 0 83.5 -25t54.5 -65l-86 -39q-13 36 -51 36q-23 0 -39.5 -17t-16.5 -41q0 -23 16.5 -40t39.5 -17q38 0 51 35l87 -37q-18 -41 -54 -66t-85 -25z" />
    <glyph glyph-name="uniE200" unicode="&#xe200;" horiz-adv-x="486" 
d="M37 0v596h202q100 0 163 -62.5t63 -153.5q0 -93 -62.5 -156.5t-164.5 -63.5h-67v-160h-134zM234 473h-63v-189h63q42 0 69 26.5t27 68.5t-27 68t-69 26z" />
    <glyph glyph-name="uniE200" unicode="&#xf770;" horiz-adv-x="486" 
d="M37 0v596h202q100 0 163 -62.5t63 -153.5q0 -93 -62.5 -156.5t-164.5 -63.5h-67v-160h-134zM234 473h-63v-189h63q42 0 69 26.5t27 68.5t-27 68t-69 26z" />
    <glyph glyph-name="uniE201" unicode="&#xe201;" horiz-adv-x="581" 
d="M20 0l205 596h131l206 -596h-136l-31 93h-209l-31 -93h-135zM291 405l-64 -189h127z" />
    <glyph glyph-name="uniE201" unicode="&#xf761;" horiz-adv-x="581" 
d="M20 0l205 596h131l206 -596h-136l-31 93h-209l-31 -93h-135zM291 405l-64 -189h127z" />
    <glyph glyph-name="uniE202" unicode="&#xe202;" horiz-adv-x="489" 
d="M37 0v596h198q215 0 215 -168q0 -78 -60 -116q78 -38 78 -132q1 -90 -58 -135t-166 -45h-207zM244 243h-73v-123h75q86 0 86 63q0 31 -19.5 45.5t-68.5 14.5zM240 477h-69v-111h69q77 0 77 58q0 53 -77 53z" />
    <glyph glyph-name="uniE202" unicode="&#xf762;" horiz-adv-x="489" 
d="M37 0v596h198q215 0 215 -168q0 -78 -60 -116q78 -38 78 -132q1 -90 -58 -135t-166 -45h-207zM244 243h-73v-123h75q86 0 86 63q0 31 -19.5 45.5t-68.5 14.5zM240 477h-69v-111h69q77 0 77 58q0 53 -77 53z" />
    <glyph glyph-name="uniE203" unicode="&#xe203;" horiz-adv-x="623" 
d="M336 -8q-135 0 -221.5 88.5t-86.5 217.5q0 130 88 218t221 88q85 0 154 -40t109 -108l-115 -72q-22 41 -61 65t-88 24q-75 0 -123.5 -51t-48.5 -124t48 -123.5t121 -50.5q106 0 151 100l124 -63q-40 -78 -109.5 -123.5t-162.5 -45.5z" />
    <glyph glyph-name="uniE203" unicode="&#xf763;" horiz-adv-x="623" 
d="M336 -8q-135 0 -221.5 88.5t-86.5 217.5q0 130 88 218t221 88q85 0 154 -40t109 -108l-115 -72q-22 41 -61 65t-88 24q-75 0 -123.5 -51t-48.5 -124t48 -123.5t121 -50.5q106 0 151 100l124 -63q-40 -78 -109.5 -123.5t-162.5 -45.5z" />
    <glyph glyph-name="uniE204" unicode="&#xe204;" horiz-adv-x="550" 
d="M37 0v596h174q139 0 225 -85t86 -213q0 -129 -87 -213.5t-221 -84.5h-177zM203 472h-33v-348h37q81 0 131 49.5t50 124.5q0 77 -48.5 125.5t-136.5 48.5z" />
    <glyph glyph-name="uniE204" unicode="&#xf764;" horiz-adv-x="550" 
d="M37 0v596h174q139 0 225 -85t86 -213q0 -129 -87 -213.5t-221 -84.5h-177zM203 472h-33v-348h37q81 0 131 49.5t50 124.5q0 77 -48.5 125.5t-136.5 48.5z" />
    <glyph glyph-name="uniE205" unicode="&#xe205;" horiz-adv-x="423" 
d="M37 0v596h353v-125h-220v-109h220v-126h-220v-111h220v-125h-353z" />
    <glyph glyph-name="uniE205" unicode="&#xf765;" horiz-adv-x="423" 
d="M37 0v596h353v-125h-220v-109h220v-126h-220v-111h220v-125h-353z" />
    <glyph glyph-name="uniE206" unicode="&#xe206;" horiz-adv-x="408" 
d="M37 0v596h340v-125h-207v-109h207v-126h-207v-236h-133z" />
    <glyph glyph-name="uniE206" unicode="&#xf766;" horiz-adv-x="408" 
d="M37 0v596h340v-125h-207v-109h207v-126h-207v-236h-133z" />
    <glyph glyph-name="uniE207" unicode="&#xe207;" 
d="M333 -8q-139 0 -225.5 89t-86.5 217q0 130 87 218t220 88q92 0 161 -40t109 -109l-117 -67q-49 88 -152 88q-73 0 -123.5 -51.5t-50.5 -126.5q0 -78 49.5 -128.5t126.5 -50.5q56 0 94 27t53 76h-173v126h318v-61q0 -123 -80.5 -209t-209.5 -86z" />
    <glyph glyph-name="uniE207" unicode="&#xf767;" 
d="M333 -8q-139 0 -225.5 89t-86.5 217q0 130 87 218t220 88q92 0 161 -40t109 -109l-117 -67q-49 88 -152 88q-73 0 -123.5 -51.5t-50.5 -126.5q0 -78 49.5 -128.5t126.5 -50.5q56 0 94 27t53 76h-173v126h318v-61q0 -123 -80.5 -209t-209.5 -86z" />
    <glyph glyph-name="uniE208" unicode="&#xe208;" horiz-adv-x="528" 
d="M357 0v234h-186v-234h-134v596h134v-230h186v230h134v-596h-134z" />
    <glyph glyph-name="uniE208" unicode="&#xf768;" horiz-adv-x="528" 
d="M357 0v234h-186v-234h-134v596h134v-230h186v230h134v-596h-134z" />
    <glyph glyph-name="uniE209" unicode="&#xe209;" horiz-adv-x="219" 
d="M42 0v596h135v-596h-135z" />
    <glyph glyph-name="uniE209" unicode="&#xf769;" horiz-adv-x="219" 
d="M42 0v596h135v-596h-135z" />
    <glyph glyph-name="uniE20A" unicode="&#xe20a;" horiz-adv-x="433" 
d="M210 -8q-74 0 -124 35t-68 95l128 51q15 -58 63 -58q25 0 39 17.5t14 45.5v418h135v-409q0 -94 -46.5 -144.5t-140.5 -50.5z" />
    <glyph glyph-name="uniE20A" unicode="&#xf76a;" horiz-adv-x="433" 
d="M210 -8q-74 0 -124 35t-68 95l128 51q15 -58 63 -58q25 0 39 17.5t14 45.5v418h135v-409q0 -94 -46.5 -144.5t-140.5 -50.5z" />
    <glyph glyph-name="uniE20B" unicode="&#xe20b;" horiz-adv-x="524" 
d="M365 0l-141 263l-53 -70v-193h-134v596h134v-225l172 225h159l-181 -235l194 -361h-150z" />
    <glyph glyph-name="uniE20B" unicode="&#xf76b;" horiz-adv-x="524" 
d="M365 0l-141 263l-53 -70v-193h-134v596h134v-225l172 225h159l-181 -235l194 -361h-150z" />
    <glyph glyph-name="uniE20C" unicode="&#xe20c;" horiz-adv-x="400" 
d="M37 0v596h134v-468h201v-128h-335z" />
    <glyph glyph-name="uniE20C" unicode="&#xf76c;" horiz-adv-x="400" 
d="M37 0v596h134v-468h201v-128h-335z" />
    <glyph glyph-name="uniE20D" unicode="&#xe20d;" horiz-adv-x="658" 
d="M37 0v596h134l159 -221l165 221h127v-596h-134v380l-159 -214l-159 215v-381h-133z" />
    <glyph glyph-name="uniE20D" unicode="&#xf76d;" horiz-adv-x="658" 
d="M37 0v596h134l159 -221l165 221h127v-596h-134v380l-159 -214l-159 215v-381h-133z" />
    <glyph glyph-name="uniE20E" unicode="&#xe20e;" horiz-adv-x="579" 
d="M37 0v596h145l227 -359v359h133v-596h-134l-238 374v-374h-133z" />
    <glyph glyph-name="uniE20E" unicode="&#xf76e;" horiz-adv-x="579" 
d="M37 0v596h145l227 -359v359h133v-596h-134l-238 374v-374h-133z" />
    <glyph glyph-name="uniE20F" unicode="&#xe20f;" horiz-adv-x="653" 
d="M326 -8q-127 0 -216 89t-89 217q0 127 89 216.5t216 89.5t216.5 -89.5t89.5 -216.5q0 -128 -89 -217t-217 -89zM326 124q73 0 121.5 50.5t48.5 123.5t-49 123.5t-121 50.5t-120.5 -51t-48.5 -123t48.5 -123t120.5 -51z" />
    <glyph glyph-name="uniE20F" unicode="&#xf76f;" horiz-adv-x="653" 
d="M326 -8q-127 0 -216 89t-89 217q0 127 89 216.5t216 89.5t216.5 -89.5t89.5 -216.5q0 -128 -89 -217t-217 -89zM326 124q73 0 121.5 50.5t48.5 123.5t-49 123.5t-121 50.5t-120.5 -51t-48.5 -123t48.5 -123t120.5 -51z" />
    <glyph glyph-name="uniE211" unicode="&#xe211;" horiz-adv-x="666" 
d="M332 -8q-128 0 -216 89t-88 217q0 127 88 216.5t216 89.5q127 0 216.5 -89.5t89.5 -216.5q0 -111 -68 -195l80 -103h-146l-224 294h143l60 -78q20 40 20 82q0 73 -49 123.5t-122 50.5q-72 0 -120.5 -51t-48.5 -123t48.5 -123t120.5 -51q27 0 42 4l83 -109
q-54 -27 -125 -27z" />
    <glyph glyph-name="uniE211" unicode="&#xf771;" horiz-adv-x="666" 
d="M332 -8q-128 0 -216 89t-88 217q0 127 88 216.5t216 89.5q127 0 216.5 -89.5t89.5 -216.5q0 -111 -68 -195l80 -103h-146l-224 294h143l60 -78q20 40 20 82q0 73 -49 123.5t-122 50.5q-72 0 -120.5 -51t-48.5 -123t48.5 -123t120.5 -51q27 0 42 4l83 -109
q-54 -27 -125 -27z" />
    <glyph glyph-name="uniE212" unicode="&#xe212;" horiz-adv-x="489" 
d="M37 0v596h207q103 0 163.5 -58.5t60.5 -144.5q0 -59 -29 -105.5t-85 -69.5l130 -218h-152l-162 289v-289h-133zM234 473h-64v-168h64q47 0 71.5 25t24.5 61q0 82 -96 82z" />
    <glyph glyph-name="uniE212" unicode="&#xf772;" horiz-adv-x="489" 
d="M37 0v596h207q103 0 163.5 -58.5t60.5 -144.5q0 -59 -29 -105.5t-85 -69.5l130 -218h-152l-162 289v-289h-133zM234 473h-64v-168h64q47 0 71.5 25t24.5 61q0 82 -96 82z" />
    <glyph glyph-name="uniE213" unicode="&#xe213;" horiz-adv-x="488" 
d="M244 -8q-137 0 -236 108l117 92q46 -75 119 -75q35 0 56 18.5t21 44.5q0 33 -54 53q-9 4 -61 19q-30 9 -49 16t-44.5 21.5t-40 31t-25.5 43.5t-11 61q0 78 57 129t147 51q128 0 210 -93l-108 -83q-37 59 -101 59q-32 0 -50.5 -15.5t-18.5 -39.5q0 -18 15.5 -31
t32.5 -19.5t52 -17.5q9 -3 13 -4q29 -9 49.5 -16.5t46 -22.5t41.5 -32.5t27 -45t11 -61.5q0 -78 -58.5 -134.5t-157.5 -56.5z" />
    <glyph glyph-name="uniE213" unicode="&#xf773;" horiz-adv-x="488" 
d="M244 -8q-137 0 -236 108l117 92q46 -75 119 -75q35 0 56 18.5t21 44.5q0 33 -54 53q-9 4 -61 19q-30 9 -49 16t-44.5 21.5t-40 31t-25.5 43.5t-11 61q0 78 57 129t147 51q128 0 210 -93l-108 -83q-37 59 -101 59q-32 0 -50.5 -15.5t-18.5 -39.5q0 -18 15.5 -31
t32.5 -19.5t52 -17.5q9 -3 13 -4q29 -9 49.5 -16.5t46 -22.5t41.5 -32.5t27 -45t11 -61.5q0 -78 -58.5 -134.5t-157.5 -56.5z" />
    <glyph glyph-name="uniE214" unicode="&#xe214;" horiz-adv-x="494" 
d="M183 0v471h-152v125h432v-125h-150v-471h-130z" />
    <glyph glyph-name="uniE214" unicode="&#xf774;" horiz-adv-x="494" 
d="M183 0v471h-152v125h432v-125h-150v-471h-130z" />
    <glyph glyph-name="uniE215" unicode="&#xe215;" horiz-adv-x="519" 
d="M260 -8q-102 0 -162.5 58.5t-60.5 164.5v381h134v-385q0 -44 24 -70.5t64 -26.5t65 26.5t25 70.5v385h134v-381q0 -106 -60 -164.5t-163 -58.5z" />
    <glyph glyph-name="uniE215" unicode="&#xf775;" horiz-adv-x="519" 
d="M260 -8q-102 0 -162.5 58.5t-60.5 164.5v381h134v-385q0 -44 24 -70.5t64 -26.5t65 26.5t25 70.5v385h134v-381q0 -106 -60 -164.5t-163 -58.5z" />
    <glyph glyph-name="uniE216" unicode="&#xe216;" horiz-adv-x="561" 
d="M212 0l-193 596h139l124 -387l121 387h139l-191 -596h-139z" />
    <glyph glyph-name="uniE216" unicode="&#xf776;" horiz-adv-x="561" 
d="M212 0l-193 596h139l124 -387l121 387h139l-191 -596h-139z" />
    <glyph glyph-name="uniE217" unicode="&#xe217;" horiz-adv-x="850" 
d="M184 0l-165 596h136l98 -378l108 378h133l108 -379l98 379h134l-166 -596h-132l-109 383l-108 -383h-135z" />
    <glyph glyph-name="uniE217" unicode="&#xf777;" horiz-adv-x="850" 
d="M184 0l-165 596h136l98 -378l108 378h133l108 -379l98 379h134l-166 -596h-132l-109 383l-108 -383h-135z" />
    <glyph glyph-name="uniE218" unicode="&#xe218;" horiz-adv-x="538" 
d="M379 0l-109 186l-109 -186h-147l181 304l-174 292h147l103 -176l102 176h147l-175 -293l180 -303h-146z" />
    <glyph glyph-name="uniE218" unicode="&#xf778;" horiz-adv-x="538" 
d="M379 0l-109 186l-109 -186h-147l181 304l-174 292h147l103 -176l102 176h147l-175 -293l180 -303h-146z" />
    <glyph glyph-name="uniE219" unicode="&#xe219;" horiz-adv-x="537" 
d="M202 0v280l-186 316h145l109 -187l110 187h145l-188 -318v-278h-135z" />
    <glyph glyph-name="uniE219" unicode="&#xf779;" horiz-adv-x="537" 
d="M202 0v280l-186 316h145l109 -187l110 187h145l-188 -318v-278h-135z" />
    <glyph glyph-name="uniE21A" unicode="&#xe21a;" horiz-adv-x="456" 
d="M31 0v123l238 349h-233v124h389v-120l-241 -352h241v-124h-394z" />
    <glyph glyph-name="uniE21A" unicode="&#xf77a;" horiz-adv-x="456" 
d="M31 0v123l238 349h-233v124h389v-120l-241 -352h241v-124h-394z" />
    <glyph glyph-name="uniE220" unicode="&#xe220;" horiz-adv-x="581" 
d="M20 0l205 596h131l206 -596h-136l-135 405l-136 -405h-135z" />
    <glyph glyph-name="uniE221" unicode="&#xe221;" horiz-adv-x="581" 
d="M20 0l205 596h131l206 -596h-136l-31 93h-209l-31 -93h-135zM245 646l115 170h126l-150 -170h-91zM291 405l-64 -189h127z" />
    <glyph glyph-name="uniE221" unicode="&#xf7e1;" horiz-adv-x="581" 
d="M20 0l205 596h131l206 -596h-136l-31 93h-209l-31 -93h-135zM245 646l115 170h126l-150 -170h-91zM291 405l-64 -189h127z" />
    <glyph glyph-name="uniE222" unicode="&#xe222;" horiz-adv-x="581" 
d="M20 0l205 596h131l206 -596h-136l-31 93h-209l-31 -93h-135zM248 646l-150 170h127l114 -170h-91zM291 405l-64 -189h127z" />
    <glyph glyph-name="uniE222" unicode="&#xf7e0;" horiz-adv-x="581" 
d="M20 0l205 596h131l206 -596h-136l-31 93h-209l-31 -93h-135zM248 646l-150 170h127l114 -170h-91zM291 405l-64 -189h127z" />
    <glyph glyph-name="uniE223" unicode="&#xe223;" horiz-adv-x="581" 
d="M20 0l205 596h131l206 -596h-136l-31 93h-209l-31 -93h-135zM129 646l119 170h84l119 -170h-102l-59 89l-59 -89h-102zM291 405l-64 -189h127z" />
    <glyph glyph-name="uniE223" unicode="&#xf7e2;" horiz-adv-x="581" 
d="M20 0l205 596h131l206 -596h-136l-31 93h-209l-31 -93h-135zM129 646l119 170h84l119 -170h-102l-59 89l-59 -89h-102zM291 405l-64 -189h127z" />
    <glyph glyph-name="uniE224" unicode="&#xe224;" horiz-adv-x="581" 
d="M20 0l205 596h131l206 -596h-136l-31 93h-209l-31 -93h-135zM123 715q0 32 19.5 52t52.5 20t52.5 -19.5t19.5 -52.5t-19.5 -52t-52.5 -19t-52.5 19t-19.5 52zM314 715q0 32 19.5 52t52.5 20t52.5 -20t19.5 -52t-19.5 -51.5t-52.5 -19.5q-35 0 -53.5 19t-18.5 52zM291 405
l-64 -189h127z" />
    <glyph glyph-name="uniE224" unicode="&#xf7e4;" horiz-adv-x="581" 
d="M20 0l205 596h131l206 -596h-136l-31 93h-209l-31 -93h-135zM123 715q0 32 19.5 52t52.5 20t52.5 -19.5t19.5 -52.5t-19.5 -52t-52.5 -19t-52.5 19t-19.5 52zM314 715q0 32 19.5 52t52.5 20t52.5 -20t19.5 -52t-19.5 -51.5t-52.5 -19.5q-35 0 -53.5 19t-18.5 52zM291 405
l-64 -189h127z" />
    <glyph glyph-name="uniE225" unicode="&#xe225;" horiz-adv-x="581" 
d="M20 0l205 596h131l206 -596h-136l-31 93h-209l-31 -93h-135zM197 646h-78q0 61 28 98t76 37q35 0 77 -24q37 -25 52 -25q28 0 28 45h78q0 -64 -26.5 -99.5t-78.5 -35.5q-9 0 -18.5 1.5t-16 3.5t-15.5 6t-12.5 6l-13 7.5t-11.5 6.5q-28 17 -43 17q-26 0 -26 -44zM291 405
l-64 -189h127z" />
    <glyph glyph-name="uniE225" unicode="&#xf7e3;" horiz-adv-x="581" 
d="M20 0l205 596h131l206 -596h-136l-31 93h-209l-31 -93h-135zM197 646h-78q0 61 28 98t76 37q35 0 77 -24q37 -25 52 -25q28 0 28 45h78q0 -64 -26.5 -99.5t-78.5 -35.5q-9 0 -18.5 1.5t-16 3.5t-15.5 6t-12.5 6l-13 7.5t-11.5 6.5q-28 17 -43 17q-26 0 -26 -44zM291 405
l-64 -189h127z" />
    <glyph glyph-name="uniE226" unicode="&#xe226;" horiz-adv-x="581" 
d="M20 0l195 569q-42 35 -42 90q0 50 34 84t82 34q49 0 83 -34t34 -84q0 -51 -41 -89l197 -570h-136l-31 93h-209l-31 -93h-135zM291 405l-64 -189h127zM289 620q17 0 29 11.5t12 27.5q0 17 -12 29t-29 12t-28.5 -12t-11.5 -29q0 -16 11.5 -27.5t28.5 -11.5z" />
    <glyph glyph-name="uniE226" unicode="&#xf7e5;" horiz-adv-x="581" 
d="M20 0l195 569q-42 35 -42 90q0 50 34 84t82 34q49 0 83 -34t34 -84q0 -51 -41 -89l197 -570h-136l-31 93h-209l-31 -93h-135zM291 405l-64 -189h127zM289 620q17 0 29 11.5t12 27.5q0 17 -12 29t-29 12t-28.5 -12t-11.5 -29q0 -16 11.5 -27.5t28.5 -11.5z" />
    <glyph glyph-name="uniE228" unicode="&#xe228;" horiz-adv-x="581" 
d="M20 0l205 596h131l206 -596h-136l-31 93h-209l-31 -93h-135zM159 646v86h264v-86h-264zM291 405l-64 -189h127z" />
    <glyph glyph-name="uniE228" unicode="&#xf641;" horiz-adv-x="581" 
d="M20 0l205 596h131l206 -596h-136l-31 93h-209l-31 -93h-135zM159 646v86h264v-86h-264zM291 405l-64 -189h127z" />
    <glyph glyph-name="uniE229" unicode="&#xe229;" horiz-adv-x="581" 
d="M20 0l205 596h131l206 -596h-136l-31 93h-209l-31 -93h-135zM288 638q-79 0 -120 47t-41 123h85q0 -91 76 -96q76 5 76 96h86q0 -74 -44 -122t-118 -48zM291 405l-64 -189h127z" />
    <glyph glyph-name="uniE229" unicode="&#xf640;" horiz-adv-x="581" 
d="M20 0l205 596h131l206 -596h-136l-31 93h-209l-31 -93h-135zM288 638q-79 0 -120 47t-41 123h85q0 -91 76 -96q76 5 76 96h86q0 -74 -44 -122t-118 -48zM291 405l-64 -189h127z" />
    <glyph glyph-name="uniE22D" unicode="&#xe22d;" horiz-adv-x="581" 
d="M20 0l195 569q-42 35 -42 90q0 50 34 84t82 34q49 0 83 -34t34 -84q0 -51 -41 -89l197 -570h-136l-31 93h-209l-31 -93h-135zM243 817l115 170h126l-150 -170h-91zM291 405l-64 -189h127zM289 620q17 0 29 11.5t12 27.5q0 17 -12 29t-29 12t-28.5 -12t-11.5 -29
q0 -16 11.5 -27.5t28.5 -11.5z" />
    <glyph glyph-name="uniE22D" unicode="&#xf625;" horiz-adv-x="581" 
d="M20 0l195 569q-42 35 -42 90q0 50 34 84t82 34q49 0 83 -34t34 -84q0 -51 -41 -89l197 -570h-136l-31 93h-209l-31 -93h-135zM243 817l115 170h126l-150 -170h-91zM291 405l-64 -189h127zM289 620q17 0 29 11.5t12 27.5q0 17 -12 29t-29 12t-28.5 -12t-11.5 -29
q0 -16 11.5 -27.5t28.5 -11.5z" />
    <glyph glyph-name="uniE22F" unicode="&#xe22f;" horiz-adv-x="581" 
d="M20 0l205 596h131l206 -596q-85 -56 -107.5 -75t-22.5 -38q0 -31 43 -31q6 0 11 0.5t10 2.5t8 3.5t8 5l7 5t8 6.5t8 6l79 -54q-27 -25 -65.5 -41.5t-73.5 -16.5q-64 0 -104 31t-40 78q0 71 92 127l-28 84h-209l-31 -93h-135zM291 405l-64 -189h127z" />
    <glyph glyph-name="uniE22F" unicode="&#xf642;" horiz-adv-x="581" 
d="M20 0l205 596h131l206 -596q-85 -56 -107.5 -75t-22.5 -38q0 -31 43 -31q6 0 11 0.5t10 2.5t8 3.5t8 5l7 5t8 6.5t8 6l79 -54q-27 -25 -65.5 -41.5t-73.5 -16.5q-64 0 -104 31t-40 78q0 71 92 127l-28 84h-209l-31 -93h-135zM291 405l-64 -189h127z" />
    <glyph glyph-name="uniE230" unicode="&#xe230;" horiz-adv-x="421" 
d="M37 0v596h353v-125h-220v-109h220v-126h-220v-111h220v-125h-353zM48 715q0 32 19.5 52t52.5 20t52.5 -19.5t19.5 -52.5t-19 -52t-53 -19t-53 19t-19 52zM239 715q0 32 19.5 52t52.5 20t52.5 -20t19.5 -52t-19.5 -51.5t-52.5 -19.5q-35 0 -53.5 19t-18.5 52z" />
    <glyph glyph-name="uniE230" unicode="&#xf7eb;" horiz-adv-x="421" 
d="M37 0v596h353v-125h-220v-109h220v-126h-220v-111h220v-125h-353zM48 715q0 32 19.5 52t52.5 20t52.5 -19.5t19.5 -52.5t-19 -52t-53 -19t-53 19t-19 52zM239 715q0 32 19.5 52t52.5 20t52.5 -20t19.5 -52t-19.5 -51.5t-52.5 -19.5q-35 0 -53.5 19t-18.5 52z" />
    <glyph glyph-name="uniE231" unicode="&#xe231;" horiz-adv-x="787" 
d="M13 0l271 596h471v-125h-302l20 -109h282v-126h-260l20 -111h240v-125h-353l-16 88h-189l-39 -88h-145zM332 392l-81 -183h114z" />
    <glyph glyph-name="uniE231" unicode="&#xf7e6;" horiz-adv-x="787" 
d="M13 0l271 596h471v-125h-302l20 -109h282v-126h-260l20 -111h240v-125h-353l-16 88h-189l-39 -88h-145zM332 392l-81 -183h114z" />
    <glyph glyph-name="uniE232" unicode="&#xe232;" horiz-adv-x="787" 
d="M13 0l271 596h471v-125h-302l20 -109h282v-126h-260l20 -111h240v-125h-353l-16 88h-189l-39 -88h-145zM420 646l115 170h126l-150 -170h-91zM332 392l-81 -183h114z" />
    <glyph glyph-name="uniE232" unicode="&#xf624;" horiz-adv-x="787" 
d="M13 0l271 596h471v-125h-302l20 -109h282v-126h-260l20 -111h240v-125h-353l-16 88h-189l-39 -88h-145zM420 646l115 170h126l-150 -170h-91zM332 392l-81 -183h114z" />
    <glyph glyph-name="uniE234" unicode="&#xe234;" horiz-adv-x="623" 
d="M288 646l115 170h126l-150 -170h-91zM336 -8q-135 0 -221.5 88.5t-86.5 217.5q0 130 88 218t221 88q85 0 154 -40t109 -108l-115 -72q-22 41 -61 65t-88 24q-75 0 -123.5 -51t-48.5 -124t48 -123.5t121 -50.5q106 0 151 100l124 -63q-40 -78 -109.5 -123.5t-162.5 -45.5z
" />
    <glyph glyph-name="uniE234" unicode="&#xf643;" horiz-adv-x="623" 
d="M288 646l115 170h126l-150 -170h-91zM336 -8q-135 0 -221.5 88.5t-86.5 217.5q0 130 88 218t221 88q85 0 154 -40t109 -108l-115 -72q-22 41 -61 65t-88 24q-75 0 -123.5 -51t-48.5 -124t48 -123.5t121 -50.5q106 0 151 100l124 -63q-40 -78 -109.5 -123.5t-162.5 -45.5z
" />
    <glyph glyph-name="uniE235" unicode="&#xe235;" horiz-adv-x="623" 
d="M336 -8q-135 0 -221.5 88.5t-86.5 217.5q0 130 88 218t221 88q85 0 154 -40t109 -108l-115 -72q-22 41 -61 65t-88 24q-75 0 -123.5 -51t-48.5 -124t48 -123.5t121 -50.5q106 0 151 100l124 -63q-40 -78 -109.5 -123.5t-162.5 -45.5zM177 646l119 170h84l119 -170h-102
l-59 89l-59 -89h-102z" />
    <glyph glyph-name="uniE235" unicode="&#xf628;" horiz-adv-x="623" 
d="M336 -8q-135 0 -221.5 88.5t-86.5 217.5q0 130 88 218t221 88q85 0 154 -40t109 -108l-115 -72q-22 41 -61 65t-88 24q-75 0 -123.5 -51t-48.5 -124t48 -123.5t121 -50.5q106 0 151 100l124 -63q-40 -78 -109.5 -123.5t-162.5 -45.5zM177 646l119 170h84l119 -170h-102
l-59 89l-59 -89h-102z" />
    <glyph glyph-name="uniE236" unicode="&#xe236;" horiz-adv-x="623" 
d="M336 -8q-135 0 -221.5 88.5t-86.5 217.5q0 130 88 218t221 88q85 0 154 -40t109 -108l-115 -72q-22 41 -61 65t-88 24q-75 0 -123.5 -51t-48.5 -124t48 -123.5t121 -50.5q106 0 151 100l124 -63q-40 -78 -109.5 -123.5t-162.5 -45.5zM296 646l-119 170h102l59 -89l59 89
h102l-119 -170h-84z" />
    <glyph glyph-name="uniE236" unicode="&#xf644;" horiz-adv-x="623" 
d="M336 -8q-135 0 -221.5 88.5t-86.5 217.5q0 130 88 218t221 88q85 0 154 -40t109 -108l-115 -72q-22 41 -61 65t-88 24q-75 0 -123.5 -51t-48.5 -124t48 -123.5t121 -50.5q106 0 151 100l124 -63q-40 -78 -109.5 -123.5t-162.5 -45.5zM296 646l-119 170h102l59 -89l59 89
h102l-119 -170h-84z" />
    <glyph glyph-name="uniE237" unicode="&#xe237;" horiz-adv-x="623" 
d="M336 -8q-135 0 -221.5 88.5t-86.5 217.5q0 130 88 218t221 88q85 0 154 -40t109 -108l-115 -72q-22 41 -61 65t-88 24q-75 0 -123.5 -51t-48.5 -124t48 -123.5t121 -50.5q106 0 151 100l124 -63q-40 -78 -109.5 -123.5t-162.5 -45.5zM259 715q0 35 21.5 57t57.5 22
t57.5 -21.5t21.5 -57.5q0 -35 -21.5 -56.5t-57.5 -21.5q-38 0 -58.5 21t-20.5 57z" />
    <glyph glyph-name="uniE237" unicode="&#xf629;" horiz-adv-x="623" 
d="M336 -8q-135 0 -221.5 88.5t-86.5 217.5q0 130 88 218t221 88q85 0 154 -40t109 -108l-115 -72q-22 41 -61 65t-88 24q-75 0 -123.5 -51t-48.5 -124t48 -123.5t121 -50.5q106 0 151 100l124 -63q-40 -78 -109.5 -123.5t-162.5 -45.5zM259 715q0 35 21.5 57t57.5 22
t57.5 -21.5t21.5 -57.5q0 -35 -21.5 -56.5t-57.5 -21.5q-38 0 -58.5 21t-20.5 57z" />
    <glyph glyph-name="uniE238" unicode="&#xe238;" horiz-adv-x="623" 
d="M327 -240q-78 0 -144 59l78 47l23 -18t22.5 -11t30.5 -5q22 0 38.5 9t16.5 22q0 27 -58 27h-50v106q-115 18 -185.5 102t-70.5 200q0 130 88 218t221 88q85 0 154 -40t109 -108l-115 -72q-22 41 -61 65t-88 24q-75 0 -123.5 -51t-48.5 -124t48 -123.5t121 -50.5
q106 0 151 100l124 -63q-77 -151 -240 -167v-47q55 2 85 -20t30 -60q0 -46 -45 -76.5t-111 -30.5z" />
    <glyph glyph-name="uniE238" unicode="&#xf7e7;" horiz-adv-x="623" 
d="M327 -240q-78 0 -144 59l78 47l23 -18t22.5 -11t30.5 -5q22 0 38.5 9t16.5 22q0 27 -58 27h-50v106q-115 18 -185.5 102t-70.5 200q0 130 88 218t221 88q85 0 154 -40t109 -108l-115 -72q-22 41 -61 65t-88 24q-75 0 -123.5 -51t-48.5 -124t48 -123.5t121 -50.5
q106 0 151 100l124 -63q-77 -151 -240 -167v-47q55 2 85 -20t30 -60q0 -46 -45 -76.5t-111 -30.5z" />
    <glyph glyph-name="uniE239" unicode="&#xe239;" horiz-adv-x="550" 
d="M37 0v596h174q139 0 225 -85t86 -213q0 -129 -87 -213.5t-221 -84.5h-177zM203 472h-33v-348h37q81 0 131 49.5t50 124.5q0 77 -48.5 125.5t-136.5 48.5zM204 646l-119 170h102l59 -89l59 89h102l-119 -170h-84z" />
    <glyph glyph-name="uniE239" unicode="&#xf645;" horiz-adv-x="550" 
d="M37 0v596h174q139 0 225 -85t86 -213q0 -129 -87 -213.5t-221 -84.5h-177zM203 472h-33v-348h37q81 0 131 49.5t50 124.5q0 77 -48.5 125.5t-136.5 48.5zM204 646l-119 170h102l59 -89l59 89h102l-119 -170h-84z" />
    <glyph glyph-name="uniE23C" unicode="&#xe23c;" horiz-adv-x="586" 
d="M20 243v110h51v243h176q139 0 225 -85t86 -213q0 -129 -87 -213.5t-221 -84.5h-179v243h-51zM324 243h-119v-119h37q82 0 131.5 49.5t49.5 124.5q0 77 -48.5 125.5t-135.5 48.5h-34v-119h119v-110z" />
    <glyph glyph-name="uniE23C" unicode="&#xf646;" horiz-adv-x="586" 
d="M20 243v110h51v243h176q139 0 225 -85t86 -213q0 -129 -87 -213.5t-221 -84.5h-179v243h-51zM324 243h-119v-119h37q82 0 131.5 49.5t49.5 124.5q0 77 -48.5 125.5t-135.5 48.5h-34v-119h119v-110z" />
    <glyph glyph-name="uniE23D" unicode="&#xe23d;" horiz-adv-x="421" 
d="M37 0v596h353v-125h-220v-109h220v-126h-220v-111h220v-125h-353zM161 646l115 170h126l-150 -170h-91z" />
    <glyph glyph-name="uniE23D" unicode="&#xf7e9;" horiz-adv-x="421" 
d="M37 0v596h353v-125h-220v-109h220v-126h-220v-111h220v-125h-353zM161 646l115 170h126l-150 -170h-91z" />
    <glyph glyph-name="uniE23E" unicode="&#xe23e;" horiz-adv-x="421" 
d="M37 0v596h353v-125h-220v-109h220v-126h-220v-111h220v-125h-353zM190 646l-150 170h127l114 -170h-91z" />
    <glyph glyph-name="uniE23E" unicode="&#xf7e8;" horiz-adv-x="421" 
d="M37 0v596h353v-125h-220v-109h220v-126h-220v-111h220v-125h-353zM190 646l-150 170h127l114 -170h-91z" />
    <glyph glyph-name="uniE23F" unicode="&#xe23f;" horiz-adv-x="421" 
d="M37 0v596h353v-125h-220v-109h220v-126h-220v-111h220v-125h-353zM55 646l119 170h84l119 -170h-102l-59 89l-59 -89h-102z" />
    <glyph glyph-name="uniE23F" unicode="&#xf7ea;" horiz-adv-x="421" 
d="M37 0v596h353v-125h-220v-109h220v-126h-220v-111h220v-125h-353zM55 646l119 170h84l119 -170h-102l-59 89l-59 -89h-102z" />
    <glyph glyph-name="uniE240" unicode="&#xe240;" 
d="M333 -8q-139 0 -225.5 89t-86.5 217q0 130 87 218t220 88q92 0 161 -40t109 -109l-117 -67q-49 88 -152 88q-73 0 -123.5 -51.5t-50.5 -126.5q0 -78 49.5 -128.5t126.5 -50.5q56 0 94 27t53 76h-173v126h318v-61q0 -123 -80.5 -209t-209.5 -86zM321 -250h-83l34 204h119z
" />
    <glyph glyph-name="uniE240" unicode="&#xf64c;" 
d="M333 -8q-139 0 -225.5 89t-86.5 217q0 130 87 218t220 88q92 0 161 -40t109 -109l-117 -67q-49 88 -152 88q-73 0 -123.5 -51.5t-50.5 -126.5q0 -78 49.5 -128.5t126.5 -50.5q56 0 94 27t53 76h-173v126h318v-61q0 -123 -80.5 -209t-209.5 -86zM321 -250h-83l34 204h119z
" />
    <glyph glyph-name="uniE241" unicode="&#xe241;" horiz-adv-x="421" 
d="M37 0v596h353v-125h-220v-109h220v-126h-220v-111h220v-125h-353zM178 646l-119 170h102l59 -89l59 89h102l-119 -170h-84z" />
    <glyph glyph-name="uniE241" unicode="&#xf647;" horiz-adv-x="421" 
d="M37 0v596h353v-125h-220v-109h220v-126h-220v-111h220v-125h-353zM178 646l-119 170h102l59 -89l59 89h102l-119 -170h-84z" />
    <glyph glyph-name="uniE242" unicode="&#xe242;" horiz-adv-x="421" 
d="M37 0v596h353v-125h-220v-109h220v-126h-220v-111h220v-125h-353zM85 646v86h264v-86h-264z" />
    <glyph glyph-name="uniE242" unicode="&#xf649;" horiz-adv-x="421" 
d="M37 0v596h353v-125h-220v-109h220v-126h-220v-111h220v-125h-353zM85 646v86h264v-86h-264z" />
    <glyph glyph-name="uniE243" unicode="&#xe243;" horiz-adv-x="421" 
d="M37 0v596h353v-125h-220v-109h220v-126h-220v-111h220v-125h-353zM225 638q-79 0 -120 47t-41 123h85q0 -91 76 -96q76 5 76 96h86q0 -74 -44 -122t-118 -48z" />
    <glyph glyph-name="uniE243" unicode="&#xf62a;" horiz-adv-x="421" 
d="M37 0v596h353v-125h-220v-109h220v-126h-220v-111h220v-125h-353zM225 638q-79 0 -120 47t-41 123h85q0 -91 76 -96q76 5 76 96h86q0 -74 -44 -122t-118 -48z" />
    <glyph glyph-name="uniE246" unicode="&#xe246;" horiz-adv-x="421" 
d="M37 0v596h353v-125h-220v-109h220v-126h-220v-111h220v-125h-353zM136 715q0 35 21.5 57t57.5 22t57.5 -21.5t21.5 -57.5q0 -35 -21 -56.5t-58 -21.5q-38 0 -58.5 21t-20.5 57z" />
    <glyph glyph-name="uniE246" unicode="&#xf648;" horiz-adv-x="421" 
d="M37 0v596h353v-125h-220v-109h220v-126h-220v-111h220v-125h-353zM136 715q0 35 21.5 57t57.5 22t57.5 -21.5t21.5 -57.5q0 -35 -21 -56.5t-58 -21.5q-38 0 -58.5 21t-20.5 57z" />
    <glyph glyph-name="uniE249" unicode="&#xe249;" horiz-adv-x="421" 
d="M37 0v596h353v-125h-220v-109h220v-126h-220v-111h220v-125q-85 -56 -107.5 -75t-22.5 -38q0 -31 43 -31q6 0 11 0.5t10 2.5t8 3.5t8 5l7 5t8 6.5t8 6l79 -54q-27 -25 -65.5 -41.5t-73.5 -16.5q-64 0 -104 31t-40 78q0 65 77 118h-199z" />
    <glyph glyph-name="uniE249" unicode="&#xf64a;" horiz-adv-x="421" 
d="M37 0v596h353v-125h-220v-109h220v-126h-220v-111h220v-125q-85 -56 -107.5 -75t-22.5 -38q0 -31 43 -31q6 0 11 0.5t10 2.5t8 3.5t8 5l7 5t8 6.5t8 6l79 -54q-27 -25 -65.5 -41.5t-73.5 -16.5q-64 0 -104 31t-40 78q0 65 77 118h-199z" />
    <glyph glyph-name="uniE24B" unicode="&#xe24b;" 
d="M333 -8q-139 0 -225.5 89t-86.5 217q0 130 87 218t220 88q92 0 161 -40t109 -109l-117 -67q-49 88 -152 88q-73 0 -123.5 -51.5t-50.5 -126.5q0 -78 49.5 -128.5t126.5 -50.5q56 0 94 27t53 76h-173v126h318v-61q0 -123 -80.5 -209t-209.5 -86zM171 646l119 170h84
l119 -170h-102l-59 89l-59 -89h-102z" />
    <glyph glyph-name="uniE24B" unicode="&#xf62c;" 
d="M333 -8q-139 0 -225.5 89t-86.5 217q0 130 87 218t220 88q92 0 161 -40t109 -109l-117 -67q-49 88 -152 88q-73 0 -123.5 -51.5t-50.5 -126.5q0 -78 49.5 -128.5t126.5 -50.5q56 0 94 27t53 76h-173v126h318v-61q0 -123 -80.5 -209t-209.5 -86zM171 646l119 170h84
l119 -170h-102l-59 89l-59 -89h-102z" />
    <glyph glyph-name="uniE24E" unicode="&#xe24e;" 
d="M333 -8q-139 0 -225.5 89t-86.5 217q0 130 87 218t220 88q92 0 161 -40t109 -109l-117 -67q-49 88 -152 88q-73 0 -123.5 -51.5t-50.5 -126.5q0 -78 49.5 -128.5t126.5 -50.5q56 0 94 27t53 76h-173v126h318v-61q0 -123 -80.5 -209t-209.5 -86zM332 638q-79 0 -120 47
t-41 123h85q0 -91 76 -96q76 5 76 96h86q0 -74 -44 -122t-118 -48z" />
    <glyph glyph-name="uniE24E" unicode="&#xf64b;" 
d="M333 -8q-139 0 -225.5 89t-86.5 217q0 130 87 218t220 88q92 0 161 -40t109 -109l-117 -67q-49 88 -152 88q-73 0 -123.5 -51.5t-50.5 -126.5q0 -78 49.5 -128.5t126.5 -50.5q56 0 94 27t53 76h-173v126h318v-61q0 -123 -80.5 -209t-209.5 -86zM332 638q-79 0 -120 47
t-41 123h85q0 -91 76 -96q76 5 76 96h86q0 -74 -44 -122t-118 -48z" />
    <glyph glyph-name="uniE24F" unicode="&#xe24f;" 
d="M333 -8q-139 0 -225.5 89t-86.5 217q0 130 87 218t220 88q92 0 161 -40t109 -109l-117 -67q-49 88 -152 88q-73 0 -123.5 -51.5t-50.5 -126.5q0 -78 49.5 -128.5t126.5 -50.5q56 0 94 27t53 76h-173v126h318v-61q0 -123 -80.5 -209t-209.5 -86zM252 715q0 35 21.5 57
t57.5 22t57.5 -21.5t21.5 -57.5q0 -35 -21 -56.5t-58 -21.5q-38 0 -58.5 21t-20.5 57z" />
    <glyph glyph-name="uniE24F" unicode="&#xf62d;" 
d="M333 -8q-139 0 -225.5 89t-86.5 217q0 130 87 218t220 88q92 0 161 -40t109 -109l-117 -67q-49 88 -152 88q-73 0 -123.5 -51.5t-50.5 -126.5q0 -78 49.5 -128.5t126.5 -50.5q56 0 94 27t53 76h-173v126h318v-61q0 -123 -80.5 -209t-209.5 -86zM252 715q0 35 21.5 57
t57.5 22t57.5 -21.5t21.5 -57.5q0 -35 -21 -56.5t-58 -21.5q-38 0 -58.5 21t-20.5 57z" />
    <glyph glyph-name="uniE253" unicode="&#xe253;" horiz-adv-x="528" 
d="M357 0v234h-186v-234h-134v596h134v-230h186v230h134v-596h-134zM104 646l119 170h84l119 -170h-102l-59 89l-59 -89h-102z" />
    <glyph glyph-name="uniE253" unicode="&#xf62f;" horiz-adv-x="528" 
d="M357 0v234h-186v-234h-134v596h134v-230h186v230h134v-596h-134zM104 646l119 170h84l119 -170h-102l-59 89l-59 -89h-102z" />
    <glyph glyph-name="uniE257" unicode="&#xe257;" horiz-adv-x="550" 
d="M368 0v215h-186v-215h-134v404h-37v132h37v60h134v-60h186v60h134v-60h36v-132h-36v-404h-134zM182 404v-57h186v57h-186z" />
    <glyph glyph-name="uniE257" unicode="&#xf62e;" horiz-adv-x="550" 
d="M368 0v215h-186v-215h-134v404h-37v132h37v60h134v-60h186v60h134v-60h36v-132h-36v-404h-134zM182 404v-57h186v57h-186z" />
    <glyph glyph-name="uniE258" unicode="&#xe258;" horiz-adv-x="219" 
d="M61 646l115 170h126l-150 -170h-91zM42 0v596h135v-596h-135z" />
    <glyph glyph-name="uniE258" unicode="&#xf7ed;" horiz-adv-x="219" 
d="M61 646l115 170h126l-150 -170h-91zM42 0v596h135v-596h-135z" />
    <glyph glyph-name="uniE259" unicode="&#xe259;" horiz-adv-x="219" 
d="M67 646l-150 170h127l114 -170h-91zM42 0v596h135v-596h-135z" />
    <glyph glyph-name="uniE259" unicode="&#xf7ec;" horiz-adv-x="219" 
d="M67 646l-150 170h127l114 -170h-91zM42 0v596h135v-596h-135z" />
    <glyph glyph-name="uniE25A" unicode="&#xe25a;" horiz-adv-x="219" 
d="M42 0v596h135v-596h-135zM-42 646l119 170h84l119 -170h-102l-59 89l-59 -89h-102z" />
    <glyph glyph-name="uniE25A" unicode="&#xf7ee;" horiz-adv-x="219" 
d="M42 0v596h135v-596h-135zM-42 646l119 170h84l119 -170h-102l-59 89l-59 -89h-102z" />
    <glyph glyph-name="uniE25B" unicode="&#xe25b;" horiz-adv-x="219" 
d="M168 647v137h134v-137h-134zM-63 647v137h134v-137h-134zM42 0v596h135v-596h-135z" />
    <glyph glyph-name="uniE25B" unicode="&#xf7ef;" horiz-adv-x="219" 
d="M168 647v137h134v-137h-134zM-63 647v137h134v-137h-134zM42 0v596h135v-596h-135z" />
    <glyph glyph-name="uniE25C" unicode="&#xe25c;" horiz-adv-x="219" 
d="M42 0v596h135v-596h-135zM26 646h-78q0 61 28 98t76 37q35 0 77 -24q37 -25 52 -25q28 0 28 45h78q0 -64 -26.5 -99.5t-78.5 -35.5q-9 0 -18.5 1.5t-16 3.5t-15.5 6t-12.5 6l-13 7.5t-11.5 6.5q-28 17 -43 17q-26 0 -26 -44z" />
    <glyph glyph-name="uniE25C" unicode="&#xf632;" horiz-adv-x="219" 
d="M42 0v596h135v-596h-135zM26 646h-78q0 61 28 98t76 37q35 0 77 -24q37 -25 52 -25q28 0 28 45h78q0 -64 -26.5 -99.5t-78.5 -35.5q-9 0 -18.5 1.5t-16 3.5t-15.5 6t-12.5 6l-13 7.5t-11.5 6.5q-28 17 -43 17q-26 0 -26 -44z" />
    <glyph glyph-name="uniE25E" unicode="&#xe25e;" horiz-adv-x="219" 
d="M-24 646v86h264v-86h-264zM42 0v596h135v-596h-135z" />
    <glyph glyph-name="uniE25E" unicode="&#xf64d;" horiz-adv-x="219" 
d="M-24 646v86h264v-86h-264zM42 0v596h135v-596h-135z" />
    <glyph glyph-name="uniE25F" unicode="&#xe25f;" horiz-adv-x="219" 
d="M42 0v596h135v-596h-135zM109 638q-79 0 -120 47t-41 123h85q0 -91 76 -96q76 5 76 96h86q0 -74 -44 -122t-118 -48z" />
    <glyph glyph-name="uniE25F" unicode="&#xf630;" horiz-adv-x="219" 
d="M42 0v596h135v-596h-135zM109 638q-79 0 -120 47t-41 123h85q0 -91 76 -96q76 5 76 96h86q0 -74 -44 -122t-118 -48z" />
    <glyph glyph-name="uniE262" unicode="&#xe262;" horiz-adv-x="219" 
d="M42 0v596h135v-596h-135zM30 715q0 35 21.5 57t57.5 22t57.5 -21.5t21.5 -57.5q0 -35 -21 -56.5t-58 -21.5q-38 0 -58.5 21t-20.5 57z" />
    <glyph glyph-name="uniE262" unicode="&#xf666;" horiz-adv-x="219" 
d="M42 0v596h135v-596h-135zM30 715q0 35 21.5 57t57.5 22t57.5 -21.5t21.5 -57.5q0 -35 -21 -56.5t-58 -21.5q-38 0 -58.5 21t-20.5 57z" />
    <glyph glyph-name="uniE264" unicode="&#xe264;" horiz-adv-x="219" 
d="M105 -229q-58 0 -94.5 30.5t-37.5 77.5q0 69 69 125v592h135v-596q-105 -65 -105 -111q0 -33 38 -33q26 0 50 30l79 -55q-58 -60 -134 -60z" />
    <glyph glyph-name="uniE264" unicode="&#xf64e;" horiz-adv-x="219" 
d="M105 -229q-58 0 -94.5 30.5t-37.5 77.5q0 69 69 125v592h135v-596q-105 -65 -105 -111q0 -33 38 -33q26 0 50 30l79 -55q-58 -60 -134 -60z" />
    <glyph glyph-name="uniE265" unicode="&#xe265;" horiz-adv-x="433" 
d="M210 -8q-74 0 -124 35t-68 95l128 51q15 -58 63 -58q25 0 39 17.5t14 45.5v418h135v-409q0 -94 -46.5 -144.5t-140.5 -50.5zM167 646l119 170h84l119 -170h-102l-59 89l-59 -89h-102z" />
    <glyph glyph-name="uniE265" unicode="&#xf633;" horiz-adv-x="433" 
d="M210 -8q-74 0 -124 35t-68 95l128 51q15 -58 63 -58q25 0 39 17.5t14 45.5v418h135v-409q0 -94 -46.5 -144.5t-140.5 -50.5zM167 646l119 170h84l119 -170h-102l-59 89l-59 -89h-102z" />
    <glyph glyph-name="uniE268" unicode="&#xe268;" horiz-adv-x="524" 
d="M365 0l-141 263l-53 -70v-193h-134v596h134v-225l172 225h159l-181 -235l194 -361h-150zM255 -244h-83l34 204h119z" />
    <glyph glyph-name="uniE268" unicode="&#xf64f;" horiz-adv-x="524" 
d="M365 0l-141 263l-53 -70v-193h-134v596h134v-225l172 225h159l-181 -235l194 -361h-150zM255 -244h-83l34 204h119z" />
    <glyph glyph-name="uniE26B" unicode="&#xe26b;" horiz-adv-x="400" 
d="M37 0v596h134v-468h201v-128h-335zM55 646l115 170h126l-150 -170h-91z" />
    <glyph glyph-name="uniE26B" unicode="&#xf650;" horiz-adv-x="400" 
d="M37 0v596h134v-468h201v-128h-335zM55 646l115 170h126l-150 -170h-91z" />
    <glyph glyph-name="uniE26C" unicode="&#xe26c;" horiz-adv-x="400" 
d="M37 0v596h134v-468h201v-128h-335zM246 425l25 171h109l-51 -171h-83z" />
    <glyph glyph-name="uniE26C" unicode="&#xf651;" horiz-adv-x="400" 
d="M37 0v596h134v-468h201v-128h-335zM246 425l25 171h109l-51 -171h-83z" />
    <glyph glyph-name="uniE26D" unicode="&#xe26d;" horiz-adv-x="400" 
d="M37 0v596h134v-468h201v-128h-335zM195 -254h-83l34 204h119z" />
    <glyph glyph-name="uniE26D" unicode="&#xf652;" horiz-adv-x="400" 
d="M37 0v596h134v-468h201v-128h-335zM195 -254h-83l34 204h119z" />
    <glyph glyph-name="uniE271" unicode="&#xe271;" horiz-adv-x="399" 
d="M37 0v596h134v-468h200v-128h-334zM224 315q0 35 21.5 57t57.5 22t57.5 -21.5t21.5 -57.5q0 -35 -21 -56.5t-58 -21.5q-38 0 -58.5 21t-20.5 57z" />
    <glyph glyph-name="uniE271" unicode="&#xf634;" horiz-adv-x="399" 
d="M37 0v596h134v-468h200v-128h-334zM224 315q0 35 21.5 57t57.5 22t57.5 -21.5t21.5 -57.5q0 -35 -21 -56.5t-58 -21.5q-38 0 -58.5 21t-20.5 57z" />
    <glyph glyph-name="uniE272" unicode="&#xe272;" horiz-adv-x="434" 
d="M12 227v98l59 17v254h134v-214l134 41v-98l-134 -41v-156h201v-128h-335v244z" />
    <glyph glyph-name="uniE272" unicode="&#xf6f9;" horiz-adv-x="434" 
d="M12 227v98l59 17v254h134v-214l134 41v-98l-134 -41v-156h201v-128h-335v244z" />
    <glyph glyph-name="uniE276" unicode="&#xe276;" horiz-adv-x="579" 
d="M37 0v596h145l227 -359v359h133v-596h-134l-238 374v-374h-133zM248 646l115 170h126l-150 -170h-91z" />
    <glyph glyph-name="uniE276" unicode="&#xf653;" horiz-adv-x="579" 
d="M37 0v596h145l227 -359v359h133v-596h-134l-238 374v-374h-133zM248 646l115 170h126l-150 -170h-91z" />
    <glyph glyph-name="uniE279" unicode="&#xe279;" horiz-adv-x="579" 
d="M37 0v596h145l227 -359v359h133v-596h-134l-238 374v-374h-133zM203 646h-78q0 61 28 98t76 37q35 0 77 -24q37 -25 52 -25q28 0 28 45h78q0 -64 -26.5 -99.5t-78.5 -35.5q-9 0 -18.5 1.5t-16 3.5t-15.5 6t-12.5 6l-13 7.5t-11.5 6.5q-28 17 -43 17q-26 0 -26 -44z" />
    <glyph glyph-name="uniE27A" unicode="&#xe27a;" horiz-adv-x="579" 
d="M37 0v596h145l227 -359v359h133v-596h-134l-238 374v-374h-133zM253 638l-119 170h102l59 -89l59 89h102l-119 -170h-84z" />
    <glyph glyph-name="uniE27A" unicode="&#xf654;" horiz-adv-x="579" 
d="M37 0v596h145l227 -359v359h133v-596h-134l-238 374v-374h-133zM253 638l-119 170h102l59 -89l59 89h102l-119 -170h-84z" />
    <glyph glyph-name="uniE27D" unicode="&#xe27d;" horiz-adv-x="579" 
d="M37 0v596h145l227 -359v359h133v-596h-134l-238 374v-374h-133zM289 -254h-83l34 204h119z" />
    <glyph glyph-name="uniE27D" unicode="&#xf655;" horiz-adv-x="579" 
d="M37 0v596h145l227 -359v359h133v-596h-134l-238 374v-374h-133zM289 -254h-83l34 204h119z" />
    <glyph glyph-name="uniE281" unicode="&#xe281;" horiz-adv-x="653" 
d="M326 -8q-127 0 -216 89t-89 217q0 127 89 216.5t216 89.5t216.5 -89.5t89.5 -216.5q0 -128 -89 -217t-217 -89zM326 124q73 0 121.5 50.5t48.5 123.5t-49 123.5t-121 50.5t-120.5 -51t-48.5 -123t48.5 -123t120.5 -51zM277 646l115 170h126l-150 -170h-91z" />
    <glyph glyph-name="uniE281" unicode="&#xf7f3;" horiz-adv-x="653" 
d="M326 -8q-127 0 -216 89t-89 217q0 127 89 216.5t216 89.5t216.5 -89.5t89.5 -216.5q0 -128 -89 -217t-217 -89zM326 124q73 0 121.5 50.5t48.5 123.5t-49 123.5t-121 50.5t-120.5 -51t-48.5 -123t48.5 -123t120.5 -51zM277 646l115 170h126l-150 -170h-91z" />
    <glyph glyph-name="uniE282" unicode="&#xe282;" horiz-adv-x="653" 
d="M326 -8q-127 0 -216 89t-89 217q0 127 89 216.5t216 89.5t216.5 -89.5t89.5 -216.5q0 -128 -89 -217t-217 -89zM326 124q73 0 121.5 50.5t48.5 123.5t-49 123.5t-121 50.5t-120.5 -51t-48.5 -123t48.5 -123t120.5 -51zM294 646l-150 170h127l114 -170h-91z" />
    <glyph glyph-name="uniE282" unicode="&#xf7f2;" horiz-adv-x="653" 
d="M326 -8q-127 0 -216 89t-89 217q0 127 89 216.5t216 89.5t216.5 -89.5t89.5 -216.5q0 -128 -89 -217t-217 -89zM326 124q73 0 121.5 50.5t48.5 123.5t-49 123.5t-121 50.5t-120.5 -51t-48.5 -123t48.5 -123t120.5 -51zM294 646l-150 170h127l114 -170h-91z" />
    <glyph glyph-name="uniE283" unicode="&#xe283;" horiz-adv-x="653" 
d="M326 -8q-127 0 -216 89t-89 217q0 127 89 216.5t216 89.5t216.5 -89.5t89.5 -216.5q0 -128 -89 -217t-217 -89zM326 124q73 0 121.5 50.5t48.5 123.5t-49 123.5t-121 50.5t-120.5 -51t-48.5 -123t48.5 -123t120.5 -51zM165 646l119 170h84l119 -170h-102l-59 89l-59 -89
h-102z" />
    <glyph glyph-name="uniE283" unicode="&#xf7f4;" horiz-adv-x="653" 
d="M326 -8q-127 0 -216 89t-89 217q0 127 89 216.5t216 89.5t216.5 -89.5t89.5 -216.5q0 -128 -89 -217t-217 -89zM326 124q73 0 121.5 50.5t48.5 123.5t-49 123.5t-121 50.5t-120.5 -51t-48.5 -123t48.5 -123t120.5 -51zM165 646l119 170h84l119 -170h-102l-59 89l-59 -89
h-102z" />
    <glyph glyph-name="uniE284" unicode="&#xe284;" horiz-adv-x="653" 
d="M326 -8q-127 0 -216 89t-89 217q0 127 89 216.5t216 89.5t216.5 -89.5t89.5 -216.5q0 -128 -89 -217t-217 -89zM326 124q73 0 121.5 50.5t48.5 123.5t-49 123.5t-121 50.5t-120.5 -51t-48.5 -123t48.5 -123t120.5 -51zM159 715q0 32 19.5 52t52.5 20t52.5 -19.5
t19.5 -52.5t-19.5 -52t-52.5 -19t-52.5 19t-19.5 52zM350 715q0 32 19.5 52t52.5 20t52.5 -20t19.5 -52t-19.5 -51.5t-52.5 -19.5q-35 0 -53.5 19t-18.5 52z" />
    <glyph glyph-name="uniE284" unicode="&#xf7f6;" horiz-adv-x="653" 
d="M326 -8q-127 0 -216 89t-89 217q0 127 89 216.5t216 89.5t216.5 -89.5t89.5 -216.5q0 -128 -89 -217t-217 -89zM326 124q73 0 121.5 50.5t48.5 123.5t-49 123.5t-121 50.5t-120.5 -51t-48.5 -123t48.5 -123t120.5 -51zM159 715q0 32 19.5 52t52.5 20t52.5 -19.5
t19.5 -52.5t-19.5 -52t-52.5 -19t-52.5 19t-19.5 52zM350 715q0 32 19.5 52t52.5 20t52.5 -20t19.5 -52t-19.5 -51.5t-52.5 -19.5q-35 0 -53.5 19t-18.5 52z" />
    <glyph glyph-name="uniE285" unicode="&#xe285;" horiz-adv-x="653" 
d="M326 -8q-127 0 -216 89t-89 217q0 127 89 216.5t216 89.5t216.5 -89.5t89.5 -216.5q0 -128 -89 -217t-217 -89zM326 124q73 0 121.5 50.5t48.5 123.5t-49 123.5t-121 50.5t-120.5 -51t-48.5 -123t48.5 -123t120.5 -51zM245 646h-78q0 61 28 98t76 37q35 0 77 -24
q37 -25 52 -25q28 0 28 45h78q0 -64 -26.5 -99.5t-78.5 -35.5q-9 0 -18.5 1.5t-16 3.5t-15.5 6t-12.5 6l-13 7.5t-11.5 6.5q-28 17 -43 17q-26 0 -26 -44z" />
    <glyph glyph-name="uniE285" unicode="&#xf7f5;" horiz-adv-x="653" 
d="M326 -8q-127 0 -216 89t-89 217q0 127 89 216.5t216 89.5t216.5 -89.5t89.5 -216.5q0 -128 -89 -217t-217 -89zM326 124q73 0 121.5 50.5t48.5 123.5t-49 123.5t-121 50.5t-120.5 -51t-48.5 -123t48.5 -123t120.5 -51zM245 646h-78q0 61 28 98t76 37q35 0 77 -24
q37 -25 52 -25q28 0 28 45h78q0 -64 -26.5 -99.5t-78.5 -35.5q-9 0 -18.5 1.5t-16 3.5t-15.5 6t-12.5 6l-13 7.5t-11.5 6.5q-28 17 -43 17q-26 0 -26 -44z" />
    <glyph glyph-name="uniE287" unicode="&#xe287;" horiz-adv-x="653" 
d="M326 -8q-127 0 -216 89t-89 217q0 127 89 216.5t216 89.5t216.5 -89.5t89.5 -216.5q0 -128 -89 -217t-217 -89zM326 124q73 0 121.5 50.5t48.5 123.5t-49 123.5t-121 50.5t-120.5 -51t-48.5 -123t48.5 -123t120.5 -51zM194 646v86h264v-86h-264z" />
    <glyph glyph-name="uniE287" unicode="&#xf657;" horiz-adv-x="653" 
d="M326 -8q-127 0 -216 89t-89 217q0 127 89 216.5t216 89.5t216.5 -89.5t89.5 -216.5q0 -128 -89 -217t-217 -89zM326 124q73 0 121.5 50.5t48.5 123.5t-49 123.5t-121 50.5t-120.5 -51t-48.5 -123t48.5 -123t120.5 -51zM194 646v86h264v-86h-264z" />
    <glyph glyph-name="uniE288" unicode="&#xe288;" horiz-adv-x="653" 
d="M326 -8q-127 0 -216 89t-89 217q0 127 89 216.5t216 89.5t216.5 -89.5t89.5 -216.5q0 -128 -89 -217t-217 -89zM326 124q73 0 121.5 50.5t48.5 123.5t-49 123.5t-121 50.5t-120.5 -51t-48.5 -123t48.5 -123t120.5 -51zM326 638q-79 0 -120 47t-41 123h85q0 -91 76 -96
q76 5 76 96h86q0 -74 -44 -122t-118 -48z" />
    <glyph glyph-name="uniE288" unicode="&#xf635;" horiz-adv-x="653" 
d="M326 -8q-127 0 -216 89t-89 217q0 127 89 216.5t216 89.5t216.5 -89.5t89.5 -216.5q0 -128 -89 -217t-217 -89zM326 124q73 0 121.5 50.5t48.5 123.5t-49 123.5t-121 50.5t-120.5 -51t-48.5 -123t48.5 -123t120.5 -51zM326 638q-79 0 -120 47t-41 123h85q0 -91 76 -96
q76 5 76 96h86q0 -74 -44 -122t-118 -48z" />
    <glyph glyph-name="uniE28A" unicode="&#xe28a;" horiz-adv-x="653" 
d="M326 -8q-127 0 -216 89t-89 217q0 127 89 216.5t216 89.5t216.5 -89.5t89.5 -216.5q0 -128 -89 -217t-217 -89zM326 124q73 0 121.5 50.5t48.5 123.5t-49 123.5t-121 50.5t-120.5 -51t-48.5 -123t48.5 -123t120.5 -51zM195 643l114 170h120l-150 -170h-84zM361 643
l114 170h120l-150 -170h-84z" />
    <glyph glyph-name="uniE28A" unicode="&#xf656;" horiz-adv-x="653" 
d="M326 -8q-127 0 -216 89t-89 217q0 127 89 216.5t216 89.5t216.5 -89.5t89.5 -216.5q0 -128 -89 -217t-217 -89zM326 124q73 0 121.5 50.5t48.5 123.5t-49 123.5t-121 50.5t-120.5 -51t-48.5 -123t48.5 -123t120.5 -51zM195 643l114 170h120l-150 -170h-84zM361 643
l114 170h120l-150 -170h-84z" />
    <glyph glyph-name="uniE295" unicode="&#xe295;" horiz-adv-x="653" 
d="M326 -8q-79 0 -146 36l-23 -28h-150l84 102q-70 84 -70 196q0 127 89 216.5t216 89.5q80 0 148 -39l25 31h150l-86 -105q69 -85 69 -193q0 -128 -89 -217t-217 -89zM156 298q0 -48 23 -89l208 252q-31 11 -61 11q-72 0 -121 -51t-49 -123zM326 124q73 0 121.5 50.5
t48.5 123.5q0 48 -22 86l-207 -250q24 -10 59 -10z" />
    <glyph glyph-name="uniE295" unicode="&#xf7f8;" horiz-adv-x="653" 
d="M326 -8q-79 0 -146 36l-23 -28h-150l84 102q-70 84 -70 196q0 127 89 216.5t216 89.5q80 0 148 -39l25 31h150l-86 -105q69 -85 69 -193q0 -128 -89 -217t-217 -89zM156 298q0 -48 23 -89l208 252q-31 11 -61 11q-72 0 -121 -51t-49 -123zM326 124q73 0 121.5 50.5
t48.5 123.5q0 48 -22 86l-207 -250q24 -10 59 -10z" />
    <glyph glyph-name="uniE296" unicode="&#xe296;" horiz-adv-x="653" 
d="M326 -8q-79 0 -146 36l-23 -28h-150l84 102q-70 84 -70 196q0 127 89 216.5t216 89.5q80 0 148 -39l25 31h150l-86 -105q69 -85 69 -193q0 -128 -89 -217t-217 -89zM156 298q0 -48 23 -89l208 252q-31 11 -61 11q-72 0 -121 -51t-49 -123zM326 124q73 0 121.5 50.5
t48.5 123.5q0 48 -22 86l-207 -250q24 -10 59 -10zM271 646l115 170h126l-150 -170h-91z" />
    <glyph glyph-name="uniE296" unicode="&#xf627;" horiz-adv-x="653" 
d="M326 -8q-79 0 -146 36l-23 -28h-150l84 102q-70 84 -70 196q0 127 89 216.5t216 89.5q80 0 148 -39l25 31h150l-86 -105q69 -85 69 -193q0 -128 -89 -217t-217 -89zM156 298q0 -48 23 -89l208 252q-31 11 -61 11q-72 0 -121 -51t-49 -123zM326 124q73 0 121.5 50.5
t48.5 123.5q0 48 -22 86l-207 -250q24 -10 59 -10zM271 646l115 170h126l-150 -170h-91z" />
    <glyph glyph-name="uniE298" unicode="&#xe298;" horiz-adv-x="885" 
d="M500 0v53q-74 -61 -174 -61q-127 0 -216 89t-89 217q0 127 89 216.5t216 89.5q99 0 174 -62v54h354v-125h-221v-109h221v-126h-221v-111h221v-125h-354zM326 124q73 0 121.5 50.5t48.5 123.5t-49 123.5t-121 50.5t-120.5 -51t-48.5 -123t48.5 -123t120.5 -51z" />
    <glyph glyph-name="uniE298" unicode="&#xf6fa;" horiz-adv-x="885" 
d="M500 0v53q-74 -61 -174 -61q-127 0 -216 89t-89 217q0 127 89 216.5t216 89.5q99 0 174 -62v54h354v-125h-221v-109h221v-126h-221v-111h221v-125h-354zM326 124q73 0 121.5 50.5t48.5 123.5t-49 123.5t-121 50.5t-120.5 -51t-48.5 -123t48.5 -123t120.5 -51z" />
    <glyph glyph-name="uniE29A" unicode="&#xe29a;" horiz-adv-x="489" 
d="M37 0v596h207q103 0 163.5 -58.5t60.5 -144.5q0 -59 -29 -105.5t-85 -69.5l130 -218h-152l-162 289v-289h-133zM234 473h-64v-168h64q47 0 71.5 25t24.5 61q0 82 -96 82zM171 646l115 170h126l-150 -170h-91z" />
    <glyph glyph-name="uniE29A" unicode="&#xf658;" horiz-adv-x="489" 
d="M37 0v596h207q103 0 163.5 -58.5t60.5 -144.5q0 -59 -29 -105.5t-85 -69.5l130 -218h-152l-162 289v-289h-133zM234 473h-64v-168h64q47 0 71.5 25t24.5 61q0 82 -96 82zM171 646l115 170h126l-150 -170h-91z" />
    <glyph glyph-name="uniE29B" unicode="&#xe29b;" horiz-adv-x="489" 
d="M37 0v596h207q103 0 163.5 -58.5t60.5 -144.5q0 -59 -29 -105.5t-85 -69.5l130 -218h-152l-162 289v-289h-133zM196 646l-119 170h102l59 -89l59 89h102l-119 -170h-84zM234 473h-64v-168h64q47 0 71.5 25t24.5 61q0 82 -96 82z" />
    <glyph glyph-name="uniE29B" unicode="&#xf659;" horiz-adv-x="489" 
d="M37 0v596h207q103 0 163.5 -58.5t60.5 -144.5q0 -59 -29 -105.5t-85 -69.5l130 -218h-152l-162 289v-289h-133zM196 646l-119 170h102l59 -89l59 89h102l-119 -170h-84zM234 473h-64v-168h64q47 0 71.5 25t24.5 61q0 82 -96 82z" />
    <glyph glyph-name="uniE29E" unicode="&#xe29e;" horiz-adv-x="489" 
d="M37 0v596h207q103 0 163.5 -58.5t60.5 -144.5q0 -59 -29 -105.5t-85 -69.5l130 -218h-152l-162 289v-289h-133zM234 473h-64v-168h64q47 0 71.5 25t24.5 61q0 82 -96 82zM237 -252h-83l34 204h119z" />
    <glyph glyph-name="uniE29E" unicode="&#xf65a;" horiz-adv-x="489" 
d="M37 0v596h207q103 0 163.5 -58.5t60.5 -144.5q0 -59 -29 -105.5t-85 -69.5l130 -218h-152l-162 289v-289h-133zM234 473h-64v-168h64q47 0 71.5 25t24.5 61q0 82 -96 82zM237 -252h-83l34 204h119z" />
    <glyph glyph-name="uniE300" unicode="&#xe300;" horiz-adv-x="519" 
d="M260 -8q-102 0 -162.5 58.5t-60.5 164.5v381h134v-385q0 -44 24 -70.5t64 -26.5t65 26.5t25 70.5v385h134v-381q0 -106 -60 -164.5t-163 -58.5zM100 646l119 170h84l119 -170h-102l-59 89l-59 -89h-102z" />
    <glyph glyph-name="uniE300" unicode="&#xf7fb;" horiz-adv-x="519" 
d="M260 -8q-102 0 -162.5 58.5t-60.5 164.5v381h134v-385q0 -44 24 -70.5t64 -26.5t65 26.5t25 70.5v385h134v-381q0 -106 -60 -164.5t-163 -58.5zM100 646l119 170h84l119 -170h-102l-59 89l-59 -89h-102z" />
    <glyph glyph-name="uniE302" unicode="&#xe302;" horiz-adv-x="488" 
d="M192 646l115 170h126l-150 -170h-91zM244 -8q-137 0 -236 108l117 92q46 -75 119 -75q35 0 56 18.5t21 44.5q0 33 -54 53q-9 4 -61 19q-30 9 -49 16t-44.5 21.5t-40 31t-25.5 43.5t-11 61q0 78 57 129t147 51q128 0 210 -93l-108 -83q-37 59 -101 59q-32 0 -50.5 -15.5
t-18.5 -39.5q0 -18 15.5 -31t32.5 -19.5t52 -17.5q9 -3 13 -4q29 -9 49.5 -16.5t46 -22.5t41.5 -32.5t27 -45t11 -61.5q0 -78 -58.5 -134.5t-157.5 -56.5z" />
    <glyph glyph-name="uniE302" unicode="&#xf65b;" horiz-adv-x="488" 
d="M192 646l115 170h126l-150 -170h-91zM244 -8q-137 0 -236 108l117 92q46 -75 119 -75q35 0 56 18.5t21 44.5q0 33 -54 53q-9 4 -61 19q-30 9 -49 16t-44.5 21.5t-40 31t-25.5 43.5t-11 61q0 78 57 129t147 51q128 0 210 -93l-108 -83q-37 59 -101 59q-32 0 -50.5 -15.5
t-18.5 -39.5q0 -18 15.5 -31t32.5 -19.5t52 -17.5q9 -3 13 -4q29 -9 49.5 -16.5t46 -22.5t41.5 -32.5t27 -45t11 -61.5q0 -78 -58.5 -134.5t-157.5 -56.5z" />
    <glyph glyph-name="uniE303" unicode="&#xe303;" horiz-adv-x="488" 
d="M244 -8q-137 0 -236 108l117 92q46 -75 119 -75q35 0 56 18.5t21 44.5q0 33 -54 53q-9 4 -61 19q-30 9 -49 16t-44.5 21.5t-40 31t-25.5 43.5t-11 61q0 78 57 129t147 51q128 0 210 -93l-108 -83q-37 59 -101 59q-32 0 -50.5 -15.5t-18.5 -39.5q0 -18 15.5 -31
t32.5 -19.5t52 -17.5q9 -3 13 -4q29 -9 49.5 -16.5t46 -22.5t41.5 -32.5t27 -45t11 -61.5q0 -78 -58.5 -134.5t-157.5 -56.5zM88 646l119 170h84l119 -170h-102l-59 89l-59 -89h-102z" />
    <glyph glyph-name="uniE303" unicode="&#xf636;" horiz-adv-x="488" 
d="M244 -8q-137 0 -236 108l117 92q46 -75 119 -75q35 0 56 18.5t21 44.5q0 33 -54 53q-9 4 -61 19q-30 9 -49 16t-44.5 21.5t-40 31t-25.5 43.5t-11 61q0 78 57 129t147 51q128 0 210 -93l-108 -83q-37 59 -101 59q-32 0 -50.5 -15.5t-18.5 -39.5q0 -18 15.5 -31
t32.5 -19.5t52 -17.5q9 -3 13 -4q29 -9 49.5 -16.5t46 -22.5t41.5 -32.5t27 -45t11 -61.5q0 -78 -58.5 -134.5t-157.5 -56.5zM88 646l119 170h84l119 -170h-102l-59 89l-59 -89h-102z" />
    <glyph glyph-name="uniE304" unicode="&#xe304;" horiz-adv-x="488" 
d="M244 -8q-137 0 -236 108l117 92q46 -75 119 -75q35 0 56 18.5t21 44.5q0 33 -54 53q-9 4 -61 19q-30 9 -49 16t-44.5 21.5t-40 31t-25.5 43.5t-11 61q0 78 57 129t147 51q128 0 210 -93l-108 -83q-37 59 -101 59q-32 0 -50.5 -15.5t-18.5 -39.5q0 -18 15.5 -31
t32.5 -19.5t52 -17.5q9 -3 13 -4q29 -9 49.5 -16.5t46 -22.5t41.5 -32.5t27 -45t11 -61.5q0 -78 -58.5 -134.5t-157.5 -56.5zM209 646l-119 170h102l59 -89l59 89h102l-119 -170h-84z" />
    <glyph glyph-name="uniE304" unicode="&#xf6fd;" horiz-adv-x="488" 
d="M244 -8q-137 0 -236 108l117 92q46 -75 119 -75q35 0 56 18.5t21 44.5q0 33 -54 53q-9 4 -61 19q-30 9 -49 16t-44.5 21.5t-40 31t-25.5 43.5t-11 61q0 78 57 129t147 51q128 0 210 -93l-108 -83q-37 59 -101 59q-32 0 -50.5 -15.5t-18.5 -39.5q0 -18 15.5 -31
t32.5 -19.5t52 -17.5q9 -3 13 -4q29 -9 49.5 -16.5t46 -22.5t41.5 -32.5t27 -45t11 -61.5q0 -78 -58.5 -134.5t-157.5 -56.5zM209 646l-119 170h102l59 -89l59 89h102l-119 -170h-84z" />
    <glyph glyph-name="uniE305" unicode="&#xe305;" horiz-adv-x="488" 
d="M234 -249h-83l34 204h119zM244 -8q-137 0 -236 108l117 92q46 -75 119 -75q35 0 56 18.5t21 44.5q0 33 -54 53q-9 4 -61 19q-30 9 -49 16t-44.5 21.5t-40 31t-25.5 43.5t-11 61q0 78 57 129t147 51q128 0 210 -93l-108 -83q-37 59 -101 59q-32 0 -50.5 -15.5t-18.5 -39.5
q0 -18 15.5 -31t32.5 -19.5t52 -17.5q9 -3 13 -4q29 -9 49.5 -16.5t46 -22.5t41.5 -32.5t27 -45t11 -61.5q0 -78 -58.5 -134.5t-157.5 -56.5z" />
    <glyph glyph-name="uniE305" unicode="&#xf65d;" horiz-adv-x="488" 
d="M234 -249h-83l34 204h119zM244 -8q-137 0 -236 108l117 92q46 -75 119 -75q35 0 56 18.5t21 44.5q0 33 -54 53q-9 4 -61 19q-30 9 -49 16t-44.5 21.5t-40 31t-25.5 43.5t-11 61q0 78 57 129t147 51q128 0 210 -93l-108 -83q-37 59 -101 59q-32 0 -50.5 -15.5t-18.5 -39.5
q0 -18 15.5 -31t32.5 -19.5t52 -17.5q9 -3 13 -4q29 -9 49.5 -16.5t46 -22.5t41.5 -32.5t27 -45t11 -61.5q0 -78 -58.5 -134.5t-157.5 -56.5z" />
    <glyph glyph-name="uniE306" unicode="&#xe306;" horiz-adv-x="488" 
d="M234 -240q-78 0 -144 59l78 47l23 -18t22.5 -11t30.5 -5q22 0 38.5 9t16.5 22q0 27 -58 27h-50v106q-108 15 -183 104l117 92q46 -75 119 -75q35 0 56 18.5t21 44.5q0 33 -54 53q-9 4 -61 19q-30 9 -49 16t-44.5 21.5t-40 31t-25.5 43.5t-11 61q0 78 57 129t147 51
q128 0 210 -93l-108 -83q-37 59 -101 59q-32 0 -50.5 -15.5t-18.5 -39.5q0 -18 15.5 -31t32.5 -19.5t52 -17.5q9 -3 13 -4q29 -9 49.5 -16.5t46 -22.5t41.5 -32.5t27 -45t11 -61.5q0 -71 -50 -126t-135 -63v-47q55 2 85 -20t30 -60q0 -46 -45 -76.5t-111 -30.5z" />
    <glyph glyph-name="uniE306" unicode="&#xf65c;" horiz-adv-x="488" 
d="M234 -240q-78 0 -144 59l78 47l23 -18t22.5 -11t30.5 -5q22 0 38.5 9t16.5 22q0 27 -58 27h-50v106q-108 15 -183 104l117 92q46 -75 119 -75q35 0 56 18.5t21 44.5q0 33 -54 53q-9 4 -61 19q-30 9 -49 16t-44.5 21.5t-40 31t-25.5 43.5t-11 61q0 78 57 129t147 51
q128 0 210 -93l-108 -83q-37 59 -101 59q-32 0 -50.5 -15.5t-18.5 -39.5q0 -18 15.5 -31t32.5 -19.5t52 -17.5q9 -3 13 -4q29 -9 49.5 -16.5t46 -22.5t41.5 -32.5t27 -45t11 -61.5q0 -71 -50 -126t-135 -63v-47q55 2 85 -20t30 -60q0 -46 -45 -76.5t-111 -30.5z" />
    <glyph glyph-name="uniE309" unicode="&#xe309;" horiz-adv-x="494" 
d="M185 0v471h-152v125h432v-125h-150v-471h-130zM207 646l-119 170h102l59 -89l59 89h102l-119 -170h-84z" />
    <glyph glyph-name="uniE309" unicode="&#xf65e;" horiz-adv-x="494" 
d="M185 0v471h-152v125h432v-125h-150v-471h-130zM207 646l-119 170h102l59 -89l59 89h102l-119 -170h-84z" />
    <glyph glyph-name="uniE30A" unicode="&#xe30a;" horiz-adv-x="494" 
d="M239 -264h-83l34 204h119zM185 0v471h-152v125h432v-125h-150v-471h-130z" />
    <glyph glyph-name="uniE30A" unicode="&#xf65f;" horiz-adv-x="494" 
d="M239 -264h-83l34 204h119zM185 0v471h-152v125h432v-125h-150v-471h-130z" />
    <glyph glyph-name="uniE30D" unicode="&#xe30d;" horiz-adv-x="494" 
d="M412 212h-99v-212h-130v212h-101v125h101v134h-152v125h432v-125h-150v-134h99v-125z" />
    <glyph glyph-name="uniE30D" unicode="&#xf637;" horiz-adv-x="494" 
d="M412 212h-99v-212h-130v212h-101v125h101v134h-152v125h432v-125h-150v-134h99v-125z" />
    <glyph glyph-name="uniE30E" unicode="&#xe30e;" horiz-adv-x="519" 
d="M199 646l115 170h126l-150 -170h-91zM260 -8q-102 0 -162.5 58.5t-60.5 164.5v381h134v-385q0 -44 24 -70.5t64 -26.5t65 26.5t25 70.5v385h134v-381q0 -106 -60 -164.5t-163 -58.5z" />
    <glyph glyph-name="uniE30E" unicode="&#xf7fa;" horiz-adv-x="519" 
d="M199 646l115 170h126l-150 -170h-91zM260 -8q-102 0 -162.5 58.5t-60.5 164.5v381h134v-385q0 -44 24 -70.5t64 -26.5t65 26.5t25 70.5v385h134v-381q0 -106 -60 -164.5t-163 -58.5z" />
    <glyph glyph-name="uniE30F" unicode="&#xe30f;" horiz-adv-x="519" 
d="M260 -8q-102 0 -162.5 58.5t-60.5 164.5v381h134v-385q0 -44 24 -70.5t64 -26.5t65 26.5t25 70.5v385h134v-381q0 -106 -60 -164.5t-163 -58.5zM216 643l-150 170h127l114 -170h-91z" />
    <glyph glyph-name="uniE30F" unicode="&#xf7f9;" horiz-adv-x="519" 
d="M260 -8q-102 0 -162.5 58.5t-60.5 164.5v381h134v-385q0 -44 24 -70.5t64 -26.5t65 26.5t25 70.5v385h134v-381q0 -106 -60 -164.5t-163 -58.5zM216 643l-150 170h127l114 -170h-91z" />
    <glyph glyph-name="uniE310" unicode="&#xe310;" horiz-adv-x="850" 
d="M184 0l-165 596h136l98 -378l108 378h133l108 -379l98 379h134l-166 -596h-132l-109 383l-108 -383h-135zM261 715q0 32 19.5 52t52.5 20t52.5 -19.5t19.5 -52.5t-19.5 -52t-52.5 -19t-52.5 19t-19.5 52zM452 715q0 32 19.5 52t52.5 20t52.5 -20t19.5 -52t-19.5 -51.5
t-52.5 -19.5q-35 0 -53.5 19t-18.5 52z" />
    <glyph glyph-name="uniE310" unicode="&#xf63c;" horiz-adv-x="850" 
d="M184 0l-165 596h136l98 -378l108 378h133l108 -379l98 379h134l-166 -596h-132l-109 383l-108 -383h-135zM261 715q0 32 19.5 52t52.5 20t52.5 -19.5t19.5 -52.5t-19.5 -52t-52.5 -19t-52.5 19t-19.5 52zM452 715q0 32 19.5 52t52.5 20t52.5 -20t19.5 -52t-19.5 -51.5
t-52.5 -19.5q-35 0 -53.5 19t-18.5 52z" />
    <glyph glyph-name="uniE311" unicode="&#xe311;" horiz-adv-x="519" 
d="M94 715q0 32 19.5 52t52.5 20t52.5 -19.5t19.5 -52.5t-19 -52t-53 -19t-53 19t-19 52zM285 715q0 32 19.5 52t52.5 20t52.5 -20t19.5 -52t-19.5 -51.5t-52.5 -19.5q-35 0 -53.5 19t-18.5 52zM260 -8q-102 0 -162.5 58.5t-60.5 164.5v381h134v-385q0 -44 24 -70.5
t64 -26.5t65 26.5t25 70.5v385h134v-381q0 -106 -60 -164.5t-163 -58.5z" />
    <glyph glyph-name="uniE311" unicode="&#xf7fc;" horiz-adv-x="519" 
d="M94 715q0 32 19.5 52t52.5 20t52.5 -19.5t19.5 -52.5t-19 -52t-53 -19t-53 19t-19 52zM285 715q0 32 19.5 52t52.5 20t52.5 -20t19.5 -52t-19.5 -51.5t-52.5 -19.5q-35 0 -53.5 19t-18.5 52zM260 -8q-102 0 -162.5 58.5t-60.5 164.5v381h134v-385q0 -44 24 -70.5
t64 -26.5t65 26.5t25 70.5v385h134v-381q0 -106 -60 -164.5t-163 -58.5z" />
    <glyph glyph-name="uniE312" unicode="&#xe312;" horiz-adv-x="519" 
d="M260 -8q-102 0 -162.5 58.5t-60.5 164.5v381h134v-385q0 -44 24 -70.5t64 -26.5t65 26.5t25 70.5v385h134v-381q0 -106 -60 -164.5t-163 -58.5zM167 646h-78q0 61 28 98t76 37q35 0 77 -24q37 -25 52 -25q28 0 28 45h78q0 -64 -26.5 -99.5t-78.5 -35.5q-9 0 -18.5 1.5
t-16 3.5t-15.5 6t-12.5 6l-13 7.5t-11.5 6.5q-28 17 -43 17q-26 0 -26 -44z" />
    <glyph glyph-name="uniE312" unicode="&#xf639;" horiz-adv-x="519" 
d="M260 -8q-102 0 -162.5 58.5t-60.5 164.5v381h134v-385q0 -44 24 -70.5t64 -26.5t65 26.5t25 70.5v385h134v-381q0 -106 -60 -164.5t-163 -58.5zM167 646h-78q0 61 28 98t76 37q35 0 77 -24q37 -25 52 -25q28 0 28 45h78q0 -64 -26.5 -99.5t-78.5 -35.5q-9 0 -18.5 1.5
t-16 3.5t-15.5 6t-12.5 6l-13 7.5t-11.5 6.5q-28 17 -43 17q-26 0 -26 -44z" />
    <glyph glyph-name="uniE313" unicode="&#xe313;" horiz-adv-x="519" 
d="M260 -8q-102 0 -162.5 58.5t-60.5 164.5v381h134v-385q0 -44 24 -70.5t64 -26.5t65 26.5t25 70.5v385h134v-381q0 -106 -60 -164.5t-163 -58.5zM260 636q-48 0 -82 34t-34 82q0 50 34 84t82 34q49 0 83 -34t34 -84q0 -48 -34 -82t-83 -34zM260 713q17 0 29 11.5t12 27.5
q0 17 -12 29t-29 12t-28.5 -12t-11.5 -29q0 -16 11.5 -27.5t28.5 -11.5z" />
    <glyph glyph-name="uniE313" unicode="&#xf663;" horiz-adv-x="519" 
d="M260 -8q-102 0 -162.5 58.5t-60.5 164.5v381h134v-385q0 -44 24 -70.5t64 -26.5t65 26.5t25 70.5v385h134v-381q0 -106 -60 -164.5t-163 -58.5zM260 636q-48 0 -82 34t-34 82q0 50 34 84t82 34q49 0 83 -34t34 -84q0 -48 -34 -82t-83 -34zM260 713q17 0 29 11.5t12 27.5
q0 17 -12 29t-29 12t-28.5 -12t-11.5 -29q0 -16 11.5 -27.5t28.5 -11.5z" />
    <glyph glyph-name="uniE315" unicode="&#xe315;" horiz-adv-x="519" 
d="M260 -8q-102 0 -162.5 58.5t-60.5 164.5v381h134v-385q0 -44 24 -70.5t64 -26.5t65 26.5t25 70.5v385h134v-381q0 -106 -60 -164.5t-163 -58.5zM130 646v86h264v-86h-264z" />
    <glyph glyph-name="uniE315" unicode="&#xf661;" horiz-adv-x="519" 
d="M260 -8q-102 0 -162.5 58.5t-60.5 164.5v381h134v-385q0 -44 24 -70.5t64 -26.5t65 26.5t25 70.5v385h134v-381q0 -106 -60 -164.5t-163 -58.5zM130 646v86h264v-86h-264z" />
    <glyph glyph-name="uniE316" unicode="&#xe316;" horiz-adv-x="519" 
d="M260 -8q-102 0 -162.5 58.5t-60.5 164.5v381h134v-385q0 -44 24 -70.5t64 -26.5t65 26.5t25 70.5v385h134v-381q0 -106 -60 -164.5t-163 -58.5zM262 636q-79 0 -120 47t-41 123h85q0 -91 76 -96q76 5 76 96h86q0 -74 -44 -122t-118 -48z" />
    <glyph glyph-name="uniE316" unicode="&#xf638;" horiz-adv-x="519" 
d="M260 -8q-102 0 -162.5 58.5t-60.5 164.5v381h134v-385q0 -44 24 -70.5t64 -26.5t65 26.5t25 70.5v385h134v-381q0 -106 -60 -164.5t-163 -58.5zM262 636q-79 0 -120 47t-41 123h85q0 -91 76 -96q76 5 76 96h86q0 -74 -44 -122t-118 -48z" />
    <glyph glyph-name="uniE318" unicode="&#xe318;" horiz-adv-x="519" 
d="M260 -8q-102 0 -162.5 58.5t-60.5 164.5v381h134v-385q0 -44 24 -70.5t64 -26.5t65 26.5t25 70.5v385h134v-381q0 -106 -60 -164.5t-163 -58.5zM122 646l114 170h120l-150 -170h-84zM288 646l114 170h120l-150 -170h-84z" />
    <glyph glyph-name="uniE318" unicode="&#xf660;" horiz-adv-x="519" 
d="M260 -8q-102 0 -162.5 58.5t-60.5 164.5v381h134v-385q0 -44 24 -70.5t64 -26.5t65 26.5t25 70.5v385h134v-381q0 -106 -60 -164.5t-163 -58.5zM122 646l114 170h120l-150 -170h-84zM288 646l114 170h120l-150 -170h-84z" />
    <glyph glyph-name="uniE31B" unicode="&#xe31b;" horiz-adv-x="519" 
d="M279 -212q-64 0 -104 31t-40 78q0 57 57 103q-74 18 -114.5 72.5t-40.5 142.5v381h134v-385q0 -44 24 -70.5t64 -26.5t65 26.5t25 70.5v385h134v-381q0 -158 -127 -207q-80 -54 -100 -71t-20 -35q0 -31 43 -31q6 0 11 0.5t10 2.5t8 3.5t8 5l7 5t8 6.5t8 6l79 -54
q-27 -25 -65.5 -41.5t-73.5 -16.5z" />
    <glyph glyph-name="uniE31B" unicode="&#xf662;" horiz-adv-x="519" 
d="M279 -212q-64 0 -104 31t-40 78q0 57 57 103q-74 18 -114.5 72.5t-40.5 142.5v381h134v-385q0 -44 24 -70.5t64 -26.5t65 26.5t25 70.5v385h134v-381q0 -158 -127 -207q-80 -54 -100 -71t-20 -35q0 -31 43 -31q6 0 11 0.5t10 2.5t8 3.5t8 5l7 5t8 6.5t8 6l79 -54
q-27 -25 -65.5 -41.5t-73.5 -16.5z" />
    <glyph glyph-name="uniE31D" unicode="&#xe31d;" horiz-adv-x="850" 
d="M184 0l-165 596h136l98 -378l108 378h133l108 -379l98 379h134l-166 -596h-132l-109 383l-108 -383h-135zM381 646l115 170h126l-150 -170h-91z" />
    <glyph glyph-name="uniE31D" unicode="&#xf63a;" horiz-adv-x="850" 
d="M184 0l-165 596h136l98 -378l108 378h133l108 -379l98 379h134l-166 -596h-132l-109 383l-108 -383h-135zM381 646l115 170h126l-150 -170h-91z" />
    <glyph glyph-name="uniE31E" unicode="&#xe31e;" horiz-adv-x="850" 
d="M184 0l-165 596h136l98 -378l108 378h133l108 -379l98 379h134l-166 -596h-132l-109 383l-108 -383h-135zM383 646l-150 170h127l114 -170h-91z" />
    <glyph glyph-name="uniE31E" unicode="&#xf63d;" horiz-adv-x="850" 
d="M184 0l-165 596h136l98 -378l108 378h133l108 -379l98 379h134l-166 -596h-132l-109 383l-108 -383h-135zM383 646l-150 170h127l114 -170h-91z" />
    <glyph glyph-name="uniE31F" unicode="&#xe31f;" horiz-adv-x="850" 
d="M184 0l-165 596h136l98 -378l108 378h133l108 -379l98 379h134l-166 -596h-132l-109 383l-108 -383h-135zM268 642l119 170h84l119 -170h-102l-59 89l-59 -89h-102z" />
    <glyph glyph-name="uniE31F" unicode="&#xf63b;" horiz-adv-x="850" 
d="M184 0l-165 596h136l98 -378l108 378h133l108 -379l98 379h134l-166 -596h-132l-109 383l-108 -383h-135zM268 642l119 170h84l119 -170h-102l-59 89l-59 -89h-102z" />
    <glyph glyph-name="uniE321" unicode="&#xe321;" horiz-adv-x="537" 
d="M202 0v280l-186 316h145l109 -187l110 187h145l-188 -318v-278h-135zM219 638l115 170h126l-150 -170h-91z" />
    <glyph glyph-name="uniE321" unicode="&#xf7fd;" horiz-adv-x="537" 
d="M202 0v280l-186 316h145l109 -187l110 187h145l-188 -318v-278h-135zM219 638l115 170h126l-150 -170h-91z" />
    <glyph glyph-name="uniE322" unicode="&#xe322;" horiz-adv-x="538" 
d="M202 0v280l-186 316h145l109 -187l110 187h145l-188 -318v-278h-135zM223 638l-150 170h127l114 -170h-91z" />
    <glyph glyph-name="uniE322" unicode="&#xf63f;" horiz-adv-x="538" 
d="M202 0v280l-186 316h145l109 -187l110 187h145l-188 -318v-278h-135zM223 638l-150 170h127l114 -170h-91z" />
    <glyph glyph-name="uniE323" unicode="&#xe323;" horiz-adv-x="537" 
d="M202 0v280l-186 316h145l109 -187l110 187h145l-188 -318v-278h-135zM109 646l119 170h84l119 -170h-102l-59 89l-59 -89h-102z" />
    <glyph glyph-name="uniE323" unicode="&#xf63e;" horiz-adv-x="537" 
d="M202 0v280l-186 316h145l109 -187l110 187h145l-188 -318v-278h-135zM109 646l119 170h84l119 -170h-102l-59 89l-59 -89h-102z" />
    <glyph glyph-name="uniE324" unicode="&#xe324;" horiz-adv-x="537" 
d="M202 0v280l-186 316h145l109 -187l110 187h145l-188 -318v-278h-135zM102 715q0 32 19.5 52t52.5 20t52.5 -19.5t19.5 -52.5t-19 -52t-53 -19t-53 19t-19 52zM293 715q0 32 19.5 52t52.5 20t52.5 -20t19.5 -52t-19.5 -51.5t-52.5 -19.5q-35 0 -53.5 19t-18.5 52z" />
    <glyph glyph-name="uniE324" unicode="&#xf7ff;" horiz-adv-x="537" 
d="M202 0v280l-186 316h145l109 -187l110 187h145l-188 -318v-278h-135zM102 715q0 32 19.5 52t52.5 20t52.5 -19.5t19.5 -52.5t-19 -52t-53 -19t-53 19t-19 52zM293 715q0 32 19.5 52t52.5 20t52.5 -20t19.5 -52t-19.5 -51.5t-52.5 -19.5q-35 0 -53.5 19t-18.5 52z" />
    <glyph glyph-name="uniE327" unicode="&#xe327;" horiz-adv-x="452" 
d="M216 0v123h6q36 1 47.5 13.5t11.5 54.5v405h135v-401q0 -115 -41 -155t-149 -40h-10zM36 0v596h135v-596h-135z" />
    <glyph glyph-name="uniE327" unicode="&#xf631;" horiz-adv-x="452" 
d="M216 0v123h6q36 1 47.5 13.5t11.5 54.5v405h135v-401q0 -115 -41 -155t-149 -40h-10zM36 0v596h135v-596h-135z" />
    <glyph glyph-name="uniE328" unicode="&#xe328;" horiz-adv-x="456" 
d="M31 0v123l238 349h-233v124h389v-120l-241 -352h241v-124h-394zM173 646l115 170h126l-150 -170h-91z" />
    <glyph glyph-name="uniE328" unicode="&#xf664;" horiz-adv-x="456" 
d="M31 0v123l238 349h-233v124h389v-120l-241 -352h241v-124h-394zM173 646l115 170h126l-150 -170h-91z" />
    <glyph glyph-name="uniE329" unicode="&#xe329;" horiz-adv-x="456" 
d="M31 0v123l238 349h-233v124h389v-120l-241 -352h241v-124h-394zM190 646l-119 170h102l59 -89l59 89h102l-119 -170h-84z" />
    <glyph glyph-name="uniE329" unicode="&#xf6ff;" horiz-adv-x="456" 
d="M31 0v123l238 349h-233v124h389v-120l-241 -352h241v-124h-394zM190 646l-119 170h102l59 -89l59 89h102l-119 -170h-84z" />
    <glyph glyph-name="uniE32A" unicode="&#xe32a;" horiz-adv-x="456" 
d="M31 0v123l238 349h-233v124h389v-120l-241 -352h241v-124h-394zM149 715q0 35 21.5 57t57.5 22t57.5 -21.5t21.5 -57.5q0 -35 -21.5 -56.5t-57.5 -21.5q-38 0 -58.5 21t-20.5 57z" />
    <glyph glyph-name="uniE32A" unicode="&#xf665;" horiz-adv-x="456" 
d="M31 0v123l238 349h-233v124h389v-120l-241 -352h241v-124h-394zM149 715q0 35 21.5 57t57.5 22t57.5 -21.5t21.5 -57.5q0 -35 -21.5 -56.5t-57.5 -21.5q-38 0 -58.5 21t-20.5 57z" />
    <glyph glyph-name="uniE32B" unicode="&#xe32b;" horiz-adv-x="579" 
d="M313 -230v125q63 0 79 16t16 76v19l-238 370v-376h-133v596h145l227 -354v354h133v-610q0 -122 -45.5 -169t-164.5 -47h-19z" />
    <glyph glyph-name="uniE32B" unicode="&#xf62b;" horiz-adv-x="579" 
d="M313 -230v125q63 0 79 16t16 76v19l-238 370v-376h-133v596h145l227 -354v354h133v-610q0 -122 -45.5 -169t-164.5 -47h-19z" />
    <glyph glyph-name="uniE32C" unicode="&#xe32c;" horiz-adv-x="586" 
d="M20 243v110h51v243h176q139 0 225 -85t86 -213q0 -129 -87 -213.5t-221 -84.5h-179v243h-51zM324 243h-119v-119h37q82 0 131.5 49.5t49.5 124.5q0 77 -48.5 125.5t-135.5 48.5h-34v-119h119v-110z" />
    <glyph glyph-name="uniE32C" unicode="&#xf7f0;" horiz-adv-x="586" 
d="M20 243v110h51v243h176q139 0 225 -85t86 -213q0 -129 -87 -213.5t-221 -84.5h-179v243h-51zM324 243h-119v-119h37q82 0 131.5 49.5t49.5 124.5q0 77 -48.5 125.5t-135.5 48.5h-34v-119h119v-110z" />
    <glyph glyph-name="uniE32D" unicode="&#xe32d;" horiz-adv-x="466" 
d="M37 0v596h134v-97h68q93 0 149 -57t56 -141t-55.5 -141.5t-150.5 -57.5h-67v-102h-134zM238 375h-67v-149h67q32 0 54 21t22 53q0 33 -21.5 54t-54.5 21z" />
    <glyph glyph-name="uniE32D" unicode="&#xf7fe;" horiz-adv-x="466" 
d="M37 0v596h134v-97h68q93 0 149 -57t56 -141t-55.5 -141.5t-150.5 -57.5h-67v-102h-134zM238 375h-67v-149h67q32 0 54 21t22 53q0 33 -21.5 54t-54.5 21z" />
    <glyph glyph-name="uniE351" unicode="&#xe351;" horiz-adv-x="341" 
d="M14 440l100 290h113l100 -290h-99l-12 35h-91l-11 -35h-100zM190 554l-19 58l-19 -58h38z" />
    <glyph glyph-name="uniE352" unicode="&#xe352;" horiz-adv-x="339" 
d="M170 435q-62 0 -106 44t-44 106q0 63 44 107t106 44t105.5 -43.5t43.5 -107.5q0 -62 -43.5 -106t-105.5 -44zM170 528q23 0 39 17t16 40q0 24 -16 41t-39 17q-24 0 -39.5 -17t-15.5 -41t15.5 -40.5t39.5 -16.5z" />
    <glyph glyph-name="uniE353" unicode="&#xe353;" horiz-adv-x="324" 
d="M170 435q-62 0 -106 44t-44 106q0 63 44 107t106 44q47 0 83.5 -25t54.5 -65l-86 -39q-13 36 -51 36q-23 0 -39.5 -17t-16.5 -41q0 -23 16.5 -40t39.5 -17q38 0 51 35l87 -37q-18 -41 -54 -66t-85 -25z" />
    <glyph glyph-name="uniE38C" unicode="&#xe38c;" horiz-adv-x="561" 
d="M26 380v120h85v14q0 123 47 169.5t171 46.5h11v-125q-63 0 -79 -15.5t-16 -76.5v-13h95v-120h-95v-380h-134v380h-85zM391 0v500h134v-500h-134zM391 552v137h134v-137h-134z" />
    <glyph glyph-name="uniE38C" unicode="&#xfb01;" horiz-adv-x="561" 
d="M26 380v120h85v14q0 123 47 169.5t171 46.5h11v-125q-63 0 -79 -15.5t-16 -76.5v-13h95v-120h-95v-380h-134v380h-85zM391 0v500h134v-500h-134zM391 552v137h134v-137h-134z" />
    <glyph glyph-name="uniE38D" unicode="&#xe38d;" horiz-adv-x="561" 
d="M26 380v120h85v14q0 123 47 169.5t171 46.5h11v-125q-63 0 -79 -15.5t-16 -76.5v-13h95v-120h-95v-380h-134v380h-85zM391 0v730h134v-730h-134z" />
    <glyph glyph-name="uniE38D" unicode="&#xfb02;" horiz-adv-x="561" 
d="M26 380v120h85v14q0 123 47 169.5t171 46.5h11v-125q-63 0 -79 -15.5t-16 -76.5v-13h95v-120h-95v-380h-134v380h-85zM391 0v730h134v-730h-134z" />
    <glyph glyph-name="uniE401" unicode="&#xe401;" horiz-adv-x="639" 
d="M451 0l-37 36q-76 -45 -156 -45q-120 0 -178 56.5t-58 137.5q0 103 93 164q-26 44 -26 94q0 69 49 115t129 46q133 0 182 -108l-128 -56q-14 45 -50 45q-20 0 -33 -12t-13 -30q0 -23 16 -44.5t72 -78.5q11 -10 16 -16l98 -99q31 43 43 92h-94v123h227v-59
q0 -126 -93 -239l120 -122h-179zM258 106q36 0 69 15l-105 107l-30 29q-39 -27 -39 -71q0 -34 28 -57t77 -23z" />
    <glyph glyph-name="uniE401" unicode="&#xf726;" horiz-adv-x="639" 
d="M451 0l-37 36q-76 -45 -156 -45q-120 0 -178 56.5t-58 137.5q0 103 93 164q-26 44 -26 94q0 69 49 115t129 46q133 0 182 -108l-128 -56q-14 45 -50 45q-20 0 -33 -12t-13 -30q0 -23 16 -44.5t72 -78.5q11 -10 16 -16l98 -99q31 43 43 92h-94v123h227v-59
q0 -126 -93 -239l120 -122h-179zM258 106q36 0 69 15l-105 107l-30 29q-39 -27 -39 -71q0 -34 28 -57t77 -23z" />
    <glyph glyph-name="uniE411" unicode="&#xe411;" horiz-adv-x="472" 
d="M159 550h-85q0 76 41 123t120 47q74 0 118 -48t44 -122h-86q0 92 -76 97q-76 -3 -76 -97z" />
    <glyph glyph-name="uniE412" unicode="&#xe412;" horiz-adv-x="472" 
d="M188 550l-149 170h126l114 -170h-91zM353 550l-149 170h126l114 -170h-91z" />
    <glyph glyph-name="uniE413" unicode="&#xe413;" horiz-adv-x="472" 
d="M189 549l25 171h109l-51 -171h-83z" />
    <glyph glyph-name="uniE414" unicode="&#xe414;" horiz-adv-x="473" 
d="M238 -249h-83l34 204h119z" />
    <glyph glyph-name="uniE414" unicode="&#xf6c3;" horiz-adv-x="473" 
d="M238 -249h-83l34 204h119z" />
    <glyph glyph-name="uniE415" unicode="&#xe415;" horiz-adv-x="473" 
d="M146 -119q0 35 21.5 57t57.5 22t57.5 -21.5t21.5 -57.5q0 -35 -21 -56.5t-58 -21.5q-38 0 -58.5 21t-20.5 57z" />
    </font>
</defs>
</svg>
